<svg width="1311" height="801" viewBox="0 0 1311 801" fill="none" xmlns="http://www.w3.org/2000/svg">
<path d="M1059.88 178C1059.29 178 1058.85 177.835 1058.57 177.505C1058.3 177.175 1058.17 176.75 1058.17 176.23V171.28H1055.59V170.26H1057.51C1057.77 170.26 1057.95 170.21 1058.05 170.11C1058.16 170 1058.21 169.815 1058.21 169.555V167.53H1059.37V170.26H1062.89V171.28H1059.37V176.98H1062.89V178H1059.88ZM1070.32 176.74H1070.26C1070.18 176.93 1070.08 177.115 1069.96 177.295C1069.84 177.465 1069.69 177.615 1069.51 177.745C1069.34 177.875 1069.14 177.98 1068.9 178.06C1068.66 178.14 1068.38 178.18 1068.06 178.18C1067.25 178.18 1066.6 177.925 1066.11 177.415C1065.62 176.895 1065.37 176.165 1065.37 175.225V170.26H1066.57V175.015C1066.57 175.725 1066.73 176.255 1067.04 176.605C1067.35 176.945 1067.8 177.115 1068.4 177.115C1068.64 177.115 1068.88 177.085 1069.11 177.025C1069.34 176.965 1069.54 176.875 1069.72 176.755C1069.9 176.635 1070.05 176.485 1070.16 176.305C1070.27 176.115 1070.32 175.89 1070.32 175.63V170.26H1071.52V178H1070.32V176.74ZM1074.46 178V170.26H1075.66V171.52H1075.72C1075.8 171.33 1075.9 171.15 1076.02 170.98C1076.14 170.8 1076.28 170.645 1076.45 170.515C1076.63 170.385 1076.84 170.28 1077.08 170.2C1077.32 170.12 1077.6 170.08 1077.92 170.08C1078.73 170.08 1079.38 170.34 1079.87 170.86C1080.36 171.37 1080.61 172.095 1080.61 173.035V178H1079.41V173.245C1079.41 172.535 1079.25 172.01 1078.94 171.67C1078.63 171.32 1078.18 171.145 1077.58 171.145C1077.34 171.145 1077.1 171.175 1076.87 171.235C1076.64 171.295 1076.44 171.385 1076.26 171.505C1076.08 171.625 1075.93 171.78 1075.82 171.97C1075.71 172.16 1075.66 172.38 1075.66 172.63V178H1074.46ZM1083.45 178V170.26H1084.65V171.52H1084.71C1084.79 171.33 1084.89 171.15 1085.01 170.98C1085.13 170.8 1085.28 170.645 1085.45 170.515C1085.63 170.385 1085.84 170.28 1086.08 170.2C1086.32 170.12 1086.6 170.08 1086.92 170.08C1087.73 170.08 1088.38 170.34 1088.87 170.86C1089.36 171.37 1089.6 172.095 1089.6 173.035V178H1088.4V173.245C1088.4 172.535 1088.25 172.01 1087.94 171.67C1087.63 171.32 1087.17 171.145 1086.57 171.145C1086.33 171.145 1086.1 171.175 1085.87 171.235C1085.64 171.295 1085.43 171.385 1085.25 171.505C1085.07 171.625 1084.93 171.78 1084.82 171.97C1084.71 172.16 1084.65 172.38 1084.65 172.63V178H1083.45ZM1095.61 178.18C1095.05 178.18 1094.55 178.085 1094.1 177.895C1093.66 177.705 1093.28 177.435 1092.96 177.085C1092.65 176.725 1092.41 176.3 1092.24 175.81C1092.07 175.31 1091.98 174.755 1091.98 174.145C1091.98 173.525 1092.07 172.965 1092.24 172.465C1092.42 171.965 1092.66 171.54 1092.97 171.19C1093.28 170.83 1093.65 170.555 1094.08 170.365C1094.52 170.175 1095.01 170.08 1095.54 170.08C1096.06 170.08 1096.53 170.175 1096.95 170.365C1097.38 170.555 1097.74 170.82 1098.04 171.16C1098.34 171.49 1098.57 171.885 1098.73 172.345C1098.89 172.805 1098.97 173.31 1098.97 173.86V174.43H1093.24V174.79C1093.24 175.13 1093.3 175.445 1093.41 175.735C1093.52 176.025 1093.67 176.275 1093.87 176.485C1094.08 176.695 1094.33 176.86 1094.62 176.98C1094.92 177.09 1095.25 177.145 1095.61 177.145C1096.13 177.145 1096.58 177.025 1096.96 176.785C1097.34 176.545 1097.63 176.215 1097.83 175.795L1098.72 176.395C1098.49 176.915 1098.1 177.345 1097.56 177.685C1097.03 178.015 1096.38 178.18 1095.61 178.18ZM1095.54 171.07C1095.21 171.07 1094.9 171.13 1094.62 171.25C1094.34 171.37 1094.1 171.535 1093.89 171.745C1093.69 171.955 1093.53 172.205 1093.41 172.495C1093.3 172.775 1093.24 173.085 1093.24 173.425V173.53H1097.68V173.365C1097.68 173.025 1097.63 172.715 1097.52 172.435C1097.42 172.155 1097.27 171.915 1097.08 171.715C1096.9 171.505 1096.68 171.345 1096.41 171.235C1096.15 171.125 1095.86 171.07 1095.54 171.07ZM1101.17 176.98H1103.87V167.92H1101.17V166.9H1105.07V176.98H1107.77V178H1101.17V176.98ZM1119.23 178V176.905H1122.23V168.46H1122.13L1119.49 170.92L1118.75 170.125L1121.53 167.53H1123.49V176.905H1126.25V178H1119.23ZM1127.85 173.995V172.885H1135.05V173.995H1127.85ZM1137.22 178V176.905H1140.22V168.46H1140.12L1137.48 170.92L1136.74 170.125L1139.52 167.53H1141.48V176.905H1144.24V178H1137.22ZM1149.44 178.18C1148.8 178.18 1148.25 178.06 1147.79 177.82C1147.33 177.57 1146.95 177.215 1146.65 176.755C1146.35 176.295 1146.13 175.73 1145.99 175.06C1145.85 174.39 1145.78 173.625 1145.78 172.765C1145.78 171.915 1145.85 171.155 1145.99 170.485C1146.13 169.805 1146.35 169.235 1146.65 168.775C1146.95 168.315 1147.33 167.965 1147.79 167.725C1148.25 167.475 1148.8 167.35 1149.44 167.35C1150.08 167.35 1150.63 167.475 1151.09 167.725C1151.55 167.965 1151.93 168.315 1152.23 168.775C1152.53 169.235 1152.75 169.805 1152.89 170.485C1153.03 171.155 1153.1 171.915 1153.1 172.765C1153.1 173.625 1153.03 174.39 1152.89 175.06C1152.75 175.73 1152.53 176.295 1152.23 176.755C1151.93 177.215 1151.55 177.57 1151.09 177.82C1150.63 178.06 1150.08 178.18 1149.44 178.18ZM1149.44 177.085C1149.86 177.085 1150.22 177.005 1150.52 176.845C1150.82 176.675 1151.06 176.44 1151.24 176.14C1151.43 175.84 1151.57 175.48 1151.66 175.06C1151.75 174.63 1151.8 174.15 1151.8 173.62V171.91C1151.8 171.39 1151.75 170.915 1151.66 170.485C1151.57 170.055 1151.43 169.69 1151.24 169.39C1151.06 169.09 1150.82 168.86 1150.52 168.7C1150.22 168.53 1149.86 168.445 1149.44 168.445C1149.02 168.445 1148.66 168.53 1148.36 168.7C1148.06 168.86 1147.82 169.09 1147.63 169.39C1147.45 169.69 1147.31 170.055 1147.22 170.485C1147.13 170.915 1147.09 171.39 1147.09 171.91V173.62C1147.09 174.15 1147.13 174.63 1147.22 175.06C1147.31 175.48 1147.45 175.84 1147.63 176.14C1147.82 176.44 1148.06 176.675 1148.36 176.845C1148.66 177.005 1149.02 177.085 1149.44 177.085ZM1149.44 173.65C1149.09 173.65 1148.85 173.58 1148.71 173.44C1148.58 173.3 1148.51 173.13 1148.51 172.93V172.6C1148.51 172.4 1148.58 172.23 1148.71 172.09C1148.85 171.95 1149.09 171.88 1149.44 171.88C1149.79 171.88 1150.03 171.95 1150.16 172.09C1150.3 172.23 1150.37 172.4 1150.37 172.6V172.93C1150.37 173.13 1150.3 173.3 1150.16 173.44C1150.03 173.58 1149.79 173.65 1149.44 173.65ZM1156.26 174.07V172.81H1160.61V174.07H1156.26ZM1167.43 178.18C1166.79 178.18 1166.24 178.06 1165.78 177.82C1165.32 177.57 1164.94 177.215 1164.64 176.755C1164.34 176.295 1164.12 175.73 1163.98 175.06C1163.84 174.39 1163.77 173.625 1163.77 172.765C1163.77 171.915 1163.84 171.155 1163.98 170.485C1164.12 169.805 1164.34 169.235 1164.64 168.775C1164.94 168.315 1165.32 167.965 1165.78 167.725C1166.24 167.475 1166.79 167.35 1167.43 167.35C1168.07 167.35 1168.62 167.475 1169.08 167.725C1169.54 167.965 1169.92 168.315 1170.22 168.775C1170.52 169.235 1170.74 169.805 1170.88 170.485C1171.02 171.155 1171.09 171.915 1171.09 172.765C1171.09 173.625 1171.02 174.39 1170.88 175.06C1170.74 175.73 1170.52 176.295 1170.22 176.755C1169.92 177.215 1169.54 177.57 1169.08 177.82C1168.62 178.06 1168.07 178.18 1167.43 178.18ZM1167.43 177.085C1167.85 177.085 1168.21 177.005 1168.51 176.845C1168.81 176.675 1169.05 176.44 1169.23 176.14C1169.42 175.84 1169.56 175.48 1169.65 175.06C1169.74 174.63 1169.78 174.15 1169.78 173.62V171.91C1169.78 171.39 1169.74 170.915 1169.65 170.485C1169.56 170.055 1169.42 169.69 1169.23 169.39C1169.05 169.09 1168.81 168.86 1168.51 168.7C1168.21 168.53 1167.85 168.445 1167.43 168.445C1167.01 168.445 1166.65 168.53 1166.35 168.7C1166.05 168.86 1165.8 169.09 1165.61 169.39C1165.43 169.69 1165.3 170.055 1165.21 170.485C1165.12 170.915 1165.07 171.39 1165.07 171.91V173.62C1165.07 174.15 1165.12 174.63 1165.21 175.06C1165.3 175.48 1165.43 175.84 1165.61 176.14C1165.8 176.44 1166.05 176.675 1166.35 176.845C1166.65 177.005 1167.01 177.085 1167.43 177.085ZM1167.43 173.65C1167.08 173.65 1166.83 173.58 1166.69 173.44C1166.56 173.3 1166.5 173.13 1166.5 172.93V172.6C1166.5 172.4 1166.56 172.23 1166.69 172.09C1166.83 171.95 1167.08 171.88 1167.43 171.88C1167.78 171.88 1168.02 171.95 1168.15 172.09C1168.29 172.23 1168.36 172.4 1168.36 172.6V172.93C1168.36 173.13 1168.29 173.3 1168.15 173.44C1168.02 173.58 1167.78 173.65 1167.43 173.65ZM1176.44 178.18C1175.89 178.18 1175.39 178.09 1174.95 177.91C1174.51 177.72 1174.14 177.455 1173.83 177.115C1173.53 176.765 1173.29 176.34 1173.12 175.84C1172.96 175.34 1172.88 174.78 1172.88 174.16C1172.88 173.38 1173 172.65 1173.23 171.97C1173.47 171.28 1173.77 170.655 1174.13 170.095C1174.5 169.525 1174.91 169.025 1175.36 168.595C1175.81 168.155 1176.25 167.8 1176.68 167.53H1178.3C1177.73 167.94 1177.22 168.34 1176.77 168.73C1176.33 169.12 1175.94 169.53 1175.6 169.96C1175.26 170.38 1174.97 170.835 1174.74 171.325C1174.51 171.805 1174.32 172.35 1174.17 172.96L1174.25 172.99C1174.5 172.56 1174.83 172.205 1175.24 171.925C1175.65 171.635 1176.18 171.49 1176.83 171.49C1177.29 171.49 1177.71 171.565 1178.09 171.715C1178.47 171.865 1178.8 172.08 1179.08 172.36C1179.36 172.64 1179.57 172.98 1179.72 173.38C1179.88 173.78 1179.96 174.225 1179.96 174.715C1179.96 175.225 1179.88 175.695 1179.71 176.125C1179.54 176.545 1179.3 176.91 1178.99 177.22C1178.69 177.52 1178.32 177.755 1177.88 177.925C1177.45 178.095 1176.97 178.18 1176.44 178.18ZM1176.42 177.115C1177.14 177.115 1177.7 176.92 1178.09 176.53C1178.49 176.14 1178.69 175.59 1178.69 174.88V174.76C1178.69 174.05 1178.49 173.5 1178.09 173.11C1177.7 172.72 1177.14 172.525 1176.42 172.525C1175.7 172.525 1175.14 172.72 1174.74 173.11C1174.35 173.5 1174.16 174.05 1174.16 174.76V174.88C1174.16 175.59 1174.35 176.14 1174.74 176.53C1175.14 176.92 1175.7 177.115 1176.42 177.115Z" fill="white"/>
</svg>
