<svg width="1311" height="801" viewBox="0 0 1311 801" fill="none" xmlns="http://www.w3.org/2000/svg">
<path d="M785.875 52C785.285 52 784.85 51.835 784.57 51.505C784.3 51.175 784.165 50.75 784.165 50.23V45.28H781.585V44.26H783.505C783.765 44.26 783.945 44.21 784.045 44.11C784.155 44 784.21 43.815 784.21 43.555V41.53H785.365V44.26H788.89V45.28H785.365V50.98H788.89V52H785.875ZM796.324 50.74H796.264C796.184 50.93 796.084 51.115 795.964 51.295C795.844 51.465 795.694 51.615 795.514 51.745C795.344 51.875 795.139 51.98 794.899 52.06C794.659 52.14 794.379 52.18 794.059 52.18C793.249 52.18 792.599 51.925 792.109 51.415C791.619 50.895 791.374 50.165 791.374 49.225V44.26H792.574V49.015C792.574 49.725 792.729 50.255 793.039 50.605C793.349 50.945 793.804 51.115 794.404 51.115C794.644 51.115 794.879 51.085 795.109 51.025C795.339 50.965 795.544 50.875 795.724 50.755C795.904 50.635 796.049 50.485 796.159 50.305C796.269 50.115 796.324 49.89 796.324 49.63V44.26H797.524V52H796.324V50.74ZM800.458 52V44.26H801.658V45.52H801.718C801.798 45.33 801.898 45.15 802.018 44.98C802.138 44.8 802.283 44.645 802.453 44.515C802.633 44.385 802.843 44.28 803.083 44.2C803.323 44.12 803.603 44.08 803.923 44.08C804.733 44.08 805.383 44.34 805.873 44.86C806.363 45.37 806.608 46.095 806.608 47.035V52H805.408V47.245C805.408 46.535 805.253 46.01 804.943 45.67C804.633 45.32 804.178 45.145 803.578 45.145C803.338 45.145 803.103 45.175 802.873 45.235C802.643 45.295 802.438 45.385 802.258 45.505C802.078 45.625 801.933 45.78 801.823 45.97C801.713 46.16 801.658 46.38 801.658 46.63V52H800.458ZM809.452 52V44.26H810.652V45.52H810.712C810.792 45.33 810.892 45.15 811.012 44.98C811.132 44.8 811.277 44.645 811.447 44.515C811.627 44.385 811.837 44.28 812.077 44.2C812.317 44.12 812.597 44.08 812.917 44.08C813.727 44.08 814.377 44.34 814.867 44.86C815.357 45.37 815.602 46.095 815.602 47.035V52H814.402V47.245C814.402 46.535 814.247 46.01 813.937 45.67C813.627 45.32 813.172 45.145 812.572 45.145C812.332 45.145 812.097 45.175 811.867 45.235C811.637 45.295 811.432 45.385 811.252 45.505C811.072 45.625 810.927 45.78 810.817 45.97C810.707 46.16 810.652 46.38 810.652 46.63V52H809.452ZM821.612 52.18C821.052 52.18 820.547 52.085 820.097 51.895C819.657 51.705 819.277 51.435 818.957 51.085C818.647 50.725 818.407 50.3 818.237 49.81C818.067 49.31 817.982 48.755 817.982 48.145C817.982 47.525 818.067 46.965 818.237 46.465C818.417 45.965 818.662 45.54 818.972 45.19C819.282 44.83 819.652 44.555 820.082 44.365C820.522 44.175 821.007 44.08 821.537 44.08C822.057 44.08 822.527 44.175 822.947 44.365C823.377 44.555 823.742 44.82 824.042 45.16C824.342 45.49 824.572 45.885 824.732 46.345C824.892 46.805 824.972 47.31 824.972 47.86V48.43H819.242V48.79C819.242 49.13 819.297 49.445 819.407 49.735C819.517 50.025 819.672 50.275 819.872 50.485C820.082 50.695 820.332 50.86 820.622 50.98C820.922 51.09 821.252 51.145 821.612 51.145C822.132 51.145 822.582 51.025 822.962 50.785C823.342 50.545 823.632 50.215 823.832 49.795L824.717 50.395C824.487 50.915 824.102 51.345 823.562 51.685C823.032 52.015 822.382 52.18 821.612 52.18ZM821.537 45.07C821.207 45.07 820.902 45.13 820.622 45.25C820.342 45.37 820.097 45.535 819.887 45.745C819.687 45.955 819.527 46.205 819.407 46.495C819.297 46.775 819.242 47.085 819.242 47.425V47.53H823.682V47.365C823.682 47.025 823.627 46.715 823.517 46.435C823.417 46.155 823.272 45.915 823.082 45.715C822.902 45.505 822.677 45.345 822.407 45.235C822.147 45.125 821.857 45.07 821.537 45.07ZM827.171 50.98H829.871V41.92H827.171V40.9H831.071V50.98H833.771V52H827.171V50.98ZM845.234 52V50.905H848.234V42.46H848.129L845.489 44.92L844.754 44.125L847.529 41.53H849.494V50.905H852.254V52H845.234ZM853.853 47.995V46.885H861.053V47.995H853.853ZM866.462 52.18C865.912 52.18 865.417 52.09 864.977 51.91C864.537 51.72 864.162 51.455 863.852 51.115C863.552 50.765 863.317 50.34 863.147 49.84C862.987 49.34 862.907 48.78 862.907 48.16C862.907 47.38 863.022 46.65 863.252 45.97C863.492 45.28 863.792 44.655 864.152 44.095C864.522 43.525 864.932 43.025 865.382 42.595C865.832 42.155 866.272 41.8 866.702 41.53H868.322C867.752 41.94 867.242 42.34 866.792 42.73C866.352 43.12 865.962 43.53 865.622 43.96C865.282 44.38 864.997 44.835 864.767 45.325C864.537 45.805 864.347 46.35 864.197 46.96L864.272 46.99C864.522 46.56 864.852 46.205 865.262 45.925C865.672 45.635 866.202 45.49 866.852 45.49C867.312 45.49 867.732 45.565 868.112 45.715C868.492 45.865 868.822 46.08 869.102 46.36C869.382 46.64 869.597 46.98 869.747 47.38C869.907 47.78 869.987 48.225 869.987 48.715C869.987 49.225 869.902 49.695 869.732 50.125C869.562 50.545 869.322 50.91 869.012 51.22C868.712 51.52 868.342 51.755 867.902 51.925C867.472 52.095 866.992 52.18 866.462 52.18ZM866.447 51.115C867.167 51.115 867.722 50.92 868.112 50.53C868.512 50.14 868.712 49.59 868.712 48.88V48.76C868.712 48.05 868.512 47.5 868.112 47.11C867.722 46.72 867.167 46.525 866.447 46.525C865.727 46.525 865.167 46.72 864.767 47.11C864.377 47.5 864.182 48.05 864.182 48.76V48.88C864.182 49.59 864.377 50.14 864.767 50.53C865.167 50.92 865.727 51.115 866.447 51.115ZM873.266 48.07V46.81H877.616V48.07H873.266ZM884.436 52.18C883.796 52.18 883.246 52.06 882.786 51.82C882.326 51.57 881.946 51.215 881.646 50.755C881.346 50.295 881.126 49.73 880.986 49.06C880.846 48.39 880.776 47.625 880.776 46.765C880.776 45.915 880.846 45.155 880.986 44.485C881.126 43.805 881.346 43.235 881.646 42.775C881.946 42.315 882.326 41.965 882.786 41.725C883.246 41.475 883.796 41.35 884.436 41.35C885.076 41.35 885.626 41.475 886.086 41.725C886.546 41.965 886.926 42.315 887.226 42.775C887.526 43.235 887.746 43.805 887.886 44.485C888.026 45.155 888.096 45.915 888.096 46.765C888.096 47.625 888.026 48.39 887.886 49.06C887.746 49.73 887.526 50.295 887.226 50.755C886.926 51.215 886.546 51.57 886.086 51.82C885.626 52.06 885.076 52.18 884.436 52.18ZM884.436 51.085C884.856 51.085 885.216 51.005 885.516 50.845C885.816 50.675 886.056 50.44 886.236 50.14C886.426 49.84 886.566 49.48 886.656 49.06C886.746 48.63 886.791 48.15 886.791 47.62V45.91C886.791 45.39 886.746 44.915 886.656 44.485C886.566 44.055 886.426 43.69 886.236 43.39C886.056 43.09 885.816 42.86 885.516 42.7C885.216 42.53 884.856 42.445 884.436 42.445C884.016 42.445 883.656 42.53 883.356 42.7C883.056 42.86 882.811 43.09 882.621 43.39C882.441 43.69 882.306 44.055 882.216 44.485C882.126 44.915 882.081 45.39 882.081 45.91V47.62C882.081 48.15 882.126 48.63 882.216 49.06C882.306 49.48 882.441 49.84 882.621 50.14C882.811 50.44 883.056 50.675 883.356 50.845C883.656 51.005 884.016 51.085 884.436 51.085ZM884.436 47.65C884.086 47.65 883.841 47.58 883.701 47.44C883.571 47.3 883.506 47.13 883.506 46.93V46.6C883.506 46.4 883.571 46.23 883.701 46.09C883.841 45.95 884.086 45.88 884.436 45.88C884.786 45.88 885.026 45.95 885.156 46.09C885.296 46.23 885.366 46.4 885.366 46.6V46.93C885.366 47.13 885.296 47.3 885.156 47.44C885.026 47.58 884.786 47.65 884.436 47.65ZM893.43 52.18C892.82 52.18 892.285 52.105 891.825 51.955C891.365 51.795 890.98 51.58 890.67 51.31C890.37 51.04 890.14 50.72 889.98 50.35C889.83 49.98 889.755 49.58 889.755 49.15C889.755 48.43 889.95 47.86 890.34 47.44C890.73 47.02 891.245 46.725 891.885 46.555V46.435C891.325 46.245 890.88 45.94 890.55 45.52C890.23 45.09 890.07 44.575 890.07 43.975C890.07 43.175 890.365 42.54 890.955 42.07C891.545 41.59 892.37 41.35 893.43 41.35C894.49 41.35 895.315 41.59 895.905 42.07C896.495 42.54 896.79 43.175 896.79 43.975C896.79 44.575 896.625 45.09 896.295 45.52C895.975 45.94 895.535 46.245 894.975 46.435V46.555C895.615 46.725 896.13 47.02 896.52 47.44C896.91 47.86 897.105 48.43 897.105 49.15C897.105 49.58 897.025 49.98 896.865 50.35C896.715 50.72 896.485 51.04 896.175 51.31C895.865 51.58 895.48 51.795 895.02 51.955C894.57 52.105 894.04 52.18 893.43 52.18ZM893.43 51.115C894.17 51.115 894.75 50.95 895.17 50.62C895.59 50.29 895.8 49.825 895.8 49.225V48.895C895.8 48.295 895.59 47.83 895.17 47.5C894.76 47.17 894.18 47.005 893.43 47.005C892.68 47.005 892.095 47.17 891.675 47.5C891.265 47.83 891.06 48.295 891.06 48.895V49.225C891.06 49.825 891.27 50.29 891.69 50.62C892.11 50.95 892.69 51.115 893.43 51.115ZM893.43 45.985C894.11 45.985 894.625 45.84 894.975 45.55C895.335 45.26 895.515 44.845 895.515 44.305V44.095C895.515 43.555 895.33 43.14 894.96 42.85C894.6 42.56 894.09 42.415 893.43 42.415C892.77 42.415 892.255 42.56 891.885 42.85C891.525 43.14 891.345 43.555 891.345 44.095V44.305C891.345 44.845 891.52 45.26 891.87 45.55C892.23 45.84 892.75 45.985 893.43 45.985Z" fill="white"/>
</svg>
