<svg width="1311" height="801" viewBox="0 0 1311 801" fill="none" xmlns="http://www.w3.org/2000/svg">
<path d="M922.875 113C922.285 113 921.85 112.835 921.57 112.505C921.3 112.175 921.165 111.75 921.165 111.23V106.28H918.585V105.26H920.505C920.765 105.26 920.945 105.21 921.045 105.11C921.155 105 921.21 104.815 921.21 104.555V102.53H922.365V105.26H925.89V106.28H922.365V111.98H925.89V113H922.875ZM933.324 111.74H933.264C933.184 111.93 933.084 112.115 932.964 112.295C932.844 112.465 932.694 112.615 932.514 112.745C932.344 112.875 932.139 112.98 931.899 113.06C931.659 113.14 931.379 113.18 931.059 113.18C930.249 113.18 929.599 112.925 929.109 112.415C928.619 111.895 928.374 111.165 928.374 110.225V105.26H929.574V110.015C929.574 110.725 929.729 111.255 930.039 111.605C930.349 111.945 930.804 112.115 931.404 112.115C931.644 112.115 931.879 112.085 932.109 112.025C932.339 111.965 932.544 111.875 932.724 111.755C932.904 111.635 933.049 111.485 933.159 111.305C933.269 111.115 933.324 110.89 933.324 110.63V105.26H934.524V113H933.324V111.74ZM937.458 113V105.26H938.658V106.52H938.718C938.798 106.33 938.898 106.15 939.018 105.98C939.138 105.8 939.283 105.645 939.453 105.515C939.633 105.385 939.843 105.28 940.083 105.2C940.323 105.12 940.603 105.08 940.923 105.08C941.733 105.08 942.383 105.34 942.873 105.86C943.363 106.37 943.608 107.095 943.608 108.035V113H942.408V108.245C942.408 107.535 942.253 107.01 941.943 106.67C941.633 106.32 941.178 106.145 940.578 106.145C940.338 106.145 940.103 106.175 939.873 106.235C939.643 106.295 939.438 106.385 939.258 106.505C939.078 106.625 938.933 106.78 938.823 106.97C938.713 107.16 938.658 107.38 938.658 107.63V113H937.458ZM946.452 113V105.26H947.652V106.52H947.712C947.792 106.33 947.892 106.15 948.012 105.98C948.132 105.8 948.277 105.645 948.447 105.515C948.627 105.385 948.837 105.28 949.077 105.2C949.317 105.12 949.597 105.08 949.917 105.08C950.727 105.08 951.377 105.34 951.867 105.86C952.357 106.37 952.602 107.095 952.602 108.035V113H951.402V108.245C951.402 107.535 951.247 107.01 950.937 106.67C950.627 106.32 950.172 106.145 949.572 106.145C949.332 106.145 949.097 106.175 948.867 106.235C948.637 106.295 948.432 106.385 948.252 106.505C948.072 106.625 947.927 106.78 947.817 106.97C947.707 107.16 947.652 107.38 947.652 107.63V113H946.452ZM958.612 113.18C958.052 113.18 957.547 113.085 957.097 112.895C956.657 112.705 956.277 112.435 955.957 112.085C955.647 111.725 955.407 111.3 955.237 110.81C955.067 110.31 954.982 109.755 954.982 109.145C954.982 108.525 955.067 107.965 955.237 107.465C955.417 106.965 955.662 106.54 955.972 106.19C956.282 105.83 956.652 105.555 957.082 105.365C957.522 105.175 958.007 105.08 958.537 105.08C959.057 105.08 959.527 105.175 959.947 105.365C960.377 105.555 960.742 105.82 961.042 106.16C961.342 106.49 961.572 106.885 961.732 107.345C961.892 107.805 961.972 108.31 961.972 108.86V109.43H956.242V109.79C956.242 110.13 956.297 110.445 956.407 110.735C956.517 111.025 956.672 111.275 956.872 111.485C957.082 111.695 957.332 111.86 957.622 111.98C957.922 112.09 958.252 112.145 958.612 112.145C959.132 112.145 959.582 112.025 959.962 111.785C960.342 111.545 960.632 111.215 960.832 110.795L961.717 111.395C961.487 111.915 961.102 112.345 960.562 112.685C960.032 113.015 959.382 113.18 958.612 113.18ZM958.537 106.07C958.207 106.07 957.902 106.13 957.622 106.25C957.342 106.37 957.097 106.535 956.887 106.745C956.687 106.955 956.527 107.205 956.407 107.495C956.297 107.775 956.242 108.085 956.242 108.425V108.53H960.682V108.365C960.682 108.025 960.627 107.715 960.517 107.435C960.417 107.155 960.272 106.915 960.082 106.715C959.902 106.505 959.677 106.345 959.407 106.235C959.147 106.125 958.857 106.07 958.537 106.07ZM964.171 111.98H966.871V102.92H964.171V101.9H968.071V111.98H970.771V113H964.171V111.98ZM982.234 113V111.905H985.234V103.46H985.129L982.489 105.92L981.754 105.125L984.529 102.53H986.494V111.905H989.254V113H982.234ZM990.853 108.995V107.885H998.053V108.995H990.853ZM1006.99 106.37C1006.99 107.15 1006.87 107.885 1006.63 108.575C1006.4 109.255 1006.1 109.88 1005.73 110.45C1005.36 111.01 1004.95 111.51 1004.5 111.95C1004.06 112.38 1003.62 112.73 1003.19 113H1001.57C1002.14 112.59 1002.65 112.19 1003.09 111.8C1003.54 111.41 1003.93 111.005 1004.27 110.585C1004.61 110.155 1004.9 109.7 1005.13 109.22C1005.36 108.73 1005.55 108.18 1005.7 107.57L1005.62 107.54C1005.36 107.97 1005.03 108.33 1004.62 108.62C1004.22 108.9 1003.69 109.04 1003.04 109.04C1002.58 109.04 1002.16 108.965 1001.77 108.815C1001.39 108.665 1001.06 108.45 1000.78 108.17C1000.51 107.89 1000.29 107.555 1000.13 107.165C999.982 106.765 999.907 106.315 999.907 105.815C999.907 105.305 999.987 104.84 1000.15 104.42C1000.32 103.99 1000.56 103.625 1000.87 103.325C1001.18 103.015 1001.55 102.775 1001.98 102.605C1002.42 102.435 1002.9 102.35 1003.43 102.35C1003.98 102.35 1004.48 102.445 1004.92 102.635C1005.36 102.815 1005.73 103.08 1006.03 103.43C1006.34 103.77 1006.57 104.19 1006.73 104.69C1006.9 105.19 1006.99 105.75 1006.99 106.37ZM1003.45 108.005C1004.17 108.005 1004.72 107.81 1005.11 107.42C1005.51 107.03 1005.71 106.48 1005.71 105.77V105.65C1005.71 104.94 1005.51 104.39 1005.11 104C1004.72 103.61 1004.17 103.415 1003.45 103.415C1002.73 103.415 1002.17 103.61 1001.77 104C1001.38 104.39 1001.18 104.94 1001.18 105.65V105.77C1001.18 106.48 1001.38 107.03 1001.77 107.42C1002.17 107.81 1002.73 108.005 1003.45 108.005ZM1010.27 109.07V107.81H1014.62V109.07H1010.27ZM1021.44 113.18C1020.8 113.18 1020.25 113.06 1019.79 112.82C1019.33 112.57 1018.95 112.215 1018.65 111.755C1018.35 111.295 1018.13 110.73 1017.99 110.06C1017.85 109.39 1017.78 108.625 1017.78 107.765C1017.78 106.915 1017.85 106.155 1017.99 105.485C1018.13 104.805 1018.35 104.235 1018.65 103.775C1018.95 103.315 1019.33 102.965 1019.79 102.725C1020.25 102.475 1020.8 102.35 1021.44 102.35C1022.08 102.35 1022.63 102.475 1023.09 102.725C1023.55 102.965 1023.93 103.315 1024.23 103.775C1024.53 104.235 1024.75 104.805 1024.89 105.485C1025.03 106.155 1025.1 106.915 1025.1 107.765C1025.1 108.625 1025.03 109.39 1024.89 110.06C1024.75 110.73 1024.53 111.295 1024.23 111.755C1023.93 112.215 1023.55 112.57 1023.09 112.82C1022.63 113.06 1022.08 113.18 1021.44 113.18ZM1021.44 112.085C1021.86 112.085 1022.22 112.005 1022.52 111.845C1022.82 111.675 1023.06 111.44 1023.24 111.14C1023.43 110.84 1023.57 110.48 1023.66 110.06C1023.75 109.63 1023.79 109.15 1023.79 108.62V106.91C1023.79 106.39 1023.75 105.915 1023.66 105.485C1023.57 105.055 1023.43 104.69 1023.24 104.39C1023.06 104.09 1022.82 103.86 1022.52 103.7C1022.22 103.53 1021.86 103.445 1021.44 103.445C1021.02 103.445 1020.66 103.53 1020.36 103.7C1020.06 103.86 1019.81 104.09 1019.62 104.39C1019.44 104.69 1019.31 105.055 1019.22 105.485C1019.13 105.915 1019.08 106.39 1019.08 106.91V108.62C1019.08 109.15 1019.13 109.63 1019.22 110.06C1019.31 110.48 1019.44 110.84 1019.62 111.14C1019.81 111.44 1020.06 111.675 1020.36 111.845C1020.66 112.005 1021.02 112.085 1021.44 112.085ZM1021.44 108.65C1021.09 108.65 1020.84 108.58 1020.7 108.44C1020.57 108.3 1020.51 108.13 1020.51 107.93V107.6C1020.51 107.4 1020.57 107.23 1020.7 107.09C1020.84 106.95 1021.09 106.88 1021.44 106.88C1021.79 106.88 1022.03 106.95 1022.16 107.09C1022.3 107.23 1022.37 107.4 1022.37 107.6V107.93C1022.37 108.13 1022.3 108.3 1022.16 108.44C1022.03 108.58 1021.79 108.65 1021.44 108.65ZM1028.52 113L1032.62 103.61H1028.03V105.56H1026.9V102.53H1033.89V103.64L1029.87 113H1028.52Z" fill="white"/>
</svg>
