<svg width="1311" height="801" viewBox="0 0 1311 801" fill="none" xmlns="http://www.w3.org/2000/svg">
<path d="M1139.88 251C1139.29 251 1138.85 250.835 1138.57 250.505C1138.3 250.175 1138.17 249.75 1138.17 249.23V244.28H1135.59V243.26H1137.51C1137.77 243.26 1137.95 243.21 1138.05 243.11C1138.16 243 1138.21 242.815 1138.21 242.555V240.53H1139.37V243.26H1142.89V244.28H1139.37V249.98H1142.89V251H1139.88ZM1150.32 249.74H1150.26C1150.18 249.93 1150.08 250.115 1149.96 250.295C1149.84 250.465 1149.69 250.615 1149.51 250.745C1149.34 250.875 1149.14 250.98 1148.9 251.06C1148.66 251.14 1148.38 251.18 1148.06 251.18C1147.25 251.18 1146.6 250.925 1146.11 250.415C1145.62 249.895 1145.37 249.165 1145.37 248.225V243.26H1146.57V248.015C1146.57 248.725 1146.73 249.255 1147.04 249.605C1147.35 249.945 1147.8 250.115 1148.4 250.115C1148.64 250.115 1148.88 250.085 1149.11 250.025C1149.34 249.965 1149.54 249.875 1149.72 249.755C1149.9 249.635 1150.05 249.485 1150.16 249.305C1150.27 249.115 1150.32 248.89 1150.32 248.63V243.26H1151.52V251H1150.32V249.74ZM1154.46 251V243.26H1155.66V244.52H1155.72C1155.8 244.33 1155.9 244.15 1156.02 243.98C1156.14 243.8 1156.28 243.645 1156.45 243.515C1156.63 243.385 1156.84 243.28 1157.08 243.2C1157.32 243.12 1157.6 243.08 1157.92 243.08C1158.73 243.08 1159.38 243.34 1159.87 243.86C1160.36 244.37 1160.61 245.095 1160.61 246.035V251H1159.41V246.245C1159.41 245.535 1159.25 245.01 1158.94 244.67C1158.63 244.32 1158.18 244.145 1157.58 244.145C1157.34 244.145 1157.1 244.175 1156.87 244.235C1156.64 244.295 1156.44 244.385 1156.26 244.505C1156.08 244.625 1155.93 244.78 1155.82 244.97C1155.71 245.16 1155.66 245.38 1155.66 245.63V251H1154.46ZM1163.45 251V243.26H1164.65V244.52H1164.71C1164.79 244.33 1164.89 244.15 1165.01 243.98C1165.13 243.8 1165.28 243.645 1165.45 243.515C1165.63 243.385 1165.84 243.28 1166.08 243.2C1166.32 243.12 1166.6 243.08 1166.92 243.08C1167.73 243.08 1168.38 243.34 1168.87 243.86C1169.36 244.37 1169.6 245.095 1169.6 246.035V251H1168.4V246.245C1168.4 245.535 1168.25 245.01 1167.94 244.67C1167.63 244.32 1167.17 244.145 1166.57 244.145C1166.33 244.145 1166.1 244.175 1165.87 244.235C1165.64 244.295 1165.43 244.385 1165.25 244.505C1165.07 244.625 1164.93 244.78 1164.82 244.97C1164.71 245.16 1164.65 245.38 1164.65 245.63V251H1163.45ZM1175.61 251.18C1175.05 251.18 1174.55 251.085 1174.1 250.895C1173.66 250.705 1173.28 250.435 1172.96 250.085C1172.65 249.725 1172.41 249.3 1172.24 248.81C1172.07 248.31 1171.98 247.755 1171.98 247.145C1171.98 246.525 1172.07 245.965 1172.24 245.465C1172.42 244.965 1172.66 244.54 1172.97 244.19C1173.28 243.83 1173.65 243.555 1174.08 243.365C1174.52 243.175 1175.01 243.08 1175.54 243.08C1176.06 243.08 1176.53 243.175 1176.95 243.365C1177.38 243.555 1177.74 243.82 1178.04 244.16C1178.34 244.49 1178.57 244.885 1178.73 245.345C1178.89 245.805 1178.97 246.31 1178.97 246.86V247.43H1173.24V247.79C1173.24 248.13 1173.3 248.445 1173.41 248.735C1173.52 249.025 1173.67 249.275 1173.87 249.485C1174.08 249.695 1174.33 249.86 1174.62 249.98C1174.92 250.09 1175.25 250.145 1175.61 250.145C1176.13 250.145 1176.58 250.025 1176.96 249.785C1177.34 249.545 1177.63 249.215 1177.83 248.795L1178.72 249.395C1178.49 249.915 1178.1 250.345 1177.56 250.685C1177.03 251.015 1176.38 251.18 1175.61 251.18ZM1175.54 244.07C1175.21 244.07 1174.9 244.13 1174.62 244.25C1174.34 244.37 1174.1 244.535 1173.89 244.745C1173.69 244.955 1173.53 245.205 1173.41 245.495C1173.3 245.775 1173.24 246.085 1173.24 246.425V246.53H1177.68V246.365C1177.68 246.025 1177.63 245.715 1177.52 245.435C1177.42 245.155 1177.27 244.915 1177.08 244.715C1176.9 244.505 1176.68 244.345 1176.41 244.235C1176.15 244.125 1175.86 244.07 1175.54 244.07ZM1181.17 249.98H1183.87V240.92H1181.17V239.9H1185.07V249.98H1187.77V251H1181.17V249.98ZM1206.01 251H1199.02V249.71L1202.52 246.56C1203.03 246.1 1203.45 245.63 1203.78 245.15C1204.11 244.66 1204.27 244.145 1204.27 243.605V243.425C1204.27 242.795 1204.11 242.31 1203.78 241.97C1203.45 241.62 1202.96 241.445 1202.31 241.445C1201.67 241.445 1201.17 241.61 1200.82 241.94C1200.48 242.26 1200.23 242.69 1200.06 243.23L1198.93 242.81C1199.03 242.5 1199.17 242.2 1199.34 241.91C1199.52 241.61 1199.74 241.345 1200.01 241.115C1200.28 240.885 1200.61 240.7 1200.99 240.56C1201.38 240.42 1201.83 240.35 1202.34 240.35C1202.86 240.35 1203.32 240.425 1203.72 240.575C1204.13 240.725 1204.47 240.935 1204.74 241.205C1205.02 241.475 1205.23 241.795 1205.37 242.165C1205.52 242.535 1205.59 242.94 1205.59 243.38C1205.59 243.78 1205.53 244.155 1205.41 244.505C1205.3 244.855 1205.14 245.19 1204.93 245.51C1204.73 245.83 1204.49 246.145 1204.2 246.455C1203.92 246.755 1203.6 247.055 1203.25 247.355L1200.33 249.905H1206.01V251ZM1209.28 247.07V245.81H1213.63V247.07H1209.28ZM1220 244.97C1220.73 244.97 1221.27 244.81 1221.63 244.49C1222 244.16 1222.19 243.74 1222.19 243.23V243.125C1222.19 242.565 1222.01 242.145 1221.65 241.865C1221.3 241.585 1220.84 241.445 1220.27 241.445C1219.71 241.445 1219.25 241.57 1218.9 241.82C1218.56 242.06 1218.28 242.38 1218.06 242.78L1217.12 242.06C1217.25 241.85 1217.41 241.645 1217.6 241.445C1217.79 241.235 1218.01 241.05 1218.26 240.89C1218.52 240.73 1218.81 240.6 1219.14 240.5C1219.48 240.4 1219.87 240.35 1220.3 240.35C1220.75 240.35 1221.17 240.41 1221.56 240.53C1221.95 240.64 1222.29 240.81 1222.58 241.04C1222.87 241.26 1223.09 241.535 1223.25 241.865C1223.42 242.195 1223.51 242.57 1223.51 242.99C1223.51 243.33 1223.45 243.635 1223.34 243.905C1223.24 244.175 1223.1 244.41 1222.91 244.61C1222.73 244.81 1222.51 244.98 1222.26 245.12C1222.01 245.26 1221.75 245.365 1221.47 245.435V245.495C1221.76 245.555 1222.04 245.655 1222.31 245.795C1222.58 245.925 1222.82 246.1 1223.03 246.32C1223.24 246.53 1223.4 246.79 1223.52 247.1C1223.65 247.4 1223.72 247.745 1223.72 248.135C1223.72 248.585 1223.63 249 1223.45 249.38C1223.28 249.75 1223.03 250.07 1222.71 250.34C1222.4 250.6 1222.02 250.805 1221.57 250.955C1221.13 251.105 1220.64 251.18 1220.1 251.18C1219.64 251.18 1219.23 251.13 1218.87 251.03C1218.52 250.93 1218.21 250.795 1217.93 250.625C1217.66 250.455 1217.42 250.265 1217.21 250.055C1217.01 249.845 1216.83 249.625 1216.67 249.395L1217.61 248.675C1217.75 248.885 1217.9 249.075 1218.05 249.245C1218.2 249.415 1218.37 249.565 1218.56 249.695C1218.76 249.815 1218.98 249.91 1219.23 249.98C1219.48 250.05 1219.77 250.085 1220.1 250.085C1220.84 250.085 1221.41 249.915 1221.8 249.575C1222.2 249.235 1222.4 248.75 1222.4 248.12V248C1222.4 247.38 1222.2 246.9 1221.81 246.56C1221.43 246.22 1220.86 246.05 1220.09 246.05H1218.84V244.97H1220ZM1227.27 247.07V245.81H1231.62V247.07H1227.27ZM1238.44 251.18C1237.8 251.18 1237.25 251.06 1236.79 250.82C1236.33 250.57 1235.95 250.215 1235.65 249.755C1235.35 249.295 1235.13 248.73 1234.99 248.06C1234.85 247.39 1234.78 246.625 1234.78 245.765C1234.78 244.915 1234.85 244.155 1234.99 243.485C1235.13 242.805 1235.35 242.235 1235.65 241.775C1235.95 241.315 1236.33 240.965 1236.79 240.725C1237.25 240.475 1237.8 240.35 1238.44 240.35C1239.08 240.35 1239.63 240.475 1240.09 240.725C1240.55 240.965 1240.93 241.315 1241.23 241.775C1241.53 242.235 1241.75 242.805 1241.89 243.485C1242.03 244.155 1242.1 244.915 1242.1 245.765C1242.1 246.625 1242.03 247.39 1241.89 248.06C1241.75 248.73 1241.53 249.295 1241.23 249.755C1240.93 250.215 1240.55 250.57 1240.09 250.82C1239.63 251.06 1239.08 251.18 1238.44 251.18ZM1238.44 250.085C1238.86 250.085 1239.22 250.005 1239.52 249.845C1239.82 249.675 1240.06 249.44 1240.24 249.14C1240.43 248.84 1240.57 248.48 1240.66 248.06C1240.75 247.63 1240.79 247.15 1240.79 246.62V244.91C1240.79 244.39 1240.75 243.915 1240.66 243.485C1240.57 243.055 1240.43 242.69 1240.24 242.39C1240.06 242.09 1239.82 241.86 1239.52 241.7C1239.22 241.53 1238.86 241.445 1238.44 241.445C1238.02 241.445 1237.66 241.53 1237.36 241.7C1237.06 241.86 1236.81 242.09 1236.62 242.39C1236.44 242.69 1236.31 243.055 1236.22 243.485C1236.13 243.915 1236.08 244.39 1236.08 244.91V246.62C1236.08 247.15 1236.13 247.63 1236.22 248.06C1236.31 248.48 1236.44 248.84 1236.62 249.14C1236.81 249.44 1237.06 249.675 1237.36 249.845C1237.66 250.005 1238.02 250.085 1238.44 250.085ZM1238.44 246.65C1238.09 246.65 1237.84 246.58 1237.7 246.44C1237.57 246.3 1237.51 246.13 1237.51 245.93V245.6C1237.51 245.4 1237.57 245.23 1237.7 245.09C1237.84 244.95 1238.09 244.88 1238.44 244.88C1238.79 244.88 1239.03 244.95 1239.16 245.09C1239.3 245.23 1239.37 245.4 1239.37 245.6V245.93C1239.37 246.13 1239.3 246.3 1239.16 246.44C1239.03 246.58 1238.79 246.65 1238.44 246.65ZM1244.2 251V249.905H1247.2V241.46H1247.1L1244.46 243.92L1243.72 243.125L1246.5 240.53H1248.46V249.905H1251.22V251H1244.2Z" fill="white"/>
</svg>
