<svg width="1311" height="801" viewBox="0 0 1311 801" fill="none" xmlns="http://www.w3.org/2000/svg">
<path d="M1195.88 326C1195.29 326 1194.85 325.835 1194.57 325.505C1194.3 325.175 1194.17 324.75 1194.17 324.23V319.28H1191.59V318.26H1193.51C1193.77 318.26 1193.95 318.21 1194.05 318.11C1194.16 318 1194.21 317.815 1194.21 317.555V315.53H1195.37V318.26H1198.89V319.28H1195.37V324.98H1198.89V326H1195.88ZM1206.32 324.74H1206.26C1206.18 324.93 1206.08 325.115 1205.96 325.295C1205.84 325.465 1205.69 325.615 1205.51 325.745C1205.34 325.875 1205.14 325.98 1204.9 326.06C1204.66 326.14 1204.38 326.18 1204.06 326.18C1203.25 326.18 1202.6 325.925 1202.11 325.415C1201.62 324.895 1201.37 324.165 1201.37 323.225V318.26H1202.57V323.015C1202.57 323.725 1202.73 324.255 1203.04 324.605C1203.35 324.945 1203.8 325.115 1204.4 325.115C1204.64 325.115 1204.88 325.085 1205.11 325.025C1205.34 324.965 1205.54 324.875 1205.72 324.755C1205.9 324.635 1206.05 324.485 1206.16 324.305C1206.27 324.115 1206.32 323.89 1206.32 323.63V318.26H1207.52V326H1206.32V324.74ZM1210.46 326V318.26H1211.66V319.52H1211.72C1211.8 319.33 1211.9 319.15 1212.02 318.98C1212.14 318.8 1212.28 318.645 1212.45 318.515C1212.63 318.385 1212.84 318.28 1213.08 318.2C1213.32 318.12 1213.6 318.08 1213.92 318.08C1214.73 318.08 1215.38 318.34 1215.87 318.86C1216.36 319.37 1216.61 320.095 1216.61 321.035V326H1215.41V321.245C1215.41 320.535 1215.25 320.01 1214.94 319.67C1214.63 319.32 1214.18 319.145 1213.58 319.145C1213.34 319.145 1213.1 319.175 1212.87 319.235C1212.64 319.295 1212.44 319.385 1212.26 319.505C1212.08 319.625 1211.93 319.78 1211.82 319.97C1211.71 320.16 1211.66 320.38 1211.66 320.63V326H1210.46ZM1219.45 326V318.26H1220.65V319.52H1220.71C1220.79 319.33 1220.89 319.15 1221.01 318.98C1221.13 318.8 1221.28 318.645 1221.45 318.515C1221.63 318.385 1221.84 318.28 1222.08 318.2C1222.32 318.12 1222.6 318.08 1222.92 318.08C1223.73 318.08 1224.38 318.34 1224.87 318.86C1225.36 319.37 1225.6 320.095 1225.6 321.035V326H1224.4V321.245C1224.4 320.535 1224.25 320.01 1223.94 319.67C1223.63 319.32 1223.17 319.145 1222.57 319.145C1222.33 319.145 1222.1 319.175 1221.87 319.235C1221.64 319.295 1221.43 319.385 1221.25 319.505C1221.07 319.625 1220.93 319.78 1220.82 319.97C1220.71 320.16 1220.65 320.38 1220.65 320.63V326H1219.45ZM1231.61 326.18C1231.05 326.18 1230.55 326.085 1230.1 325.895C1229.66 325.705 1229.28 325.435 1228.96 325.085C1228.65 324.725 1228.41 324.3 1228.24 323.81C1228.07 323.31 1227.98 322.755 1227.98 322.145C1227.98 321.525 1228.07 320.965 1228.24 320.465C1228.42 319.965 1228.66 319.54 1228.97 319.19C1229.28 318.83 1229.65 318.555 1230.08 318.365C1230.52 318.175 1231.01 318.08 1231.54 318.08C1232.06 318.08 1232.53 318.175 1232.95 318.365C1233.38 318.555 1233.74 318.82 1234.04 319.16C1234.34 319.49 1234.57 319.885 1234.73 320.345C1234.89 320.805 1234.97 321.31 1234.97 321.86V322.43H1229.24V322.79C1229.24 323.13 1229.3 323.445 1229.41 323.735C1229.52 324.025 1229.67 324.275 1229.87 324.485C1230.08 324.695 1230.33 324.86 1230.62 324.98C1230.92 325.09 1231.25 325.145 1231.61 325.145C1232.13 325.145 1232.58 325.025 1232.96 324.785C1233.34 324.545 1233.63 324.215 1233.83 323.795L1234.72 324.395C1234.49 324.915 1234.1 325.345 1233.56 325.685C1233.03 326.015 1232.38 326.18 1231.61 326.18ZM1231.54 319.07C1231.21 319.07 1230.9 319.13 1230.62 319.25C1230.34 319.37 1230.1 319.535 1229.89 319.745C1229.69 319.955 1229.53 320.205 1229.41 320.495C1229.3 320.775 1229.24 321.085 1229.24 321.425V321.53H1233.68V321.365C1233.68 321.025 1233.63 320.715 1233.52 320.435C1233.42 320.155 1233.27 319.915 1233.08 319.715C1232.9 319.505 1232.68 319.345 1232.41 319.235C1232.15 319.125 1231.86 319.07 1231.54 319.07ZM1237.17 324.98H1239.87V315.92H1237.17V314.9H1241.07V324.98H1243.77V326H1237.17V324.98ZM1262.01 326H1255.02V324.71L1258.52 321.56C1259.03 321.1 1259.45 320.63 1259.78 320.15C1260.11 319.66 1260.27 319.145 1260.27 318.605V318.425C1260.27 317.795 1260.11 317.31 1259.78 316.97C1259.45 316.62 1258.96 316.445 1258.31 316.445C1257.67 316.445 1257.17 316.61 1256.82 316.94C1256.48 317.26 1256.23 317.69 1256.06 318.23L1254.93 317.81C1255.03 317.5 1255.17 317.2 1255.34 316.91C1255.52 316.61 1255.74 316.345 1256.01 316.115C1256.28 315.885 1256.61 315.7 1256.99 315.56C1257.38 315.42 1257.83 315.35 1258.34 315.35C1258.86 315.35 1259.32 315.425 1259.72 315.575C1260.13 315.725 1260.47 315.935 1260.74 316.205C1261.02 316.475 1261.23 316.795 1261.37 317.165C1261.52 317.535 1261.59 317.94 1261.59 318.38C1261.59 318.78 1261.53 319.155 1261.41 319.505C1261.3 319.855 1261.14 320.19 1260.93 320.51C1260.73 320.83 1260.49 321.145 1260.2 321.455C1259.92 321.755 1259.6 322.055 1259.25 322.355L1256.33 324.905H1262.01V326ZM1263.85 321.995V320.885H1271.05V321.995H1263.85ZM1279.46 316.625H1274.78L1274.48 320.63H1274.59C1274.85 320.28 1275.14 320.005 1275.46 319.805C1275.78 319.595 1276.22 319.49 1276.78 319.49C1277.24 319.49 1277.66 319.565 1278.04 319.715C1278.43 319.855 1278.76 320.065 1279.04 320.345C1279.32 320.625 1279.54 320.965 1279.7 321.365C1279.86 321.755 1279.94 322.205 1279.94 322.715C1279.94 323.225 1279.86 323.695 1279.7 324.125C1279.54 324.545 1279.31 324.91 1279 325.22C1278.69 325.52 1278.31 325.755 1277.87 325.925C1277.43 326.095 1276.93 326.18 1276.37 326.18C1275.93 326.18 1275.54 326.13 1275.19 326.03C1274.85 325.93 1274.54 325.795 1274.27 325.625C1274.01 325.455 1273.78 325.265 1273.58 325.055C1273.38 324.845 1273.2 324.625 1273.04 324.395L1273.99 323.675C1274.13 323.885 1274.27 324.075 1274.41 324.245C1274.56 324.415 1274.73 324.565 1274.92 324.695C1275.11 324.815 1275.32 324.91 1275.56 324.98C1275.8 325.05 1276.08 325.085 1276.4 325.085C1277.12 325.085 1277.67 324.89 1278.05 324.5C1278.44 324.11 1278.64 323.57 1278.64 322.88V322.76C1278.64 322.07 1278.44 321.53 1278.05 321.14C1277.66 320.75 1277.1 320.555 1276.37 320.555C1275.87 320.555 1275.48 320.64 1275.2 320.81C1274.93 320.98 1274.68 321.19 1274.45 321.44L1273.39 321.29L1273.76 315.53H1279.46V316.625ZM1283.27 322.07V320.81H1287.62V322.07H1283.27ZM1294.44 326.18C1293.8 326.18 1293.25 326.06 1292.79 325.82C1292.33 325.57 1291.95 325.215 1291.65 324.755C1291.35 324.295 1291.13 323.73 1290.99 323.06C1290.85 322.39 1290.78 321.625 1290.78 320.765C1290.78 319.915 1290.85 319.155 1290.99 318.485C1291.13 317.805 1291.35 317.235 1291.65 316.775C1291.95 316.315 1292.33 315.965 1292.79 315.725C1293.25 315.475 1293.8 315.35 1294.44 315.35C1295.08 315.35 1295.63 315.475 1296.09 315.725C1296.55 315.965 1296.93 316.315 1297.23 316.775C1297.53 317.235 1297.75 317.805 1297.89 318.485C1298.03 319.155 1298.1 319.915 1298.1 320.765C1298.1 321.625 1298.03 322.39 1297.89 323.06C1297.75 323.73 1297.53 324.295 1297.23 324.755C1296.93 325.215 1296.55 325.57 1296.09 325.82C1295.63 326.06 1295.08 326.18 1294.44 326.18ZM1294.44 325.085C1294.86 325.085 1295.22 325.005 1295.52 324.845C1295.82 324.675 1296.06 324.44 1296.24 324.14C1296.43 323.84 1296.57 323.48 1296.66 323.06C1296.75 322.63 1296.79 322.15 1296.79 321.62V319.91C1296.79 319.39 1296.75 318.915 1296.66 318.485C1296.57 318.055 1296.43 317.69 1296.24 317.39C1296.06 317.09 1295.82 316.86 1295.52 316.7C1295.22 316.53 1294.86 316.445 1294.44 316.445C1294.02 316.445 1293.66 316.53 1293.36 316.7C1293.06 316.86 1292.81 317.09 1292.62 317.39C1292.44 317.69 1292.31 318.055 1292.22 318.485C1292.13 318.915 1292.08 319.39 1292.08 319.91V321.62C1292.08 322.15 1292.13 322.63 1292.22 323.06C1292.31 323.48 1292.44 323.84 1292.62 324.14C1292.81 324.44 1293.06 324.675 1293.36 324.845C1293.66 325.005 1294.02 325.085 1294.44 325.085ZM1294.44 321.65C1294.09 321.65 1293.84 321.58 1293.7 321.44C1293.57 321.3 1293.51 321.13 1293.51 320.93V320.6C1293.51 320.4 1293.57 320.23 1293.7 320.09C1293.84 319.95 1294.09 319.88 1294.44 319.88C1294.79 319.88 1295.03 319.95 1295.16 320.09C1295.3 320.23 1295.37 320.4 1295.37 320.6V320.93C1295.37 321.13 1295.3 321.3 1295.16 321.44C1295.03 321.58 1294.79 321.65 1294.44 321.65ZM1303.44 326.18C1302.89 326.18 1302.4 326.09 1301.96 325.91C1301.52 325.72 1301.14 325.455 1300.83 325.115C1300.53 324.765 1300.3 324.34 1300.13 323.84C1299.97 323.34 1299.89 322.78 1299.89 322.16C1299.89 321.38 1300 320.65 1300.23 319.97C1300.47 319.28 1300.77 318.655 1301.13 318.095C1301.5 317.525 1301.91 317.025 1302.36 316.595C1302.81 316.155 1303.25 315.8 1303.68 315.53H1305.3C1304.73 315.94 1304.22 316.34 1303.77 316.73C1303.33 317.12 1302.94 317.53 1302.6 317.96C1302.26 318.38 1301.98 318.835 1301.75 319.325C1301.52 319.805 1301.33 320.35 1301.18 320.96L1301.25 320.99C1301.5 320.56 1301.83 320.205 1302.24 319.925C1302.65 319.635 1303.18 319.49 1303.83 319.49C1304.29 319.49 1304.71 319.565 1305.09 319.715C1305.47 319.865 1305.8 320.08 1306.08 320.36C1306.36 320.64 1306.58 320.98 1306.73 321.38C1306.89 321.78 1306.97 322.225 1306.97 322.715C1306.97 323.225 1306.88 323.695 1306.71 324.125C1306.54 324.545 1306.3 324.91 1305.99 325.22C1305.69 325.52 1305.32 325.755 1304.88 325.925C1304.45 326.095 1303.97 326.18 1303.44 326.18ZM1303.43 325.115C1304.15 325.115 1304.7 324.92 1305.09 324.53C1305.49 324.14 1305.69 323.59 1305.69 322.88V322.76C1305.69 322.05 1305.49 321.5 1305.09 321.11C1304.7 320.72 1304.15 320.525 1303.43 320.525C1302.71 320.525 1302.15 320.72 1301.75 321.11C1301.36 321.5 1301.16 322.05 1301.16 322.76V322.88C1301.16 323.59 1301.36 324.14 1301.75 324.53C1302.15 324.92 1302.71 325.115 1303.43 325.115Z" fill="white"/>
</svg>
