<svg width="1320" height="801" viewBox="0 0 1320 801" fill="none" xmlns="http://www.w3.org/2000/svg">
<path d="M1207.88 399C1207.29 399 1206.85 398.835 1206.57 398.505C1206.3 398.175 1206.17 397.75 1206.17 397.23V392.28H1203.59V391.26H1205.51C1205.77 391.26 1205.95 391.21 1206.05 391.11C1206.16 391 1206.21 390.815 1206.21 390.555V388.53H1207.37V391.26H1210.89V392.28H1207.37V397.98H1210.89V399H1207.88ZM1218.32 397.74H1218.26C1218.18 397.93 1218.08 398.115 1217.96 398.295C1217.84 398.465 1217.69 398.615 1217.51 398.745C1217.34 398.875 1217.14 398.98 1216.9 399.06C1216.66 399.14 1216.38 399.18 1216.06 399.18C1215.25 399.18 1214.6 398.925 1214.11 398.415C1213.62 397.895 1213.37 397.165 1213.37 396.225V391.26H1214.57V396.015C1214.57 396.725 1214.73 397.255 1215.04 397.605C1215.35 397.945 1215.8 398.115 1216.4 398.115C1216.64 398.115 1216.88 398.085 1217.11 398.025C1217.34 397.965 1217.54 397.875 1217.72 397.755C1217.9 397.635 1218.05 397.485 1218.16 397.305C1218.27 397.115 1218.32 396.89 1218.32 396.63V391.26H1219.52V399H1218.32V397.74ZM1222.46 399V391.26H1223.66V392.52H1223.72C1223.8 392.33 1223.9 392.15 1224.02 391.98C1224.14 391.8 1224.28 391.645 1224.45 391.515C1224.63 391.385 1224.84 391.28 1225.08 391.2C1225.32 391.12 1225.6 391.08 1225.92 391.08C1226.73 391.08 1227.38 391.34 1227.87 391.86C1228.36 392.37 1228.61 393.095 1228.61 394.035V399H1227.41V394.245C1227.41 393.535 1227.25 393.01 1226.94 392.67C1226.63 392.32 1226.18 392.145 1225.58 392.145C1225.34 392.145 1225.1 392.175 1224.87 392.235C1224.64 392.295 1224.44 392.385 1224.26 392.505C1224.08 392.625 1223.93 392.78 1223.82 392.97C1223.71 393.16 1223.66 393.38 1223.66 393.63V399H1222.46ZM1231.45 399V391.26H1232.65V392.52H1232.71C1232.79 392.33 1232.89 392.15 1233.01 391.98C1233.13 391.8 1233.28 391.645 1233.45 391.515C1233.63 391.385 1233.84 391.28 1234.08 391.2C1234.32 391.12 1234.6 391.08 1234.92 391.08C1235.73 391.08 1236.38 391.34 1236.87 391.86C1237.36 392.37 1237.6 393.095 1237.6 394.035V399H1236.4V394.245C1236.4 393.535 1236.25 393.01 1235.94 392.67C1235.63 392.32 1235.17 392.145 1234.57 392.145C1234.33 392.145 1234.1 392.175 1233.87 392.235C1233.64 392.295 1233.43 392.385 1233.25 392.505C1233.07 392.625 1232.93 392.78 1232.82 392.97C1232.71 393.16 1232.65 393.38 1232.65 393.63V399H1231.45ZM1243.61 399.18C1243.05 399.18 1242.55 399.085 1242.1 398.895C1241.66 398.705 1241.28 398.435 1240.96 398.085C1240.65 397.725 1240.41 397.3 1240.24 396.81C1240.07 396.31 1239.98 395.755 1239.98 395.145C1239.98 394.525 1240.07 393.965 1240.24 393.465C1240.42 392.965 1240.66 392.54 1240.97 392.19C1241.28 391.83 1241.65 391.555 1242.08 391.365C1242.52 391.175 1243.01 391.08 1243.54 391.08C1244.06 391.08 1244.53 391.175 1244.95 391.365C1245.38 391.555 1245.74 391.82 1246.04 392.16C1246.34 392.49 1246.57 392.885 1246.73 393.345C1246.89 393.805 1246.97 394.31 1246.97 394.86V395.43H1241.24V395.79C1241.24 396.13 1241.3 396.445 1241.41 396.735C1241.52 397.025 1241.67 397.275 1241.87 397.485C1242.08 397.695 1242.33 397.86 1242.62 397.98C1242.92 398.09 1243.25 398.145 1243.61 398.145C1244.13 398.145 1244.58 398.025 1244.96 397.785C1245.34 397.545 1245.63 397.215 1245.83 396.795L1246.72 397.395C1246.49 397.915 1246.1 398.345 1245.56 398.685C1245.03 399.015 1244.38 399.18 1243.61 399.18ZM1243.54 392.07C1243.21 392.07 1242.9 392.13 1242.62 392.25C1242.34 392.37 1242.1 392.535 1241.89 392.745C1241.69 392.955 1241.53 393.205 1241.41 393.495C1241.3 393.775 1241.24 394.085 1241.24 394.425V394.53H1245.68V394.365C1245.68 394.025 1245.63 393.715 1245.52 393.435C1245.42 393.155 1245.27 392.915 1245.08 392.715C1244.9 392.505 1244.68 392.345 1244.41 392.235C1244.15 392.125 1243.86 392.07 1243.54 392.07ZM1249.17 397.98H1251.87V388.92H1249.17V387.9H1253.07V397.98H1255.77V399H1249.17V397.98ZM1274.01 399H1267.02V397.71L1270.52 394.56C1271.03 394.1 1271.45 393.63 1271.78 393.15C1272.11 392.66 1272.27 392.145 1272.27 391.605V391.425C1272.27 390.795 1272.11 390.31 1271.78 389.97C1271.45 389.62 1270.96 389.445 1270.31 389.445C1269.67 389.445 1269.17 389.61 1268.82 389.94C1268.48 390.26 1268.23 390.69 1268.06 391.23L1266.93 390.81C1267.03 390.5 1267.17 390.2 1267.34 389.91C1267.52 389.61 1267.74 389.345 1268.01 389.115C1268.28 388.885 1268.61 388.7 1268.99 388.56C1269.38 388.42 1269.83 388.35 1270.34 388.35C1270.86 388.35 1271.32 388.425 1271.72 388.575C1272.13 388.725 1272.47 388.935 1272.74 389.205C1273.02 389.475 1273.23 389.795 1273.37 390.165C1273.52 390.535 1273.59 390.94 1273.59 391.38C1273.59 391.78 1273.53 392.155 1273.41 392.505C1273.3 392.855 1273.14 393.19 1272.93 393.51C1272.73 393.83 1272.49 394.145 1272.2 394.455C1271.92 394.755 1271.6 395.055 1271.25 395.355L1268.33 397.905H1274.01V399ZM1275.85 394.995V393.885H1283.05V394.995H1275.85ZM1288.45 399.18C1287.84 399.18 1287.3 399.105 1286.84 398.955C1286.38 398.795 1286 398.58 1285.69 398.31C1285.39 398.04 1285.16 397.72 1285 397.35C1284.85 396.98 1284.77 396.58 1284.77 396.15C1284.77 395.43 1284.97 394.86 1285.36 394.44C1285.75 394.02 1286.26 393.725 1286.9 393.555V393.435C1286.34 393.245 1285.9 392.94 1285.57 392.52C1285.25 392.09 1285.09 391.575 1285.09 390.975C1285.09 390.175 1285.38 389.54 1285.97 389.07C1286.56 388.59 1287.39 388.35 1288.45 388.35C1289.51 388.35 1290.33 388.59 1290.92 389.07C1291.51 389.54 1291.81 390.175 1291.81 390.975C1291.81 391.575 1291.64 392.09 1291.31 392.52C1290.99 392.94 1290.55 393.245 1289.99 393.435V393.555C1290.63 393.725 1291.15 394.02 1291.54 394.44C1291.93 394.86 1292.12 395.43 1292.12 396.15C1292.12 396.58 1292.04 396.98 1291.88 397.35C1291.73 397.72 1291.5 398.04 1291.19 398.31C1290.88 398.58 1290.5 398.795 1290.04 398.955C1289.59 399.105 1289.06 399.18 1288.45 399.18ZM1288.45 398.115C1289.19 398.115 1289.77 397.95 1290.19 397.62C1290.61 397.29 1290.82 396.825 1290.82 396.225V395.895C1290.82 395.295 1290.61 394.83 1290.19 394.5C1289.78 394.17 1289.2 394.005 1288.45 394.005C1287.7 394.005 1287.11 394.17 1286.69 394.5C1286.28 394.83 1286.08 395.295 1286.08 395.895V396.225C1286.08 396.825 1286.29 397.29 1286.71 397.62C1287.13 397.95 1287.71 398.115 1288.45 398.115ZM1288.45 392.985C1289.13 392.985 1289.64 392.84 1289.99 392.55C1290.35 392.26 1290.53 391.845 1290.53 391.305V391.095C1290.53 390.555 1290.35 390.14 1289.98 389.85C1289.62 389.56 1289.11 389.415 1288.45 389.415C1287.79 389.415 1287.27 389.56 1286.9 389.85C1286.54 390.14 1286.36 390.555 1286.36 391.095V391.305C1286.36 391.845 1286.54 392.26 1286.89 392.55C1287.25 392.84 1287.77 392.985 1288.45 392.985ZM1295.27 395.07V393.81H1299.62V395.07H1295.27ZM1303.21 399V397.905H1306.21V389.46H1306.11L1303.47 391.92L1302.73 391.125L1305.51 388.53H1307.47V397.905H1310.23V399H1303.21ZM1315.43 399.18C1314.79 399.18 1314.24 399.06 1313.78 398.82C1313.32 398.57 1312.94 398.215 1312.64 397.755C1312.34 397.295 1312.12 396.73 1311.98 396.06C1311.84 395.39 1311.77 394.625 1311.77 393.765C1311.77 392.915 1311.84 392.155 1311.98 391.485C1312.12 390.805 1312.34 390.235 1312.64 389.775C1312.94 389.315 1313.32 388.965 1313.78 388.725C1314.24 388.475 1314.79 388.35 1315.43 388.35C1316.07 388.35 1316.62 388.475 1317.08 388.725C1317.54 388.965 1317.92 389.315 1318.22 389.775C1318.52 390.235 1318.74 390.805 1318.88 391.485C1319.02 392.155 1319.09 392.915 1319.09 393.765C1319.09 394.625 1319.02 395.39 1318.88 396.06C1318.74 396.73 1318.52 397.295 1318.22 397.755C1317.92 398.215 1317.54 398.57 1317.08 398.82C1316.62 399.06 1316.07 399.18 1315.43 399.18ZM1315.43 398.085C1315.85 398.085 1316.21 398.005 1316.51 397.845C1316.81 397.675 1317.05 397.44 1317.23 397.14C1317.42 396.84 1317.56 396.48 1317.65 396.06C1317.74 395.63 1317.78 395.15 1317.78 394.62V392.91C1317.78 392.39 1317.74 391.915 1317.65 391.485C1317.56 391.055 1317.42 390.69 1317.23 390.39C1317.05 390.09 1316.81 389.86 1316.51 389.7C1316.21 389.53 1315.85 389.445 1315.43 389.445C1315.01 389.445 1314.65 389.53 1314.35 389.7C1314.05 389.86 1313.8 390.09 1313.61 390.39C1313.43 390.69 1313.3 391.055 1313.21 391.485C1313.12 391.915 1313.07 392.39 1313.07 392.91V394.62C1313.07 395.15 1313.12 395.63 1313.21 396.06C1313.3 396.48 1313.43 396.84 1313.61 397.14C1313.8 397.44 1314.05 397.675 1314.35 397.845C1314.65 398.005 1315.01 398.085 1315.43 398.085ZM1315.43 394.65C1315.08 394.65 1314.83 394.58 1314.69 394.44C1314.56 394.3 1314.5 394.13 1314.5 393.93V393.6C1314.5 393.4 1314.56 393.23 1314.69 393.09C1314.83 392.95 1315.08 392.88 1315.43 392.88C1315.78 392.88 1316.02 392.95 1316.15 393.09C1316.29 393.23 1316.36 393.4 1316.36 393.6V393.93C1316.36 394.13 1316.29 394.3 1316.15 394.44C1316.02 394.58 1315.78 394.65 1315.43 394.65Z" fill="white"/>
</svg>
