<svg width="1311" height="801" viewBox="0 0 1311 801" fill="none" xmlns="http://www.w3.org/2000/svg">
<path d="M1195.88 480C1195.29 480 1194.85 479.835 1194.57 479.505C1194.3 479.175 1194.17 478.75 1194.17 478.23V473.28H1191.59V472.26H1193.51C1193.77 472.26 1193.95 472.21 1194.05 472.11C1194.16 472 1194.21 471.815 1194.21 471.555V469.53H1195.37V472.26H1198.89V473.28H1195.37V478.98H1198.89V480H1195.88ZM1206.32 478.74H1206.26C1206.18 478.93 1206.08 479.115 1205.96 479.295C1205.84 479.465 1205.69 479.615 1205.51 479.745C1205.34 479.875 1205.14 479.98 1204.9 480.06C1204.66 480.14 1204.38 480.18 1204.06 480.18C1203.25 480.18 1202.6 479.925 1202.11 479.415C1201.62 478.895 1201.37 478.165 1201.37 477.225V472.26H1202.57V477.015C1202.57 477.725 1202.73 478.255 1203.04 478.605C1203.35 478.945 1203.8 479.115 1204.4 479.115C1204.64 479.115 1204.88 479.085 1205.11 479.025C1205.34 478.965 1205.54 478.875 1205.72 478.755C1205.9 478.635 1206.05 478.485 1206.16 478.305C1206.27 478.115 1206.32 477.89 1206.32 477.63V472.26H1207.52V480H1206.32V478.74ZM1210.46 480V472.26H1211.66V473.52H1211.72C1211.8 473.33 1211.9 473.15 1212.02 472.98C1212.14 472.8 1212.28 472.645 1212.45 472.515C1212.63 472.385 1212.84 472.28 1213.08 472.2C1213.32 472.12 1213.6 472.08 1213.92 472.08C1214.73 472.08 1215.38 472.34 1215.87 472.86C1216.36 473.37 1216.61 474.095 1216.61 475.035V480H1215.41V475.245C1215.41 474.535 1215.25 474.01 1214.94 473.67C1214.63 473.32 1214.18 473.145 1213.58 473.145C1213.34 473.145 1213.1 473.175 1212.87 473.235C1212.64 473.295 1212.44 473.385 1212.26 473.505C1212.08 473.625 1211.93 473.78 1211.82 473.97C1211.71 474.16 1211.66 474.38 1211.66 474.63V480H1210.46ZM1219.45 480V472.26H1220.65V473.52H1220.71C1220.79 473.33 1220.89 473.15 1221.01 472.98C1221.13 472.8 1221.28 472.645 1221.45 472.515C1221.63 472.385 1221.84 472.28 1222.08 472.2C1222.32 472.12 1222.6 472.08 1222.92 472.08C1223.73 472.08 1224.38 472.34 1224.87 472.86C1225.36 473.37 1225.6 474.095 1225.6 475.035V480H1224.4V475.245C1224.4 474.535 1224.25 474.01 1223.94 473.67C1223.63 473.32 1223.17 473.145 1222.57 473.145C1222.33 473.145 1222.1 473.175 1221.87 473.235C1221.64 473.295 1221.43 473.385 1221.25 473.505C1221.07 473.625 1220.93 473.78 1220.82 473.97C1220.71 474.16 1220.65 474.38 1220.65 474.63V480H1219.45ZM1231.61 480.18C1231.05 480.18 1230.55 480.085 1230.1 479.895C1229.66 479.705 1229.28 479.435 1228.96 479.085C1228.65 478.725 1228.41 478.3 1228.24 477.81C1228.07 477.31 1227.98 476.755 1227.98 476.145C1227.98 475.525 1228.07 474.965 1228.24 474.465C1228.42 473.965 1228.66 473.54 1228.97 473.19C1229.28 472.83 1229.65 472.555 1230.08 472.365C1230.52 472.175 1231.01 472.08 1231.54 472.08C1232.06 472.08 1232.53 472.175 1232.95 472.365C1233.38 472.555 1233.74 472.82 1234.04 473.16C1234.34 473.49 1234.57 473.885 1234.73 474.345C1234.89 474.805 1234.97 475.31 1234.97 475.86V476.43H1229.24V476.79C1229.24 477.13 1229.3 477.445 1229.41 477.735C1229.52 478.025 1229.67 478.275 1229.87 478.485C1230.08 478.695 1230.33 478.86 1230.62 478.98C1230.92 479.09 1231.25 479.145 1231.61 479.145C1232.13 479.145 1232.58 479.025 1232.96 478.785C1233.34 478.545 1233.63 478.215 1233.83 477.795L1234.72 478.395C1234.49 478.915 1234.1 479.345 1233.56 479.685C1233.03 480.015 1232.38 480.18 1231.61 480.18ZM1231.54 473.07C1231.21 473.07 1230.9 473.13 1230.62 473.25C1230.34 473.37 1230.1 473.535 1229.89 473.745C1229.69 473.955 1229.53 474.205 1229.41 474.495C1229.3 474.775 1229.24 475.085 1229.24 475.425V475.53H1233.68V475.365C1233.68 475.025 1233.63 474.715 1233.52 474.435C1233.42 474.155 1233.27 473.915 1233.08 473.715C1232.9 473.505 1232.68 473.345 1232.41 473.235C1232.15 473.125 1231.86 473.07 1231.54 473.07ZM1237.17 478.98H1239.87V469.92H1237.17V468.9H1241.07V478.98H1243.77V480H1237.17V478.98ZM1258.01 473.97C1258.74 473.97 1259.28 473.81 1259.64 473.49C1260.01 473.16 1260.2 472.74 1260.2 472.23V472.125C1260.2 471.565 1260.02 471.145 1259.66 470.865C1259.31 470.585 1258.85 470.445 1258.28 470.445C1257.72 470.445 1257.26 470.57 1256.91 470.82C1256.57 471.06 1256.29 471.38 1256.07 471.78L1255.13 471.06C1255.26 470.85 1255.42 470.645 1255.61 470.445C1255.8 470.235 1256.02 470.05 1256.27 469.89C1256.53 469.73 1256.82 469.6 1257.15 469.5C1257.49 469.4 1257.88 469.35 1258.31 469.35C1258.76 469.35 1259.18 469.41 1259.57 469.53C1259.96 469.64 1260.3 469.81 1260.59 470.04C1260.88 470.26 1261.1 470.535 1261.26 470.865C1261.43 471.195 1261.52 471.57 1261.52 471.99C1261.52 472.33 1261.46 472.635 1261.35 472.905C1261.25 473.175 1261.11 473.41 1260.92 473.61C1260.74 473.81 1260.52 473.98 1260.27 474.12C1260.02 474.26 1259.76 474.365 1259.48 474.435V474.495C1259.77 474.555 1260.05 474.655 1260.32 474.795C1260.59 474.925 1260.83 475.1 1261.04 475.32C1261.25 475.53 1261.41 475.79 1261.53 476.1C1261.66 476.4 1261.73 476.745 1261.73 477.135C1261.73 477.585 1261.64 478 1261.46 478.38C1261.29 478.75 1261.04 479.07 1260.72 479.34C1260.41 479.6 1260.03 479.805 1259.58 479.955C1259.14 480.105 1258.65 480.18 1258.11 480.18C1257.65 480.18 1257.24 480.13 1256.88 480.03C1256.53 479.93 1256.22 479.795 1255.94 479.625C1255.67 479.455 1255.43 479.265 1255.22 479.055C1255.02 478.845 1254.84 478.625 1254.68 478.395L1255.62 477.675C1255.76 477.885 1255.91 478.075 1256.06 478.245C1256.21 478.415 1256.38 478.565 1256.57 478.695C1256.77 478.815 1256.99 478.91 1257.24 478.98C1257.49 479.05 1257.78 479.085 1258.11 479.085C1258.85 479.085 1259.42 478.915 1259.81 478.575C1260.21 478.235 1260.41 477.75 1260.41 477.12V477C1260.41 476.38 1260.21 475.9 1259.82 475.56C1259.44 475.22 1258.87 475.05 1258.1 475.05H1256.85V473.97H1258.01ZM1263.85 475.995V474.885H1271.05V475.995H1263.85ZM1273.22 480V478.905H1276.22V470.46H1276.12L1273.48 472.92L1272.74 472.125L1275.52 469.53H1277.48V478.905H1280.24V480H1273.22ZM1283.27 476.07V474.81H1287.62V476.07H1283.27ZM1294.44 480.18C1293.8 480.18 1293.25 480.06 1292.79 479.82C1292.33 479.57 1291.95 479.215 1291.65 478.755C1291.35 478.295 1291.13 477.73 1290.99 477.06C1290.85 476.39 1290.78 475.625 1290.78 474.765C1290.78 473.915 1290.85 473.155 1290.99 472.485C1291.13 471.805 1291.35 471.235 1291.65 470.775C1291.95 470.315 1292.33 469.965 1292.79 469.725C1293.25 469.475 1293.8 469.35 1294.44 469.35C1295.08 469.35 1295.63 469.475 1296.09 469.725C1296.55 469.965 1296.93 470.315 1297.23 470.775C1297.53 471.235 1297.75 471.805 1297.89 472.485C1298.03 473.155 1298.1 473.915 1298.1 474.765C1298.1 475.625 1298.03 476.39 1297.89 477.06C1297.75 477.73 1297.53 478.295 1297.23 478.755C1296.93 479.215 1296.55 479.57 1296.09 479.82C1295.63 480.06 1295.08 480.18 1294.44 480.18ZM1294.44 479.085C1294.86 479.085 1295.22 479.005 1295.52 478.845C1295.82 478.675 1296.06 478.44 1296.24 478.14C1296.43 477.84 1296.57 477.48 1296.66 477.06C1296.75 476.63 1296.79 476.15 1296.79 475.62V473.91C1296.79 473.39 1296.75 472.915 1296.66 472.485C1296.57 472.055 1296.43 471.69 1296.24 471.39C1296.06 471.09 1295.82 470.86 1295.52 470.7C1295.22 470.53 1294.86 470.445 1294.44 470.445C1294.02 470.445 1293.66 470.53 1293.36 470.7C1293.06 470.86 1292.81 471.09 1292.62 471.39C1292.44 471.69 1292.31 472.055 1292.22 472.485C1292.13 472.915 1292.08 473.39 1292.08 473.91V475.62C1292.08 476.15 1292.13 476.63 1292.22 477.06C1292.31 477.48 1292.44 477.84 1292.62 478.14C1292.81 478.44 1293.06 478.675 1293.36 478.845C1293.66 479.005 1294.02 479.085 1294.44 479.085ZM1294.44 475.65C1294.09 475.65 1293.84 475.58 1293.7 475.44C1293.57 475.3 1293.51 475.13 1293.51 474.93V474.6C1293.51 474.4 1293.57 474.23 1293.7 474.09C1293.84 473.95 1294.09 473.88 1294.44 473.88C1294.79 473.88 1295.03 473.95 1295.16 474.09C1295.3 474.23 1295.37 474.4 1295.37 474.6V474.93C1295.37 475.13 1295.3 475.3 1295.16 475.44C1295.03 475.58 1294.79 475.65 1294.44 475.65ZM1306.98 480H1299.99V478.71L1303.49 475.56C1304 475.1 1304.42 474.63 1304.75 474.15C1305.08 473.66 1305.24 473.145 1305.24 472.605V472.425C1305.24 471.795 1305.08 471.31 1304.75 470.97C1304.42 470.62 1303.93 470.445 1303.28 470.445C1302.64 470.445 1302.14 470.61 1301.79 470.94C1301.45 471.26 1301.2 471.69 1301.03 472.23L1299.9 471.81C1300 471.5 1300.14 471.2 1300.31 470.91C1300.49 470.61 1300.71 470.345 1300.98 470.115C1301.25 469.885 1301.58 469.7 1301.96 469.56C1302.35 469.42 1302.8 469.35 1303.31 469.35C1303.83 469.35 1304.29 469.425 1304.69 469.575C1305.1 469.725 1305.44 469.935 1305.71 470.205C1305.99 470.475 1306.2 470.795 1306.34 471.165C1306.49 471.535 1306.56 471.94 1306.56 472.38C1306.56 472.78 1306.5 473.155 1306.38 473.505C1306.27 473.855 1306.11 474.19 1305.9 474.51C1305.7 474.83 1305.46 475.145 1305.17 475.455C1304.89 475.755 1304.57 476.055 1304.22 476.355L1301.3 478.905H1306.98V480Z" fill="white"/>
</svg>
