<svg width="1311" height="801" viewBox="0 0 1311 801" fill="none" xmlns="http://www.w3.org/2000/svg">
<path d="M1139.88 563C1139.29 563 1138.85 562.835 1138.57 562.505C1138.3 562.175 1138.17 561.75 1138.17 561.23V556.28H1135.59V555.26H1137.51C1137.77 555.26 1137.95 555.21 1138.05 555.11C1138.16 555 1138.21 554.815 1138.21 554.555V552.53H1139.37V555.26H1142.89V556.28H1139.37V561.98H1142.89V563H1139.88ZM1150.32 561.74H1150.26C1150.18 561.93 1150.08 562.115 1149.96 562.295C1149.84 562.465 1149.69 562.615 1149.51 562.745C1149.34 562.875 1149.14 562.98 1148.9 563.06C1148.66 563.14 1148.38 563.18 1148.06 563.18C1147.25 563.18 1146.6 562.925 1146.11 562.415C1145.62 561.895 1145.37 561.165 1145.37 560.225V555.26H1146.57V560.015C1146.57 560.725 1146.73 561.255 1147.04 561.605C1147.35 561.945 1147.8 562.115 1148.4 562.115C1148.64 562.115 1148.88 562.085 1149.11 562.025C1149.34 561.965 1149.54 561.875 1149.72 561.755C1149.9 561.635 1150.05 561.485 1150.16 561.305C1150.27 561.115 1150.32 560.89 1150.32 560.63V555.26H1151.52V563H1150.32V561.74ZM1154.46 563V555.26H1155.66V556.52H1155.72C1155.8 556.33 1155.9 556.15 1156.02 555.98C1156.14 555.8 1156.28 555.645 1156.45 555.515C1156.63 555.385 1156.84 555.28 1157.08 555.2C1157.32 555.12 1157.6 555.08 1157.92 555.08C1158.73 555.08 1159.38 555.34 1159.87 555.86C1160.36 556.37 1160.61 557.095 1160.61 558.035V563H1159.41V558.245C1159.41 557.535 1159.25 557.01 1158.94 556.67C1158.63 556.32 1158.18 556.145 1157.58 556.145C1157.34 556.145 1157.1 556.175 1156.87 556.235C1156.64 556.295 1156.44 556.385 1156.26 556.505C1156.08 556.625 1155.93 556.78 1155.82 556.97C1155.71 557.16 1155.66 557.38 1155.66 557.63V563H1154.46ZM1163.45 563V555.26H1164.65V556.52H1164.71C1164.79 556.33 1164.89 556.15 1165.01 555.98C1165.13 555.8 1165.28 555.645 1165.45 555.515C1165.63 555.385 1165.84 555.28 1166.08 555.2C1166.32 555.12 1166.6 555.08 1166.92 555.08C1167.73 555.08 1168.38 555.34 1168.87 555.86C1169.36 556.37 1169.6 557.095 1169.6 558.035V563H1168.4V558.245C1168.4 557.535 1168.25 557.01 1167.94 556.67C1167.63 556.32 1167.17 556.145 1166.57 556.145C1166.33 556.145 1166.1 556.175 1165.87 556.235C1165.64 556.295 1165.43 556.385 1165.25 556.505C1165.07 556.625 1164.93 556.78 1164.82 556.97C1164.71 557.16 1164.65 557.38 1164.65 557.63V563H1163.45ZM1175.61 563.18C1175.05 563.18 1174.55 563.085 1174.1 562.895C1173.66 562.705 1173.28 562.435 1172.96 562.085C1172.65 561.725 1172.41 561.3 1172.24 560.81C1172.07 560.31 1171.98 559.755 1171.98 559.145C1171.98 558.525 1172.07 557.965 1172.24 557.465C1172.42 556.965 1172.66 556.54 1172.97 556.19C1173.28 555.83 1173.65 555.555 1174.08 555.365C1174.52 555.175 1175.01 555.08 1175.54 555.08C1176.06 555.08 1176.53 555.175 1176.95 555.365C1177.38 555.555 1177.74 555.82 1178.04 556.16C1178.34 556.49 1178.57 556.885 1178.73 557.345C1178.89 557.805 1178.97 558.31 1178.97 558.86V559.43H1173.24V559.79C1173.24 560.13 1173.3 560.445 1173.41 560.735C1173.52 561.025 1173.67 561.275 1173.87 561.485C1174.08 561.695 1174.33 561.86 1174.62 561.98C1174.92 562.09 1175.25 562.145 1175.61 562.145C1176.13 562.145 1176.58 562.025 1176.96 561.785C1177.34 561.545 1177.63 561.215 1177.83 560.795L1178.72 561.395C1178.49 561.915 1178.1 562.345 1177.56 562.685C1177.03 563.015 1176.38 563.18 1175.61 563.18ZM1175.54 556.07C1175.21 556.07 1174.9 556.13 1174.62 556.25C1174.34 556.37 1174.1 556.535 1173.89 556.745C1173.69 556.955 1173.53 557.205 1173.41 557.495C1173.3 557.775 1173.24 558.085 1173.24 558.425V558.53H1177.68V558.365C1177.68 558.025 1177.63 557.715 1177.52 557.435C1177.42 557.155 1177.27 556.915 1177.08 556.715C1176.9 556.505 1176.68 556.345 1176.41 556.235C1176.15 556.125 1175.86 556.07 1175.54 556.07ZM1181.17 561.98H1183.87V552.92H1181.17V551.9H1185.07V561.98H1187.77V563H1181.17V561.98ZM1202.01 556.97C1202.74 556.97 1203.28 556.81 1203.64 556.49C1204.01 556.16 1204.2 555.74 1204.2 555.23V555.125C1204.2 554.565 1204.02 554.145 1203.66 553.865C1203.31 553.585 1202.85 553.445 1202.28 553.445C1201.72 553.445 1201.26 553.57 1200.91 553.82C1200.57 554.06 1200.29 554.38 1200.07 554.78L1199.13 554.06C1199.26 553.85 1199.42 553.645 1199.61 553.445C1199.8 553.235 1200.02 553.05 1200.27 552.89C1200.53 552.73 1200.82 552.6 1201.15 552.5C1201.49 552.4 1201.88 552.35 1202.31 552.35C1202.76 552.35 1203.18 552.41 1203.57 552.53C1203.96 552.64 1204.3 552.81 1204.59 553.04C1204.88 553.26 1205.1 553.535 1205.26 553.865C1205.43 554.195 1205.52 554.57 1205.52 554.99C1205.52 555.33 1205.46 555.635 1205.35 555.905C1205.25 556.175 1205.11 556.41 1204.92 556.61C1204.74 556.81 1204.52 556.98 1204.27 557.12C1204.02 557.26 1203.76 557.365 1203.48 557.435V557.495C1203.77 557.555 1204.05 557.655 1204.32 557.795C1204.59 557.925 1204.83 558.1 1205.04 558.32C1205.25 558.53 1205.41 558.79 1205.53 559.1C1205.66 559.4 1205.73 559.745 1205.73 560.135C1205.73 560.585 1205.64 561 1205.46 561.38C1205.29 561.75 1205.04 562.07 1204.72 562.34C1204.41 562.6 1204.03 562.805 1203.58 562.955C1203.14 563.105 1202.65 563.18 1202.11 563.18C1201.65 563.18 1201.24 563.13 1200.88 563.03C1200.53 562.93 1200.22 562.795 1199.94 562.625C1199.67 562.455 1199.43 562.265 1199.22 562.055C1199.02 561.845 1198.84 561.625 1198.68 561.395L1199.62 560.675C1199.76 560.885 1199.91 561.075 1200.06 561.245C1200.21 561.415 1200.38 561.565 1200.57 561.695C1200.77 561.815 1200.99 561.91 1201.24 561.98C1201.49 562.05 1201.78 562.085 1202.11 562.085C1202.85 562.085 1203.42 561.915 1203.81 561.575C1204.21 561.235 1204.41 560.75 1204.41 560.12V560C1204.41 559.38 1204.21 558.9 1203.82 558.56C1203.44 558.22 1202.87 558.05 1202.1 558.05H1200.85V556.97H1202.01ZM1207.85 558.995V557.885H1215.05V558.995H1207.85ZM1220 556.97C1220.73 556.97 1221.27 556.81 1221.63 556.49C1222 556.16 1222.19 555.74 1222.19 555.23V555.125C1222.19 554.565 1222.01 554.145 1221.65 553.865C1221.3 553.585 1220.84 553.445 1220.27 553.445C1219.71 553.445 1219.25 553.57 1218.9 553.82C1218.56 554.06 1218.28 554.38 1218.06 554.78L1217.12 554.06C1217.25 553.85 1217.41 553.645 1217.6 553.445C1217.79 553.235 1218.01 553.05 1218.26 552.89C1218.52 552.73 1218.81 552.6 1219.14 552.5C1219.48 552.4 1219.87 552.35 1220.3 552.35C1220.75 552.35 1221.17 552.41 1221.56 552.53C1221.95 552.64 1222.29 552.81 1222.58 553.04C1222.87 553.26 1223.09 553.535 1223.25 553.865C1223.42 554.195 1223.51 554.57 1223.51 554.99C1223.51 555.33 1223.45 555.635 1223.34 555.905C1223.24 556.175 1223.1 556.41 1222.91 556.61C1222.73 556.81 1222.51 556.98 1222.26 557.12C1222.01 557.26 1221.75 557.365 1221.47 557.435V557.495C1221.76 557.555 1222.04 557.655 1222.31 557.795C1222.58 557.925 1222.82 558.1 1223.03 558.32C1223.24 558.53 1223.4 558.79 1223.52 559.1C1223.65 559.4 1223.72 559.745 1223.72 560.135C1223.72 560.585 1223.63 561 1223.45 561.38C1223.28 561.75 1223.03 562.07 1222.71 562.34C1222.4 562.6 1222.02 562.805 1221.57 562.955C1221.13 563.105 1220.64 563.18 1220.1 563.18C1219.64 563.18 1219.23 563.13 1218.87 563.03C1218.52 562.93 1218.21 562.795 1217.93 562.625C1217.66 562.455 1217.42 562.265 1217.21 562.055C1217.01 561.845 1216.83 561.625 1216.67 561.395L1217.61 560.675C1217.75 560.885 1217.9 561.075 1218.05 561.245C1218.2 561.415 1218.37 561.565 1218.56 561.695C1218.76 561.815 1218.98 561.91 1219.23 561.98C1219.48 562.05 1219.77 562.085 1220.1 562.085C1220.84 562.085 1221.41 561.915 1221.8 561.575C1222.2 561.235 1222.4 560.75 1222.4 560.12V560C1222.4 559.38 1222.2 558.9 1221.81 558.56C1221.43 558.22 1220.86 558.05 1220.09 558.05H1218.84V556.97H1220ZM1227.27 559.07V557.81H1231.62V559.07H1227.27ZM1238.44 563.18C1237.8 563.18 1237.25 563.06 1236.79 562.82C1236.33 562.57 1235.95 562.215 1235.65 561.755C1235.35 561.295 1235.13 560.73 1234.99 560.06C1234.85 559.39 1234.78 558.625 1234.78 557.765C1234.78 556.915 1234.85 556.155 1234.99 555.485C1235.13 554.805 1235.35 554.235 1235.65 553.775C1235.95 553.315 1236.33 552.965 1236.79 552.725C1237.25 552.475 1237.8 552.35 1238.44 552.35C1239.08 552.35 1239.63 552.475 1240.09 552.725C1240.55 552.965 1240.93 553.315 1241.23 553.775C1241.53 554.235 1241.75 554.805 1241.89 555.485C1242.03 556.155 1242.1 556.915 1242.1 557.765C1242.1 558.625 1242.03 559.39 1241.89 560.06C1241.75 560.73 1241.53 561.295 1241.23 561.755C1240.93 562.215 1240.55 562.57 1240.09 562.82C1239.63 563.06 1239.08 563.18 1238.44 563.18ZM1238.44 562.085C1238.86 562.085 1239.22 562.005 1239.52 561.845C1239.82 561.675 1240.06 561.44 1240.24 561.14C1240.43 560.84 1240.57 560.48 1240.66 560.06C1240.75 559.63 1240.79 559.15 1240.79 558.62V556.91C1240.79 556.39 1240.75 555.915 1240.66 555.485C1240.57 555.055 1240.43 554.69 1240.24 554.39C1240.06 554.09 1239.82 553.86 1239.52 553.7C1239.22 553.53 1238.86 553.445 1238.44 553.445C1238.02 553.445 1237.66 553.53 1237.36 553.7C1237.06 553.86 1236.81 554.09 1236.62 554.39C1236.44 554.69 1236.31 555.055 1236.22 555.485C1236.13 555.915 1236.08 556.39 1236.08 556.91V558.62C1236.08 559.15 1236.13 559.63 1236.22 560.06C1236.31 560.48 1236.44 560.84 1236.62 561.14C1236.81 561.44 1237.06 561.675 1237.36 561.845C1237.66 562.005 1238.02 562.085 1238.44 562.085ZM1238.44 558.65C1238.09 558.65 1237.84 558.58 1237.7 558.44C1237.57 558.3 1237.51 558.13 1237.51 557.93V557.6C1237.51 557.4 1237.57 557.23 1237.7 557.09C1237.84 556.95 1238.09 556.88 1238.44 556.88C1238.79 556.88 1239.03 556.95 1239.16 557.09C1239.3 557.23 1239.37 557.4 1239.37 557.6V557.93C1239.37 558.13 1239.3 558.3 1239.16 558.44C1239.03 558.58 1238.79 558.65 1238.44 558.65ZM1247.44 563.18C1246.89 563.18 1246.4 563.09 1245.96 562.91C1245.52 562.72 1245.14 562.455 1244.83 562.115C1244.53 561.765 1244.3 561.34 1244.13 560.84C1243.97 560.34 1243.89 559.78 1243.89 559.16C1243.89 558.38 1244 557.65 1244.23 556.97C1244.47 556.28 1244.77 555.655 1245.13 555.095C1245.5 554.525 1245.91 554.025 1246.36 553.595C1246.81 553.155 1247.25 552.8 1247.68 552.53H1249.3C1248.73 552.94 1248.22 553.34 1247.77 553.73C1247.33 554.12 1246.94 554.53 1246.6 554.96C1246.26 555.38 1245.98 555.835 1245.75 556.325C1245.52 556.805 1245.33 557.35 1245.18 557.96L1245.25 557.99C1245.5 557.56 1245.83 557.205 1246.24 556.925C1246.65 556.635 1247.18 556.49 1247.83 556.49C1248.29 556.49 1248.71 556.565 1249.09 556.715C1249.47 556.865 1249.8 557.08 1250.08 557.36C1250.36 557.64 1250.58 557.98 1250.73 558.38C1250.89 558.78 1250.97 559.225 1250.97 559.715C1250.97 560.225 1250.88 560.695 1250.71 561.125C1250.54 561.545 1250.3 561.91 1249.99 562.22C1249.69 562.52 1249.32 562.755 1248.88 562.925C1248.45 563.095 1247.97 563.18 1247.44 563.18ZM1247.43 562.115C1248.15 562.115 1248.7 561.92 1249.09 561.53C1249.49 561.14 1249.69 560.59 1249.69 559.88V559.76C1249.69 559.05 1249.49 558.5 1249.09 558.11C1248.7 557.72 1248.15 557.525 1247.43 557.525C1246.71 557.525 1246.15 557.72 1245.75 558.11C1245.36 558.5 1245.16 559.05 1245.16 559.76V559.88C1245.16 560.59 1245.36 561.14 1245.75 561.53C1246.15 561.92 1246.71 562.115 1247.43 562.115Z" fill="white"/>
</svg>
