<svg width="1311" height="801" viewBox="0 0 1311 801" fill="none" xmlns="http://www.w3.org/2000/svg">
<path d="M1059.88 634C1059.29 634 1058.85 633.835 1058.57 633.505C1058.3 633.175 1058.17 632.75 1058.17 632.23V627.28H1055.59V626.26H1057.51C1057.77 626.26 1057.95 626.21 1058.05 626.11C1058.16 626 1058.21 625.815 1058.21 625.555V623.53H1059.37V626.26H1062.89V627.28H1059.37V632.98H1062.89V634H1059.88ZM1070.32 632.74H1070.26C1070.18 632.93 1070.08 633.115 1069.96 633.295C1069.84 633.465 1069.69 633.615 1069.51 633.745C1069.34 633.875 1069.14 633.98 1068.9 634.06C1068.66 634.14 1068.38 634.18 1068.06 634.18C1067.25 634.18 1066.6 633.925 1066.11 633.415C1065.62 632.895 1065.37 632.165 1065.37 631.225V626.26H1066.57V631.015C1066.57 631.725 1066.73 632.255 1067.04 632.605C1067.35 632.945 1067.8 633.115 1068.4 633.115C1068.64 633.115 1068.88 633.085 1069.11 633.025C1069.34 632.965 1069.54 632.875 1069.72 632.755C1069.9 632.635 1070.05 632.485 1070.16 632.305C1070.27 632.115 1070.32 631.89 1070.32 631.63V626.26H1071.52V634H1070.32V632.74ZM1074.46 634V626.26H1075.66V627.52H1075.72C1075.8 627.33 1075.9 627.15 1076.02 626.98C1076.14 626.8 1076.28 626.645 1076.45 626.515C1076.63 626.385 1076.84 626.28 1077.08 626.2C1077.32 626.12 1077.6 626.08 1077.92 626.08C1078.73 626.08 1079.38 626.34 1079.87 626.86C1080.36 627.37 1080.61 628.095 1080.61 629.035V634H1079.41V629.245C1079.41 628.535 1079.25 628.01 1078.94 627.67C1078.63 627.32 1078.18 627.145 1077.58 627.145C1077.34 627.145 1077.1 627.175 1076.87 627.235C1076.64 627.295 1076.44 627.385 1076.26 627.505C1076.08 627.625 1075.93 627.78 1075.82 627.97C1075.71 628.16 1075.66 628.38 1075.66 628.63V634H1074.46ZM1083.45 634V626.26H1084.65V627.52H1084.71C1084.79 627.33 1084.89 627.15 1085.01 626.98C1085.13 626.8 1085.28 626.645 1085.45 626.515C1085.63 626.385 1085.84 626.28 1086.08 626.2C1086.32 626.12 1086.6 626.08 1086.92 626.08C1087.73 626.08 1088.38 626.34 1088.87 626.86C1089.36 627.37 1089.6 628.095 1089.6 629.035V634H1088.4V629.245C1088.4 628.535 1088.25 628.01 1087.94 627.67C1087.63 627.32 1087.17 627.145 1086.57 627.145C1086.33 627.145 1086.1 627.175 1085.87 627.235C1085.64 627.295 1085.43 627.385 1085.25 627.505C1085.07 627.625 1084.93 627.78 1084.82 627.97C1084.71 628.16 1084.65 628.38 1084.65 628.63V634H1083.45ZM1095.61 634.18C1095.05 634.18 1094.55 634.085 1094.1 633.895C1093.66 633.705 1093.28 633.435 1092.96 633.085C1092.65 632.725 1092.41 632.3 1092.24 631.81C1092.07 631.31 1091.98 630.755 1091.98 630.145C1091.98 629.525 1092.07 628.965 1092.24 628.465C1092.42 627.965 1092.66 627.54 1092.97 627.19C1093.28 626.83 1093.65 626.555 1094.08 626.365C1094.52 626.175 1095.01 626.08 1095.54 626.08C1096.06 626.08 1096.53 626.175 1096.95 626.365C1097.38 626.555 1097.74 626.82 1098.04 627.16C1098.34 627.49 1098.57 627.885 1098.73 628.345C1098.89 628.805 1098.97 629.31 1098.97 629.86V630.43H1093.24V630.79C1093.24 631.13 1093.3 631.445 1093.41 631.735C1093.52 632.025 1093.67 632.275 1093.87 632.485C1094.08 632.695 1094.33 632.86 1094.62 632.98C1094.92 633.09 1095.25 633.145 1095.61 633.145C1096.13 633.145 1096.58 633.025 1096.96 632.785C1097.34 632.545 1097.63 632.215 1097.83 631.795L1098.72 632.395C1098.49 632.915 1098.1 633.345 1097.56 633.685C1097.03 634.015 1096.38 634.18 1095.61 634.18ZM1095.54 627.07C1095.21 627.07 1094.9 627.13 1094.62 627.25C1094.34 627.37 1094.1 627.535 1093.89 627.745C1093.69 627.955 1093.53 628.205 1093.41 628.495C1093.3 628.775 1093.24 629.085 1093.24 629.425V629.53H1097.68V629.365C1097.68 629.025 1097.63 628.715 1097.52 628.435C1097.42 628.155 1097.27 627.915 1097.08 627.715C1096.9 627.505 1096.68 627.345 1096.41 627.235C1096.15 627.125 1095.86 627.07 1095.54 627.07ZM1101.17 632.98H1103.87V623.92H1101.17V622.9H1105.07V632.98H1107.77V634H1101.17V632.98ZM1122.01 627.97C1122.74 627.97 1123.28 627.81 1123.64 627.49C1124.01 627.16 1124.2 626.74 1124.2 626.23V626.125C1124.2 625.565 1124.02 625.145 1123.66 624.865C1123.31 624.585 1122.85 624.445 1122.28 624.445C1121.72 624.445 1121.26 624.57 1120.91 624.82C1120.57 625.06 1120.29 625.38 1120.07 625.78L1119.13 625.06C1119.26 624.85 1119.42 624.645 1119.61 624.445C1119.8 624.235 1120.02 624.05 1120.27 623.89C1120.53 623.73 1120.82 623.6 1121.15 623.5C1121.49 623.4 1121.88 623.35 1122.31 623.35C1122.76 623.35 1123.18 623.41 1123.57 623.53C1123.96 623.64 1124.3 623.81 1124.59 624.04C1124.88 624.26 1125.1 624.535 1125.26 624.865C1125.43 625.195 1125.52 625.57 1125.52 625.99C1125.52 626.33 1125.46 626.635 1125.35 626.905C1125.25 627.175 1125.11 627.41 1124.92 627.61C1124.74 627.81 1124.52 627.98 1124.27 628.12C1124.02 628.26 1123.76 628.365 1123.48 628.435V628.495C1123.77 628.555 1124.05 628.655 1124.32 628.795C1124.59 628.925 1124.83 629.1 1125.04 629.32C1125.25 629.53 1125.41 629.79 1125.53 630.1C1125.66 630.4 1125.73 630.745 1125.73 631.135C1125.73 631.585 1125.64 632 1125.46 632.38C1125.29 632.75 1125.04 633.07 1124.72 633.34C1124.41 633.6 1124.03 633.805 1123.58 633.955C1123.14 634.105 1122.65 634.18 1122.11 634.18C1121.65 634.18 1121.24 634.13 1120.88 634.03C1120.53 633.93 1120.22 633.795 1119.94 633.625C1119.67 633.455 1119.43 633.265 1119.22 633.055C1119.02 632.845 1118.84 632.625 1118.68 632.395L1119.62 631.675C1119.76 631.885 1119.91 632.075 1120.06 632.245C1120.21 632.415 1120.38 632.565 1120.57 632.695C1120.77 632.815 1120.99 632.91 1121.24 632.98C1121.49 633.05 1121.78 633.085 1122.11 633.085C1122.85 633.085 1123.42 632.915 1123.81 632.575C1124.21 632.235 1124.41 631.75 1124.41 631.12V631C1124.41 630.38 1124.21 629.9 1123.82 629.56C1123.44 629.22 1122.87 629.05 1122.1 629.05H1120.85V627.97H1122.01ZM1127.85 629.995V628.885H1135.05V629.995H1127.85ZM1140.46 634.18C1139.91 634.18 1139.42 634.09 1138.98 633.91C1138.54 633.72 1138.16 633.455 1137.85 633.115C1137.55 632.765 1137.32 632.34 1137.15 631.84C1136.99 631.34 1136.91 630.78 1136.91 630.16C1136.91 629.38 1137.02 628.65 1137.25 627.97C1137.49 627.28 1137.79 626.655 1138.15 626.095C1138.52 625.525 1138.93 625.025 1139.38 624.595C1139.83 624.155 1140.27 623.8 1140.7 623.53H1142.32C1141.75 623.94 1141.24 624.34 1140.79 624.73C1140.35 625.12 1139.96 625.53 1139.62 625.96C1139.28 626.38 1139 626.835 1138.77 627.325C1138.54 627.805 1138.35 628.35 1138.2 628.96L1138.27 628.99C1138.52 628.56 1138.85 628.205 1139.26 627.925C1139.67 627.635 1140.2 627.49 1140.85 627.49C1141.31 627.49 1141.73 627.565 1142.11 627.715C1142.49 627.865 1142.82 628.08 1143.1 628.36C1143.38 628.64 1143.6 628.98 1143.75 629.38C1143.91 629.78 1143.99 630.225 1143.99 630.715C1143.99 631.225 1143.9 631.695 1143.73 632.125C1143.56 632.545 1143.32 632.91 1143.01 633.22C1142.71 633.52 1142.34 633.755 1141.9 633.925C1141.47 634.095 1140.99 634.18 1140.46 634.18ZM1140.45 633.115C1141.17 633.115 1141.72 632.92 1142.11 632.53C1142.51 632.14 1142.71 631.59 1142.71 630.88V630.76C1142.71 630.05 1142.51 629.5 1142.11 629.11C1141.72 628.72 1141.17 628.525 1140.45 628.525C1139.73 628.525 1139.17 628.72 1138.77 629.11C1138.38 629.5 1138.18 630.05 1138.18 630.76V630.88C1138.18 631.59 1138.38 632.14 1138.77 632.53C1139.17 632.92 1139.73 633.115 1140.45 633.115ZM1147.27 630.07V628.81H1151.62V630.07H1147.27ZM1158.44 634.18C1157.8 634.18 1157.25 634.06 1156.79 633.82C1156.33 633.57 1155.95 633.215 1155.65 632.755C1155.35 632.295 1155.13 631.73 1154.99 631.06C1154.85 630.39 1154.78 629.625 1154.78 628.765C1154.78 627.915 1154.85 627.155 1154.99 626.485C1155.13 625.805 1155.35 625.235 1155.65 624.775C1155.95 624.315 1156.33 623.965 1156.79 623.725C1157.25 623.475 1157.8 623.35 1158.44 623.35C1159.08 623.35 1159.63 623.475 1160.09 623.725C1160.55 623.965 1160.93 624.315 1161.23 624.775C1161.53 625.235 1161.75 625.805 1161.89 626.485C1162.03 627.155 1162.1 627.915 1162.1 628.765C1162.1 629.625 1162.03 630.39 1161.89 631.06C1161.75 631.73 1161.53 632.295 1161.23 632.755C1160.93 633.215 1160.55 633.57 1160.09 633.82C1159.63 634.06 1159.08 634.18 1158.44 634.18ZM1158.44 633.085C1158.86 633.085 1159.22 633.005 1159.52 632.845C1159.82 632.675 1160.06 632.44 1160.24 632.14C1160.43 631.84 1160.57 631.48 1160.66 631.06C1160.75 630.63 1160.79 630.15 1160.79 629.62V627.91C1160.79 627.39 1160.75 626.915 1160.66 626.485C1160.57 626.055 1160.43 625.69 1160.24 625.39C1160.06 625.09 1159.82 624.86 1159.52 624.7C1159.22 624.53 1158.86 624.445 1158.44 624.445C1158.02 624.445 1157.66 624.53 1157.36 624.7C1157.06 624.86 1156.81 625.09 1156.62 625.39C1156.44 625.69 1156.31 626.055 1156.22 626.485C1156.13 626.915 1156.08 627.39 1156.08 627.91V629.62C1156.08 630.15 1156.13 630.63 1156.22 631.06C1156.31 631.48 1156.44 631.84 1156.62 632.14C1156.81 632.44 1157.06 632.675 1157.36 632.845C1157.66 633.005 1158.02 633.085 1158.44 633.085ZM1158.44 629.65C1158.09 629.65 1157.84 629.58 1157.7 629.44C1157.57 629.3 1157.51 629.13 1157.51 628.93V628.6C1157.51 628.4 1157.57 628.23 1157.7 628.09C1157.84 627.95 1158.09 627.88 1158.44 627.88C1158.79 627.88 1159.03 627.95 1159.16 628.09C1159.3 628.23 1159.37 628.4 1159.37 628.6V628.93C1159.37 629.13 1159.3 629.3 1159.16 629.44C1159.03 629.58 1158.79 629.65 1158.44 629.65ZM1167.43 634.18C1166.82 634.18 1166.28 634.105 1165.82 633.955C1165.36 633.795 1164.98 633.58 1164.67 633.31C1164.37 633.04 1164.14 632.72 1163.98 632.35C1163.83 631.98 1163.75 631.58 1163.75 631.15C1163.75 630.43 1163.95 629.86 1164.34 629.44C1164.73 629.02 1165.24 628.725 1165.88 628.555V628.435C1165.32 628.245 1164.88 627.94 1164.55 627.52C1164.23 627.09 1164.07 626.575 1164.07 625.975C1164.07 625.175 1164.36 624.54 1164.95 624.07C1165.54 623.59 1166.37 623.35 1167.43 623.35C1168.49 623.35 1169.31 623.59 1169.9 624.07C1170.49 624.54 1170.79 625.175 1170.79 625.975C1170.79 626.575 1170.62 627.09 1170.29 627.52C1169.97 627.94 1169.53 628.245 1168.97 628.435V628.555C1169.61 628.725 1170.13 629.02 1170.52 629.44C1170.91 629.86 1171.1 630.43 1171.1 631.15C1171.1 631.58 1171.02 631.98 1170.86 632.35C1170.71 632.72 1170.48 633.04 1170.17 633.31C1169.86 633.58 1169.48 633.795 1169.02 633.955C1168.57 634.105 1168.04 634.18 1167.43 634.18ZM1167.43 633.115C1168.17 633.115 1168.75 632.95 1169.17 632.62C1169.59 632.29 1169.8 631.825 1169.8 631.225V630.895C1169.8 630.295 1169.59 629.83 1169.17 629.5C1168.76 629.17 1168.18 629.005 1167.43 629.005C1166.68 629.005 1166.09 629.17 1165.67 629.5C1165.26 629.83 1165.06 630.295 1165.06 630.895V631.225C1165.06 631.825 1165.27 632.29 1165.69 632.62C1166.11 632.95 1166.69 633.115 1167.43 633.115ZM1167.43 627.985C1168.11 627.985 1168.62 627.84 1168.97 627.55C1169.33 627.26 1169.51 626.845 1169.51 626.305V626.095C1169.51 625.555 1169.33 625.14 1168.96 624.85C1168.6 624.56 1168.09 624.415 1167.43 624.415C1166.77 624.415 1166.25 624.56 1165.88 624.85C1165.52 625.14 1165.34 625.555 1165.34 626.095V626.305C1165.34 626.845 1165.52 627.26 1165.87 627.55C1166.23 627.84 1166.75 627.985 1167.43 627.985Z" fill="white"/>
</svg>
