<svg width="1311" height="801" viewBox="0 0 1311 801" fill="none" xmlns="http://www.w3.org/2000/svg">
<path d="M922.875 699C922.285 699 921.85 698.835 921.57 698.505C921.3 698.175 921.165 697.75 921.165 697.23V692.28H918.585V691.26H920.505C920.765 691.26 920.945 691.21 921.045 691.11C921.155 691 921.21 690.815 921.21 690.555V688.53H922.365V691.26H925.89V692.28H922.365V697.98H925.89V699H922.875ZM933.324 697.74H933.264C933.184 697.93 933.084 698.115 932.964 698.295C932.844 698.465 932.694 698.615 932.514 698.745C932.344 698.875 932.139 698.98 931.899 699.06C931.659 699.14 931.379 699.18 931.059 699.18C930.249 699.18 929.599 698.925 929.109 698.415C928.619 697.895 928.374 697.165 928.374 696.225V691.26H929.574V696.015C929.574 696.725 929.729 697.255 930.039 697.605C930.349 697.945 930.804 698.115 931.404 698.115C931.644 698.115 931.879 698.085 932.109 698.025C932.339 697.965 932.544 697.875 932.724 697.755C932.904 697.635 933.049 697.485 933.159 697.305C933.269 697.115 933.324 696.89 933.324 696.63V691.26H934.524V699H933.324V697.74ZM937.458 699V691.26H938.658V692.52H938.718C938.798 692.33 938.898 692.15 939.018 691.98C939.138 691.8 939.283 691.645 939.453 691.515C939.633 691.385 939.843 691.28 940.083 691.2C940.323 691.12 940.603 691.08 940.923 691.08C941.733 691.08 942.383 691.34 942.873 691.86C943.363 692.37 943.608 693.095 943.608 694.035V699H942.408V694.245C942.408 693.535 942.253 693.01 941.943 692.67C941.633 692.32 941.178 692.145 940.578 692.145C940.338 692.145 940.103 692.175 939.873 692.235C939.643 692.295 939.438 692.385 939.258 692.505C939.078 692.625 938.933 692.78 938.823 692.97C938.713 693.16 938.658 693.38 938.658 693.63V699H937.458ZM946.452 699V691.26H947.652V692.52H947.712C947.792 692.33 947.892 692.15 948.012 691.98C948.132 691.8 948.277 691.645 948.447 691.515C948.627 691.385 948.837 691.28 949.077 691.2C949.317 691.12 949.597 691.08 949.917 691.08C950.727 691.08 951.377 691.34 951.867 691.86C952.357 692.37 952.602 693.095 952.602 694.035V699H951.402V694.245C951.402 693.535 951.247 693.01 950.937 692.67C950.627 692.32 950.172 692.145 949.572 692.145C949.332 692.145 949.097 692.175 948.867 692.235C948.637 692.295 948.432 692.385 948.252 692.505C948.072 692.625 947.927 692.78 947.817 692.97C947.707 693.16 947.652 693.38 947.652 693.63V699H946.452ZM958.612 699.18C958.052 699.18 957.547 699.085 957.097 698.895C956.657 698.705 956.277 698.435 955.957 698.085C955.647 697.725 955.407 697.3 955.237 696.81C955.067 696.31 954.982 695.755 954.982 695.145C954.982 694.525 955.067 693.965 955.237 693.465C955.417 692.965 955.662 692.54 955.972 692.19C956.282 691.83 956.652 691.555 957.082 691.365C957.522 691.175 958.007 691.08 958.537 691.08C959.057 691.08 959.527 691.175 959.947 691.365C960.377 691.555 960.742 691.82 961.042 692.16C961.342 692.49 961.572 692.885 961.732 693.345C961.892 693.805 961.972 694.31 961.972 694.86V695.43H956.242V695.79C956.242 696.13 956.297 696.445 956.407 696.735C956.517 697.025 956.672 697.275 956.872 697.485C957.082 697.695 957.332 697.86 957.622 697.98C957.922 698.09 958.252 698.145 958.612 698.145C959.132 698.145 959.582 698.025 959.962 697.785C960.342 697.545 960.632 697.215 960.832 696.795L961.717 697.395C961.487 697.915 961.102 698.345 960.562 698.685C960.032 699.015 959.382 699.18 958.612 699.18ZM958.537 692.07C958.207 692.07 957.902 692.13 957.622 692.25C957.342 692.37 957.097 692.535 956.887 692.745C956.687 692.955 956.527 693.205 956.407 693.495C956.297 693.775 956.242 694.085 956.242 694.425V694.53H960.682V694.365C960.682 694.025 960.627 693.715 960.517 693.435C960.417 693.155 960.272 692.915 960.082 692.715C959.902 692.505 959.677 692.345 959.407 692.235C959.147 692.125 958.857 692.07 958.537 692.07ZM964.171 697.98H966.871V688.92H964.171V687.9H968.071V697.98H970.771V699H964.171V697.98ZM985.009 692.97C985.739 692.97 986.284 692.81 986.644 692.49C987.014 692.16 987.199 691.74 987.199 691.23V691.125C987.199 690.565 987.019 690.145 986.659 689.865C986.309 689.585 985.849 689.445 985.279 689.445C984.719 689.445 984.264 689.57 983.914 689.82C983.574 690.06 983.294 690.38 983.074 690.78L982.129 690.06C982.259 689.85 982.419 689.645 982.609 689.445C982.799 689.235 983.019 689.05 983.269 688.89C983.529 688.73 983.824 688.6 984.154 688.5C984.494 688.4 984.879 688.35 985.309 688.35C985.759 688.35 986.179 688.41 986.569 688.53C986.959 688.64 987.299 688.81 987.589 689.04C987.879 689.26 988.104 689.535 988.264 689.865C988.434 690.195 988.519 690.57 988.519 690.99C988.519 691.33 988.464 691.635 988.354 691.905C988.254 692.175 988.109 692.41 987.919 692.61C987.739 692.81 987.524 692.98 987.274 693.12C987.024 693.26 986.759 693.365 986.479 693.435V693.495C986.769 693.555 987.049 693.655 987.319 693.795C987.589 693.925 987.829 694.1 988.039 694.32C988.249 694.53 988.414 694.79 988.534 695.1C988.664 695.4 988.729 695.745 988.729 696.135C988.729 696.585 988.639 697 988.459 697.38C988.289 697.75 988.044 698.07 987.724 698.34C987.414 698.6 987.034 698.805 986.584 698.955C986.144 699.105 985.654 699.18 985.114 699.18C984.654 699.18 984.244 699.13 983.884 699.03C983.534 698.93 983.219 698.795 982.939 698.625C982.669 698.455 982.429 698.265 982.219 698.055C982.019 697.845 981.839 697.625 981.679 697.395L982.624 696.675C982.764 696.885 982.909 697.075 983.059 697.245C983.209 697.415 983.379 697.565 983.569 697.695C983.769 697.815 983.994 697.91 984.244 697.98C984.494 698.05 984.784 698.085 985.114 698.085C985.854 698.085 986.419 697.915 986.809 697.575C987.209 697.235 987.409 696.75 987.409 696.12V696C987.409 695.38 987.214 694.9 986.824 694.56C986.444 694.22 985.869 694.05 985.099 694.05H983.854V692.97H985.009ZM990.853 694.995V693.885H998.053V694.995H990.853ZM1006.99 692.37C1006.99 693.15 1006.87 693.885 1006.63 694.575C1006.4 695.255 1006.1 695.88 1005.73 696.45C1005.36 697.01 1004.95 697.51 1004.5 697.95C1004.06 698.38 1003.62 698.73 1003.19 699H1001.57C1002.14 698.59 1002.65 698.19 1003.09 697.8C1003.54 697.41 1003.93 697.005 1004.27 696.585C1004.61 696.155 1004.9 695.7 1005.13 695.22C1005.36 694.73 1005.55 694.18 1005.7 693.57L1005.62 693.54C1005.36 693.97 1005.03 694.33 1004.62 694.62C1004.22 694.9 1003.69 695.04 1003.04 695.04C1002.58 695.04 1002.16 694.965 1001.77 694.815C1001.39 694.665 1001.06 694.45 1000.78 694.17C1000.51 693.89 1000.29 693.555 1000.13 693.165C999.982 692.765 999.907 692.315 999.907 691.815C999.907 691.305 999.987 690.84 1000.15 690.42C1000.32 689.99 1000.56 689.625 1000.87 689.325C1001.18 689.015 1001.55 688.775 1001.98 688.605C1002.42 688.435 1002.9 688.35 1003.43 688.35C1003.98 688.35 1004.48 688.445 1004.92 688.635C1005.36 688.815 1005.73 689.08 1006.03 689.43C1006.34 689.77 1006.57 690.19 1006.73 690.69C1006.9 691.19 1006.99 691.75 1006.99 692.37ZM1003.45 694.005C1004.17 694.005 1004.72 693.81 1005.11 693.42C1005.51 693.03 1005.71 692.48 1005.71 691.77V691.65C1005.71 690.94 1005.51 690.39 1005.11 690C1004.72 689.61 1004.17 689.415 1003.45 689.415C1002.73 689.415 1002.17 689.61 1001.77 690C1001.38 690.39 1001.18 690.94 1001.18 691.65V691.77C1001.18 692.48 1001.38 693.03 1001.77 693.42C1002.17 693.81 1002.73 694.005 1003.45 694.005ZM1010.27 695.07V693.81H1014.62V695.07H1010.27ZM1018.21 699V697.905H1021.21V689.46H1021.11L1018.47 691.92L1017.73 691.125L1020.51 688.53H1022.47V697.905H1025.23V699H1018.21ZM1030.43 699.18C1029.79 699.18 1029.24 699.06 1028.78 698.82C1028.32 698.57 1027.94 698.215 1027.64 697.755C1027.34 697.295 1027.12 696.73 1026.98 696.06C1026.84 695.39 1026.77 694.625 1026.77 693.765C1026.77 692.915 1026.84 692.155 1026.98 691.485C1027.12 690.805 1027.34 690.235 1027.64 689.775C1027.94 689.315 1028.32 688.965 1028.78 688.725C1029.24 688.475 1029.79 688.35 1030.43 688.35C1031.07 688.35 1031.62 688.475 1032.08 688.725C1032.54 688.965 1032.92 689.315 1033.22 689.775C1033.52 690.235 1033.74 690.805 1033.88 691.485C1034.02 692.155 1034.09 692.915 1034.09 693.765C1034.09 694.625 1034.02 695.39 1033.88 696.06C1033.74 696.73 1033.52 697.295 1033.22 697.755C1032.92 698.215 1032.54 698.57 1032.08 698.82C1031.62 699.06 1031.07 699.18 1030.43 699.18ZM1030.43 698.085C1030.85 698.085 1031.21 698.005 1031.51 697.845C1031.81 697.675 1032.05 697.44 1032.23 697.14C1032.42 696.84 1032.56 696.48 1032.65 696.06C1032.74 695.63 1032.78 695.15 1032.78 694.62V692.91C1032.78 692.39 1032.74 691.915 1032.65 691.485C1032.56 691.055 1032.42 690.69 1032.23 690.39C1032.05 690.09 1031.81 689.86 1031.51 689.7C1031.21 689.53 1030.85 689.445 1030.43 689.445C1030.01 689.445 1029.65 689.53 1029.35 689.7C1029.05 689.86 1028.8 690.09 1028.61 690.39C1028.43 690.69 1028.3 691.055 1028.21 691.485C1028.12 691.915 1028.07 692.39 1028.07 692.91V694.62C1028.07 695.15 1028.12 695.63 1028.21 696.06C1028.3 696.48 1028.43 696.84 1028.61 697.14C1028.8 697.44 1029.05 697.675 1029.35 697.845C1029.65 698.005 1030.01 698.085 1030.43 698.085ZM1030.43 694.65C1030.08 694.65 1029.83 694.58 1029.69 694.44C1029.56 694.3 1029.5 694.13 1029.5 693.93V693.6C1029.5 693.4 1029.56 693.23 1029.69 693.09C1029.83 692.95 1030.08 692.88 1030.43 692.88C1030.78 692.88 1031.02 692.95 1031.15 693.09C1031.29 693.23 1031.36 693.4 1031.36 693.6V693.93C1031.36 694.13 1031.29 694.3 1031.15 694.44C1031.02 694.58 1030.78 694.65 1030.43 694.65Z" fill="white"/>
</svg>
