<svg width="1311" height="801" viewBox="0 0 1311 801" fill="none" xmlns="http://www.w3.org/2000/svg">
<path d="M785.875 760C785.285 760 784.85 759.835 784.57 759.505C784.3 759.175 784.165 758.75 784.165 758.23V753.28H781.585V752.26H783.505C783.765 752.26 783.945 752.21 784.045 752.11C784.155 752 784.21 751.815 784.21 751.555V749.53H785.365V752.26H788.89V753.28H785.365V758.98H788.89V760H785.875ZM796.324 758.74H796.264C796.184 758.93 796.084 759.115 795.964 759.295C795.844 759.465 795.694 759.615 795.514 759.745C795.344 759.875 795.139 759.98 794.899 760.06C794.659 760.14 794.379 760.18 794.059 760.18C793.249 760.18 792.599 759.925 792.109 759.415C791.619 758.895 791.374 758.165 791.374 757.225V752.26H792.574V757.015C792.574 757.725 792.729 758.255 793.039 758.605C793.349 758.945 793.804 759.115 794.404 759.115C794.644 759.115 794.879 759.085 795.109 759.025C795.339 758.965 795.544 758.875 795.724 758.755C795.904 758.635 796.049 758.485 796.159 758.305C796.269 758.115 796.324 757.89 796.324 757.63V752.26H797.524V760H796.324V758.74ZM800.458 760V752.26H801.658V753.52H801.718C801.798 753.33 801.898 753.15 802.018 752.98C802.138 752.8 802.283 752.645 802.453 752.515C802.633 752.385 802.843 752.28 803.083 752.2C803.323 752.12 803.603 752.08 803.923 752.08C804.733 752.08 805.383 752.34 805.873 752.86C806.363 753.37 806.608 754.095 806.608 755.035V760H805.408V755.245C805.408 754.535 805.253 754.01 804.943 753.67C804.633 753.32 804.178 753.145 803.578 753.145C803.338 753.145 803.103 753.175 802.873 753.235C802.643 753.295 802.438 753.385 802.258 753.505C802.078 753.625 801.933 753.78 801.823 753.97C801.713 754.16 801.658 754.38 801.658 754.63V760H800.458ZM809.452 760V752.26H810.652V753.52H810.712C810.792 753.33 810.892 753.15 811.012 752.98C811.132 752.8 811.277 752.645 811.447 752.515C811.627 752.385 811.837 752.28 812.077 752.2C812.317 752.12 812.597 752.08 812.917 752.08C813.727 752.08 814.377 752.34 814.867 752.86C815.357 753.37 815.602 754.095 815.602 755.035V760H814.402V755.245C814.402 754.535 814.247 754.01 813.937 753.67C813.627 753.32 813.172 753.145 812.572 753.145C812.332 753.145 812.097 753.175 811.867 753.235C811.637 753.295 811.432 753.385 811.252 753.505C811.072 753.625 810.927 753.78 810.817 753.97C810.707 754.16 810.652 754.38 810.652 754.63V760H809.452ZM821.612 760.18C821.052 760.18 820.547 760.085 820.097 759.895C819.657 759.705 819.277 759.435 818.957 759.085C818.647 758.725 818.407 758.3 818.237 757.81C818.067 757.31 817.982 756.755 817.982 756.145C817.982 755.525 818.067 754.965 818.237 754.465C818.417 753.965 818.662 753.54 818.972 753.19C819.282 752.83 819.652 752.555 820.082 752.365C820.522 752.175 821.007 752.08 821.537 752.08C822.057 752.08 822.527 752.175 822.947 752.365C823.377 752.555 823.742 752.82 824.042 753.16C824.342 753.49 824.572 753.885 824.732 754.345C824.892 754.805 824.972 755.31 824.972 755.86V756.43H819.242V756.79C819.242 757.13 819.297 757.445 819.407 757.735C819.517 758.025 819.672 758.275 819.872 758.485C820.082 758.695 820.332 758.86 820.622 758.98C820.922 759.09 821.252 759.145 821.612 759.145C822.132 759.145 822.582 759.025 822.962 758.785C823.342 758.545 823.632 758.215 823.832 757.795L824.717 758.395C824.487 758.915 824.102 759.345 823.562 759.685C823.032 760.015 822.382 760.18 821.612 760.18ZM821.537 753.07C821.207 753.07 820.902 753.13 820.622 753.25C820.342 753.37 820.097 753.535 819.887 753.745C819.687 753.955 819.527 754.205 819.407 754.495C819.297 754.775 819.242 755.085 819.242 755.425V755.53H823.682V755.365C823.682 755.025 823.627 754.715 823.517 754.435C823.417 754.155 823.272 753.915 823.082 753.715C822.902 753.505 822.677 753.345 822.407 753.235C822.147 753.125 821.857 753.07 821.537 753.07ZM827.171 758.98H829.871V749.92H827.171V748.9H831.071V758.98H833.771V760H827.171V758.98ZM849.629 760V757.945H844.469V756.835L848.999 749.53H850.829V756.91H852.389V757.945H850.829V760H849.629ZM845.594 756.91H849.629V750.505H849.569L845.594 756.91ZM853.853 755.995V754.885H861.053V755.995H853.853ZM870.002 760H863.012V758.71L866.507 755.56C867.017 755.1 867.437 754.63 867.767 754.15C868.097 753.66 868.262 753.145 868.262 752.605V752.425C868.262 751.795 868.097 751.31 867.767 750.97C867.437 750.62 866.947 750.445 866.297 750.445C865.657 750.445 865.162 750.61 864.812 750.94C864.472 751.26 864.217 751.69 864.047 752.23L862.922 751.81C863.022 751.5 863.157 751.2 863.327 750.91C863.507 750.61 863.732 750.345 864.002 750.115C864.272 749.885 864.597 749.7 864.977 749.56C865.367 749.42 865.817 749.35 866.327 749.35C866.847 749.35 867.307 749.425 867.707 749.575C868.117 749.725 868.457 749.935 868.727 750.205C869.007 750.475 869.217 750.795 869.357 751.165C869.507 751.535 869.582 751.94 869.582 752.38C869.582 752.78 869.522 753.155 869.402 753.505C869.292 753.855 869.132 754.19 868.922 754.51C868.722 754.83 868.477 755.145 868.187 755.455C867.907 755.755 867.592 756.055 867.242 756.355L864.317 758.905H870.002V760ZM873.266 756.07V754.81H877.616V756.07H873.266ZM884.436 760.18C883.796 760.18 883.246 760.06 882.786 759.82C882.326 759.57 881.946 759.215 881.646 758.755C881.346 758.295 881.126 757.73 880.986 757.06C880.846 756.39 880.776 755.625 880.776 754.765C880.776 753.915 880.846 753.155 880.986 752.485C881.126 751.805 881.346 751.235 881.646 750.775C881.946 750.315 882.326 749.965 882.786 749.725C883.246 749.475 883.796 749.35 884.436 749.35C885.076 749.35 885.626 749.475 886.086 749.725C886.546 749.965 886.926 750.315 887.226 750.775C887.526 751.235 887.746 751.805 887.886 752.485C888.026 753.155 888.096 753.915 888.096 754.765C888.096 755.625 888.026 756.39 887.886 757.06C887.746 757.73 887.526 758.295 887.226 758.755C886.926 759.215 886.546 759.57 886.086 759.82C885.626 760.06 885.076 760.18 884.436 760.18ZM884.436 759.085C884.856 759.085 885.216 759.005 885.516 758.845C885.816 758.675 886.056 758.44 886.236 758.14C886.426 757.84 886.566 757.48 886.656 757.06C886.746 756.63 886.791 756.15 886.791 755.62V753.91C886.791 753.39 886.746 752.915 886.656 752.485C886.566 752.055 886.426 751.69 886.236 751.39C886.056 751.09 885.816 750.86 885.516 750.7C885.216 750.53 884.856 750.445 884.436 750.445C884.016 750.445 883.656 750.53 883.356 750.7C883.056 750.86 882.811 751.09 882.621 751.39C882.441 751.69 882.306 752.055 882.216 752.485C882.126 752.915 882.081 753.39 882.081 753.91V755.62C882.081 756.15 882.126 756.63 882.216 757.06C882.306 757.48 882.441 757.84 882.621 758.14C882.811 758.44 883.056 758.675 883.356 758.845C883.656 759.005 884.016 759.085 884.436 759.085ZM884.436 755.65C884.086 755.65 883.841 755.58 883.701 755.44C883.571 755.3 883.506 755.13 883.506 754.93V754.6C883.506 754.4 883.571 754.23 883.701 754.09C883.841 753.95 884.086 753.88 884.436 753.88C884.786 753.88 885.026 753.95 885.156 754.09C885.296 754.23 885.366 754.4 885.366 754.6V754.93C885.366 755.13 885.296 755.3 885.156 755.44C885.026 755.58 884.786 755.65 884.436 755.65ZM892.98 753.97C893.71 753.97 894.255 753.81 894.615 753.49C894.985 753.16 895.17 752.74 895.17 752.23V752.125C895.17 751.565 894.99 751.145 894.63 750.865C894.28 750.585 893.82 750.445 893.25 750.445C892.69 750.445 892.235 750.57 891.885 750.82C891.545 751.06 891.265 751.38 891.045 751.78L890.1 751.06C890.23 750.85 890.39 750.645 890.58 750.445C890.77 750.235 890.99 750.05 891.24 749.89C891.5 749.73 891.795 749.6 892.125 749.5C892.465 749.4 892.85 749.35 893.28 749.35C893.73 749.35 894.15 749.41 894.54 749.53C894.93 749.64 895.27 749.81 895.56 750.04C895.85 750.26 896.075 750.535 896.235 750.865C896.405 751.195 896.49 751.57 896.49 751.99C896.49 752.33 896.435 752.635 896.325 752.905C896.225 753.175 896.08 753.41 895.89 753.61C895.71 753.81 895.495 753.98 895.245 754.12C894.995 754.26 894.73 754.365 894.45 754.435V754.495C894.74 754.555 895.02 754.655 895.29 754.795C895.56 754.925 895.8 755.1 896.01 755.32C896.22 755.53 896.385 755.79 896.505 756.1C896.635 756.4 896.7 756.745 896.7 757.135C896.7 757.585 896.61 758 896.43 758.38C896.26 758.75 896.015 759.07 895.695 759.34C895.385 759.6 895.005 759.805 894.555 759.955C894.115 760.105 893.625 760.18 893.085 760.18C892.625 760.18 892.215 760.13 891.855 760.03C891.505 759.93 891.19 759.795 890.91 759.625C890.64 759.455 890.4 759.265 890.19 759.055C889.99 758.845 889.81 758.625 889.65 758.395L890.595 757.675C890.735 757.885 890.88 758.075 891.03 758.245C891.18 758.415 891.35 758.565 891.54 758.695C891.74 758.815 891.965 758.91 892.215 758.98C892.465 759.05 892.755 759.085 893.085 759.085C893.825 759.085 894.39 758.915 894.78 758.575C895.18 758.235 895.38 757.75 895.38 757.12V757C895.38 756.38 895.185 755.9 894.795 755.56C894.415 755.22 893.84 755.05 893.07 755.05H891.825V753.97H892.98Z" fill="white"/>
</svg>
