<svg width="1311" height="801" viewBox="0 0 1311 801" fill="none" xmlns="http://www.w3.org/2000/svg">
<path d="M426.875 760C426.285 760 425.85 759.835 425.57 759.505C425.3 759.175 425.165 758.75 425.165 758.23V753.28H422.585V752.26H424.505C424.765 752.26 424.945 752.21 425.045 752.11C425.155 752 425.21 751.815 425.21 751.555V749.53H426.365V752.26H429.89V753.28H426.365V758.98H429.89V760H426.875ZM437.324 758.74H437.264C437.184 758.93 437.084 759.115 436.964 759.295C436.844 759.465 436.694 759.615 436.514 759.745C436.344 759.875 436.139 759.98 435.899 760.06C435.659 760.14 435.379 760.18 435.059 760.18C434.249 760.18 433.599 759.925 433.109 759.415C432.619 758.895 432.374 758.165 432.374 757.225V752.26H433.574V757.015C433.574 757.725 433.729 758.255 434.039 758.605C434.349 758.945 434.804 759.115 435.404 759.115C435.644 759.115 435.879 759.085 436.109 759.025C436.339 758.965 436.544 758.875 436.724 758.755C436.904 758.635 437.049 758.485 437.159 758.305C437.269 758.115 437.324 757.89 437.324 757.63V752.26H438.524V760H437.324V758.74ZM441.458 760V752.26H442.658V753.52H442.718C442.798 753.33 442.898 753.15 443.018 752.98C443.138 752.8 443.283 752.645 443.453 752.515C443.633 752.385 443.843 752.28 444.083 752.2C444.323 752.12 444.603 752.08 444.923 752.08C445.733 752.08 446.383 752.34 446.873 752.86C447.363 753.37 447.608 754.095 447.608 755.035V760H446.408V755.245C446.408 754.535 446.253 754.01 445.943 753.67C445.633 753.32 445.178 753.145 444.578 753.145C444.338 753.145 444.103 753.175 443.873 753.235C443.643 753.295 443.438 753.385 443.258 753.505C443.078 753.625 442.933 753.78 442.823 753.97C442.713 754.16 442.658 754.38 442.658 754.63V760H441.458ZM450.452 760V752.26H451.652V753.52H451.712C451.792 753.33 451.892 753.15 452.012 752.98C452.132 752.8 452.277 752.645 452.447 752.515C452.627 752.385 452.837 752.28 453.077 752.2C453.317 752.12 453.597 752.08 453.917 752.08C454.727 752.08 455.377 752.34 455.867 752.86C456.357 753.37 456.602 754.095 456.602 755.035V760H455.402V755.245C455.402 754.535 455.247 754.01 454.937 753.67C454.627 753.32 454.172 753.145 453.572 753.145C453.332 753.145 453.097 753.175 452.867 753.235C452.637 753.295 452.432 753.385 452.252 753.505C452.072 753.625 451.927 753.78 451.817 753.97C451.707 754.16 451.652 754.38 451.652 754.63V760H450.452ZM462.612 760.18C462.052 760.18 461.547 760.085 461.097 759.895C460.657 759.705 460.277 759.435 459.957 759.085C459.647 758.725 459.407 758.3 459.237 757.81C459.067 757.31 458.982 756.755 458.982 756.145C458.982 755.525 459.067 754.965 459.237 754.465C459.417 753.965 459.662 753.54 459.972 753.19C460.282 752.83 460.652 752.555 461.082 752.365C461.522 752.175 462.007 752.08 462.537 752.08C463.057 752.08 463.527 752.175 463.947 752.365C464.377 752.555 464.742 752.82 465.042 753.16C465.342 753.49 465.572 753.885 465.732 754.345C465.892 754.805 465.972 755.31 465.972 755.86V756.43H460.242V756.79C460.242 757.13 460.297 757.445 460.407 757.735C460.517 758.025 460.672 758.275 460.872 758.485C461.082 758.695 461.332 758.86 461.622 758.98C461.922 759.09 462.252 759.145 462.612 759.145C463.132 759.145 463.582 759.025 463.962 758.785C464.342 758.545 464.632 758.215 464.832 757.795L465.717 758.395C465.487 758.915 465.102 759.345 464.562 759.685C464.032 760.015 463.382 760.18 462.612 760.18ZM462.537 753.07C462.207 753.07 461.902 753.13 461.622 753.25C461.342 753.37 461.097 753.535 460.887 753.745C460.687 753.955 460.527 754.205 460.407 754.495C460.297 754.775 460.242 755.085 460.242 755.425V755.53H464.682V755.365C464.682 755.025 464.627 754.715 464.517 754.435C464.417 754.155 464.272 753.915 464.082 753.715C463.902 753.505 463.677 753.345 463.407 753.235C463.147 753.125 462.857 753.07 462.537 753.07ZM468.171 758.98H470.871V749.92H468.171V748.9H472.071V758.98H474.771V760H468.171V758.98ZM490.629 760V757.945H485.469V756.835L489.999 749.53H491.829V756.91H493.389V757.945H491.829V760H490.629ZM486.594 756.91H490.629V750.505H490.569L486.594 756.91ZM494.853 755.995V754.885H502.053V755.995H494.853ZM510.462 750.625H505.782L505.482 754.63H505.587C505.847 754.28 506.137 754.005 506.457 753.805C506.777 753.595 507.217 753.49 507.777 753.49C508.237 753.49 508.657 753.565 509.037 753.715C509.427 753.855 509.762 754.065 510.042 754.345C510.322 754.625 510.542 754.965 510.702 755.365C510.862 755.755 510.942 756.205 510.942 756.715C510.942 757.225 510.862 757.695 510.702 758.125C510.542 758.545 510.307 758.91 509.997 759.22C509.687 759.52 509.312 759.755 508.872 759.925C508.432 760.095 507.932 760.18 507.372 760.18C506.932 760.18 506.537 760.13 506.187 760.03C505.847 759.93 505.542 759.795 505.272 759.625C505.012 759.455 504.782 759.265 504.582 759.055C504.382 758.845 504.202 758.625 504.042 758.395L504.987 757.675C505.127 757.885 505.267 758.075 505.407 758.245C505.557 758.415 505.727 758.565 505.917 758.695C506.107 758.815 506.322 758.91 506.562 758.98C506.802 759.05 507.082 759.085 507.402 759.085C508.122 759.085 508.672 758.89 509.052 758.5C509.442 758.11 509.637 757.57 509.637 756.88V756.76C509.637 756.07 509.442 755.53 509.052 755.14C508.662 754.75 508.102 754.555 507.372 754.555C506.872 754.555 506.482 754.64 506.202 754.81C505.932 754.98 505.682 755.19 505.452 755.44L504.387 755.29L504.762 749.53H510.462V750.625ZM514.266 756.07V754.81H518.616V756.07H514.266ZM525.436 760.18C524.796 760.18 524.246 760.06 523.786 759.82C523.326 759.57 522.946 759.215 522.646 758.755C522.346 758.295 522.126 757.73 521.986 757.06C521.846 756.39 521.776 755.625 521.776 754.765C521.776 753.915 521.846 753.155 521.986 752.485C522.126 751.805 522.346 751.235 522.646 750.775C522.946 750.315 523.326 749.965 523.786 749.725C524.246 749.475 524.796 749.35 525.436 749.35C526.076 749.35 526.626 749.475 527.086 749.725C527.546 749.965 527.926 750.315 528.226 750.775C528.526 751.235 528.746 751.805 528.886 752.485C529.026 753.155 529.096 753.915 529.096 754.765C529.096 755.625 529.026 756.39 528.886 757.06C528.746 757.73 528.526 758.295 528.226 758.755C527.926 759.215 527.546 759.57 527.086 759.82C526.626 760.06 526.076 760.18 525.436 760.18ZM525.436 759.085C525.856 759.085 526.216 759.005 526.516 758.845C526.816 758.675 527.056 758.44 527.236 758.14C527.426 757.84 527.566 757.48 527.656 757.06C527.746 756.63 527.791 756.15 527.791 755.62V753.91C527.791 753.39 527.746 752.915 527.656 752.485C527.566 752.055 527.426 751.69 527.236 751.39C527.056 751.09 526.816 750.86 526.516 750.7C526.216 750.53 525.856 750.445 525.436 750.445C525.016 750.445 524.656 750.53 524.356 750.7C524.056 750.86 523.811 751.09 523.621 751.39C523.441 751.69 523.306 752.055 523.216 752.485C523.126 752.915 523.081 753.39 523.081 753.91V755.62C523.081 756.15 523.126 756.63 523.216 757.06C523.306 757.48 523.441 757.84 523.621 758.14C523.811 758.44 524.056 758.675 524.356 758.845C524.656 759.005 525.016 759.085 525.436 759.085ZM525.436 755.65C525.086 755.65 524.841 755.58 524.701 755.44C524.571 755.3 524.506 755.13 524.506 754.93V754.6C524.506 754.4 524.571 754.23 524.701 754.09C524.841 753.95 525.086 753.88 525.436 753.88C525.786 753.88 526.026 753.95 526.156 754.09C526.296 754.23 526.366 754.4 526.366 754.6V754.93C526.366 755.13 526.296 755.3 526.156 755.44C526.026 755.58 525.786 755.65 525.436 755.65ZM532.525 760L536.62 750.61H532.03V752.56H530.905V749.53H537.895V750.64L533.875 760H532.525Z" fill="white"/>
</svg>
