<svg width="1311" height="801" viewBox="0 0 1311 801" fill="none" xmlns="http://www.w3.org/2000/svg">
<path d="M289.875 699C289.285 699 288.85 698.835 288.57 698.505C288.3 698.175 288.165 697.75 288.165 697.23V692.28H285.585V691.26H287.505C287.765 691.26 287.945 691.21 288.045 691.11C288.155 691 288.21 690.815 288.21 690.555V688.53H289.365V691.26H292.89V692.28H289.365V697.98H292.89V699H289.875ZM300.324 697.74H300.264C300.184 697.93 300.084 698.115 299.964 698.295C299.844 698.465 299.694 698.615 299.514 698.745C299.344 698.875 299.139 698.98 298.899 699.06C298.659 699.14 298.379 699.18 298.059 699.18C297.249 699.18 296.599 698.925 296.109 698.415C295.619 697.895 295.374 697.165 295.374 696.225V691.26H296.574V696.015C296.574 696.725 296.729 697.255 297.039 697.605C297.349 697.945 297.804 698.115 298.404 698.115C298.644 698.115 298.879 698.085 299.109 698.025C299.339 697.965 299.544 697.875 299.724 697.755C299.904 697.635 300.049 697.485 300.159 697.305C300.269 697.115 300.324 696.89 300.324 696.63V691.26H301.524V699H300.324V697.74ZM304.458 699V691.26H305.658V692.52H305.718C305.798 692.33 305.898 692.15 306.018 691.98C306.138 691.8 306.283 691.645 306.453 691.515C306.633 691.385 306.843 691.28 307.083 691.2C307.323 691.12 307.603 691.08 307.923 691.08C308.733 691.08 309.383 691.34 309.873 691.86C310.363 692.37 310.608 693.095 310.608 694.035V699H309.408V694.245C309.408 693.535 309.253 693.01 308.943 692.67C308.633 692.32 308.178 692.145 307.578 692.145C307.338 692.145 307.103 692.175 306.873 692.235C306.643 692.295 306.438 692.385 306.258 692.505C306.078 692.625 305.933 692.78 305.823 692.97C305.713 693.16 305.658 693.38 305.658 693.63V699H304.458ZM313.452 699V691.26H314.652V692.52H314.712C314.792 692.33 314.892 692.15 315.012 691.98C315.132 691.8 315.277 691.645 315.447 691.515C315.627 691.385 315.837 691.28 316.077 691.2C316.317 691.12 316.597 691.08 316.917 691.08C317.727 691.08 318.377 691.34 318.867 691.86C319.357 692.37 319.602 693.095 319.602 694.035V699H318.402V694.245C318.402 693.535 318.247 693.01 317.937 692.67C317.627 692.32 317.172 692.145 316.572 692.145C316.332 692.145 316.097 692.175 315.867 692.235C315.637 692.295 315.432 692.385 315.252 692.505C315.072 692.625 314.927 692.78 314.817 692.97C314.707 693.16 314.652 693.38 314.652 693.63V699H313.452ZM325.612 699.18C325.052 699.18 324.547 699.085 324.097 698.895C323.657 698.705 323.277 698.435 322.957 698.085C322.647 697.725 322.407 697.3 322.237 696.81C322.067 696.31 321.982 695.755 321.982 695.145C321.982 694.525 322.067 693.965 322.237 693.465C322.417 692.965 322.662 692.54 322.972 692.19C323.282 691.83 323.652 691.555 324.082 691.365C324.522 691.175 325.007 691.08 325.537 691.08C326.057 691.08 326.527 691.175 326.947 691.365C327.377 691.555 327.742 691.82 328.042 692.16C328.342 692.49 328.572 692.885 328.732 693.345C328.892 693.805 328.972 694.31 328.972 694.86V695.43H323.242V695.79C323.242 696.13 323.297 696.445 323.407 696.735C323.517 697.025 323.672 697.275 323.872 697.485C324.082 697.695 324.332 697.86 324.622 697.98C324.922 698.09 325.252 698.145 325.612 698.145C326.132 698.145 326.582 698.025 326.962 697.785C327.342 697.545 327.632 697.215 327.832 696.795L328.717 697.395C328.487 697.915 328.102 698.345 327.562 698.685C327.032 699.015 326.382 699.18 325.612 699.18ZM325.537 692.07C325.207 692.07 324.902 692.13 324.622 692.25C324.342 692.37 324.097 692.535 323.887 692.745C323.687 692.955 323.527 693.205 323.407 693.495C323.297 693.775 323.242 694.085 323.242 694.425V694.53H327.682V694.365C327.682 694.025 327.627 693.715 327.517 693.435C327.417 693.155 327.272 692.915 327.082 692.715C326.902 692.505 326.677 692.345 326.407 692.235C326.147 692.125 325.857 692.07 325.537 692.07ZM331.171 697.98H333.871V688.92H331.171V687.9H335.071V697.98H337.771V699H331.171V697.98ZM355.474 689.625H350.794L350.494 693.63H350.599C350.859 693.28 351.149 693.005 351.469 692.805C351.789 692.595 352.229 692.49 352.789 692.49C353.249 692.49 353.669 692.565 354.049 692.715C354.439 692.855 354.774 693.065 355.054 693.345C355.334 693.625 355.554 693.965 355.714 694.365C355.874 694.755 355.954 695.205 355.954 695.715C355.954 696.225 355.874 696.695 355.714 697.125C355.554 697.545 355.319 697.91 355.009 698.22C354.699 698.52 354.324 698.755 353.884 698.925C353.444 699.095 352.944 699.18 352.384 699.18C351.944 699.18 351.549 699.13 351.199 699.03C350.859 698.93 350.554 698.795 350.284 698.625C350.024 698.455 349.794 698.265 349.594 698.055C349.394 697.845 349.214 697.625 349.054 697.395L349.999 696.675C350.139 696.885 350.279 697.075 350.419 697.245C350.569 697.415 350.739 697.565 350.929 697.695C351.119 697.815 351.334 697.91 351.574 697.98C351.814 698.05 352.094 698.085 352.414 698.085C353.134 698.085 353.684 697.89 354.064 697.5C354.454 697.11 354.649 696.57 354.649 695.88V695.76C354.649 695.07 354.454 694.53 354.064 694.14C353.674 693.75 353.114 693.555 352.384 693.555C351.884 693.555 351.494 693.64 351.214 693.81C350.944 693.98 350.694 694.19 350.464 694.44L349.399 694.29L349.774 688.53H355.474V689.625ZM357.853 694.995V693.885H365.053V694.995H357.853ZM374.002 699H367.012V697.71L370.507 694.56C371.017 694.1 371.437 693.63 371.767 693.15C372.097 692.66 372.262 692.145 372.262 691.605V691.425C372.262 690.795 372.097 690.31 371.767 689.97C371.437 689.62 370.947 689.445 370.297 689.445C369.657 689.445 369.162 689.61 368.812 689.94C368.472 690.26 368.217 690.69 368.047 691.23L366.922 690.81C367.022 690.5 367.157 690.2 367.327 689.91C367.507 689.61 367.732 689.345 368.002 689.115C368.272 688.885 368.597 688.7 368.977 688.56C369.367 688.42 369.817 688.35 370.327 688.35C370.847 688.35 371.307 688.425 371.707 688.575C372.117 688.725 372.457 688.935 372.727 689.205C373.007 689.475 373.217 689.795 373.357 690.165C373.507 690.535 373.582 690.94 373.582 691.38C373.582 691.78 373.522 692.155 373.402 692.505C373.292 692.855 373.132 693.19 372.922 693.51C372.722 693.83 372.477 694.145 372.187 694.455C371.907 694.755 371.592 695.055 371.242 695.355L368.317 697.905H374.002V699ZM377.266 695.07V693.81H381.616V695.07H377.266ZM388.436 699.18C387.796 699.18 387.246 699.06 386.786 698.82C386.326 698.57 385.946 698.215 385.646 697.755C385.346 697.295 385.126 696.73 384.986 696.06C384.846 695.39 384.776 694.625 384.776 693.765C384.776 692.915 384.846 692.155 384.986 691.485C385.126 690.805 385.346 690.235 385.646 689.775C385.946 689.315 386.326 688.965 386.786 688.725C387.246 688.475 387.796 688.35 388.436 688.35C389.076 688.35 389.626 688.475 390.086 688.725C390.546 688.965 390.926 689.315 391.226 689.775C391.526 690.235 391.746 690.805 391.886 691.485C392.026 692.155 392.096 692.915 392.096 693.765C392.096 694.625 392.026 695.39 391.886 696.06C391.746 696.73 391.526 697.295 391.226 697.755C390.926 698.215 390.546 698.57 390.086 698.82C389.626 699.06 389.076 699.18 388.436 699.18ZM388.436 698.085C388.856 698.085 389.216 698.005 389.516 697.845C389.816 697.675 390.056 697.44 390.236 697.14C390.426 696.84 390.566 696.48 390.656 696.06C390.746 695.63 390.791 695.15 390.791 694.62V692.91C390.791 692.39 390.746 691.915 390.656 691.485C390.566 691.055 390.426 690.69 390.236 690.39C390.056 690.09 389.816 689.86 389.516 689.7C389.216 689.53 388.856 689.445 388.436 689.445C388.016 689.445 387.656 689.53 387.356 689.7C387.056 689.86 386.811 690.09 386.621 690.39C386.441 690.69 386.306 691.055 386.216 691.485C386.126 691.915 386.081 692.39 386.081 692.91V694.62C386.081 695.15 386.126 695.63 386.216 696.06C386.306 696.48 386.441 696.84 386.621 697.14C386.811 697.44 387.056 697.675 387.356 697.845C387.656 698.005 388.016 698.085 388.436 698.085ZM388.436 694.65C388.086 694.65 387.841 694.58 387.701 694.44C387.571 694.3 387.506 694.13 387.506 693.93V693.6C387.506 693.4 387.571 693.23 387.701 693.09C387.841 692.95 388.086 692.88 388.436 692.88C388.786 692.88 389.026 692.95 389.156 693.09C389.296 693.23 389.366 693.4 389.366 693.6V693.93C389.366 694.13 389.296 694.3 389.156 694.44C389.026 694.58 388.786 694.65 388.436 694.65ZM396.98 692.97C397.71 692.97 398.255 692.81 398.615 692.49C398.985 692.16 399.17 691.74 399.17 691.23V691.125C399.17 690.565 398.99 690.145 398.63 689.865C398.28 689.585 397.82 689.445 397.25 689.445C396.69 689.445 396.235 689.57 395.885 689.82C395.545 690.06 395.265 690.38 395.045 690.78L394.1 690.06C394.23 689.85 394.39 689.645 394.58 689.445C394.77 689.235 394.99 689.05 395.24 688.89C395.5 688.73 395.795 688.6 396.125 688.5C396.465 688.4 396.85 688.35 397.28 688.35C397.73 688.35 398.15 688.41 398.54 688.53C398.93 688.64 399.27 688.81 399.56 689.04C399.85 689.26 400.075 689.535 400.235 689.865C400.405 690.195 400.49 690.57 400.49 690.99C400.49 691.33 400.435 691.635 400.325 691.905C400.225 692.175 400.08 692.41 399.89 692.61C399.71 692.81 399.495 692.98 399.245 693.12C398.995 693.26 398.73 693.365 398.45 693.435V693.495C398.74 693.555 399.02 693.655 399.29 693.795C399.56 693.925 399.8 694.1 400.01 694.32C400.22 694.53 400.385 694.79 400.505 695.1C400.635 695.4 400.7 695.745 400.7 696.135C400.7 696.585 400.61 697 400.43 697.38C400.26 697.75 400.015 698.07 399.695 698.34C399.385 698.6 399.005 698.805 398.555 698.955C398.115 699.105 397.625 699.18 397.085 699.18C396.625 699.18 396.215 699.13 395.855 699.03C395.505 698.93 395.19 698.795 394.91 698.625C394.64 698.455 394.4 698.265 394.19 698.055C393.99 697.845 393.81 697.625 393.65 697.395L394.595 696.675C394.735 696.885 394.88 697.075 395.03 697.245C395.18 697.415 395.35 697.565 395.54 697.695C395.74 697.815 395.965 697.91 396.215 697.98C396.465 698.05 396.755 698.085 397.085 698.085C397.825 698.085 398.39 697.915 398.78 697.575C399.18 697.235 399.38 696.75 399.38 696.12V696C399.38 695.38 399.185 694.9 398.795 694.56C398.415 694.22 397.84 694.05 397.07 694.05H395.825V692.97H396.98Z" fill="white"/>
</svg>
