<svg width="1311" height="801" viewBox="0 0 1311 801" fill="none" xmlns="http://www.w3.org/2000/svg">
<path d="M152.875 634C152.285 634 151.85 633.835 151.57 633.505C151.3 633.175 151.165 632.75 151.165 632.23V627.28H148.585V626.26H150.505C150.765 626.26 150.945 626.21 151.045 626.11C151.155 626 151.21 625.815 151.21 625.555V623.53H152.365V626.26H155.89V627.28H152.365V632.98H155.89V634H152.875ZM163.324 632.74H163.264C163.184 632.93 163.084 633.115 162.964 633.295C162.844 633.465 162.694 633.615 162.514 633.745C162.344 633.875 162.139 633.98 161.899 634.06C161.659 634.14 161.379 634.18 161.059 634.18C160.249 634.18 159.599 633.925 159.109 633.415C158.619 632.895 158.374 632.165 158.374 631.225V626.26H159.574V631.015C159.574 631.725 159.729 632.255 160.039 632.605C160.349 632.945 160.804 633.115 161.404 633.115C161.644 633.115 161.879 633.085 162.109 633.025C162.339 632.965 162.544 632.875 162.724 632.755C162.904 632.635 163.049 632.485 163.159 632.305C163.269 632.115 163.324 631.89 163.324 631.63V626.26H164.524V634H163.324V632.74ZM167.458 634V626.26H168.658V627.52H168.718C168.798 627.33 168.898 627.15 169.018 626.98C169.138 626.8 169.283 626.645 169.453 626.515C169.633 626.385 169.843 626.28 170.083 626.2C170.323 626.12 170.603 626.08 170.923 626.08C171.733 626.08 172.383 626.34 172.873 626.86C173.363 627.37 173.608 628.095 173.608 629.035V634H172.408V629.245C172.408 628.535 172.253 628.01 171.943 627.67C171.633 627.32 171.178 627.145 170.578 627.145C170.338 627.145 170.103 627.175 169.873 627.235C169.643 627.295 169.438 627.385 169.258 627.505C169.078 627.625 168.933 627.78 168.823 627.97C168.713 628.16 168.658 628.38 168.658 628.63V634H167.458ZM176.452 634V626.26H177.652V627.52H177.712C177.792 627.33 177.892 627.15 178.012 626.98C178.132 626.8 178.277 626.645 178.447 626.515C178.627 626.385 178.837 626.28 179.077 626.2C179.317 626.12 179.597 626.08 179.917 626.08C180.727 626.08 181.377 626.34 181.867 626.86C182.357 627.37 182.602 628.095 182.602 629.035V634H181.402V629.245C181.402 628.535 181.247 628.01 180.937 627.67C180.627 627.32 180.172 627.145 179.572 627.145C179.332 627.145 179.097 627.175 178.867 627.235C178.637 627.295 178.432 627.385 178.252 627.505C178.072 627.625 177.927 627.78 177.817 627.97C177.707 628.16 177.652 628.38 177.652 628.63V634H176.452ZM188.612 634.18C188.052 634.18 187.547 634.085 187.097 633.895C186.657 633.705 186.277 633.435 185.957 633.085C185.647 632.725 185.407 632.3 185.237 631.81C185.067 631.31 184.982 630.755 184.982 630.145C184.982 629.525 185.067 628.965 185.237 628.465C185.417 627.965 185.662 627.54 185.972 627.19C186.282 626.83 186.652 626.555 187.082 626.365C187.522 626.175 188.007 626.08 188.537 626.08C189.057 626.08 189.527 626.175 189.947 626.365C190.377 626.555 190.742 626.82 191.042 627.16C191.342 627.49 191.572 627.885 191.732 628.345C191.892 628.805 191.972 629.31 191.972 629.86V630.43H186.242V630.79C186.242 631.13 186.297 631.445 186.407 631.735C186.517 632.025 186.672 632.275 186.872 632.485C187.082 632.695 187.332 632.86 187.622 632.98C187.922 633.09 188.252 633.145 188.612 633.145C189.132 633.145 189.582 633.025 189.962 632.785C190.342 632.545 190.632 632.215 190.832 631.795L191.717 632.395C191.487 632.915 191.102 633.345 190.562 633.685C190.032 634.015 189.382 634.18 188.612 634.18ZM188.537 627.07C188.207 627.07 187.902 627.13 187.622 627.25C187.342 627.37 187.097 627.535 186.887 627.745C186.687 627.955 186.527 628.205 186.407 628.495C186.297 628.775 186.242 629.085 186.242 629.425V629.53H190.682V629.365C190.682 629.025 190.627 628.715 190.517 628.435C190.417 628.155 190.272 627.915 190.082 627.715C189.902 627.505 189.677 627.345 189.407 627.235C189.147 627.125 188.857 627.07 188.537 627.07ZM194.171 632.98H196.871V623.92H194.171V622.9H198.071V632.98H200.771V634H194.171V632.98ZM218.474 624.625H213.794L213.494 628.63H213.599C213.859 628.28 214.149 628.005 214.469 627.805C214.789 627.595 215.229 627.49 215.789 627.49C216.249 627.49 216.669 627.565 217.049 627.715C217.439 627.855 217.774 628.065 218.054 628.345C218.334 628.625 218.554 628.965 218.714 629.365C218.874 629.755 218.954 630.205 218.954 630.715C218.954 631.225 218.874 631.695 218.714 632.125C218.554 632.545 218.319 632.91 218.009 633.22C217.699 633.52 217.324 633.755 216.884 633.925C216.444 634.095 215.944 634.18 215.384 634.18C214.944 634.18 214.549 634.13 214.199 634.03C213.859 633.93 213.554 633.795 213.284 633.625C213.024 633.455 212.794 633.265 212.594 633.055C212.394 632.845 212.214 632.625 212.054 632.395L212.999 631.675C213.139 631.885 213.279 632.075 213.419 632.245C213.569 632.415 213.739 632.565 213.929 632.695C214.119 632.815 214.334 632.91 214.574 632.98C214.814 633.05 215.094 633.085 215.414 633.085C216.134 633.085 216.684 632.89 217.064 632.5C217.454 632.11 217.649 631.57 217.649 630.88V630.76C217.649 630.07 217.454 629.53 217.064 629.14C216.674 628.75 216.114 628.555 215.384 628.555C214.884 628.555 214.494 628.64 214.214 628.81C213.944 628.98 213.694 629.19 213.464 629.44L212.399 629.29L212.774 623.53H218.474V624.625ZM220.853 629.995V628.885H228.053V629.995H220.853ZM233.462 634.18C232.912 634.18 232.417 634.09 231.977 633.91C231.537 633.72 231.162 633.455 230.852 633.115C230.552 632.765 230.317 632.34 230.147 631.84C229.987 631.34 229.907 630.78 229.907 630.16C229.907 629.38 230.022 628.65 230.252 627.97C230.492 627.28 230.792 626.655 231.152 626.095C231.522 625.525 231.932 625.025 232.382 624.595C232.832 624.155 233.272 623.8 233.702 623.53H235.322C234.752 623.94 234.242 624.34 233.792 624.73C233.352 625.12 232.962 625.53 232.622 625.96C232.282 626.38 231.997 626.835 231.767 627.325C231.537 627.805 231.347 628.35 231.197 628.96L231.272 628.99C231.522 628.56 231.852 628.205 232.262 627.925C232.672 627.635 233.202 627.49 233.852 627.49C234.312 627.49 234.732 627.565 235.112 627.715C235.492 627.865 235.822 628.08 236.102 628.36C236.382 628.64 236.597 628.98 236.747 629.38C236.907 629.78 236.987 630.225 236.987 630.715C236.987 631.225 236.902 631.695 236.732 632.125C236.562 632.545 236.322 632.91 236.012 633.22C235.712 633.52 235.342 633.755 234.902 633.925C234.472 634.095 233.992 634.18 233.462 634.18ZM233.447 633.115C234.167 633.115 234.722 632.92 235.112 632.53C235.512 632.14 235.712 631.59 235.712 630.88V630.76C235.712 630.05 235.512 629.5 235.112 629.11C234.722 628.72 234.167 628.525 233.447 628.525C232.727 628.525 232.167 628.72 231.767 629.11C231.377 629.5 231.182 630.05 231.182 630.76V630.88C231.182 631.59 231.377 632.14 231.767 632.53C232.167 632.92 232.727 633.115 233.447 633.115ZM240.266 630.07V628.81H244.616V630.07H240.266ZM251.436 634.18C250.796 634.18 250.246 634.06 249.786 633.82C249.326 633.57 248.946 633.215 248.646 632.755C248.346 632.295 248.126 631.73 247.986 631.06C247.846 630.39 247.776 629.625 247.776 628.765C247.776 627.915 247.846 627.155 247.986 626.485C248.126 625.805 248.346 625.235 248.646 624.775C248.946 624.315 249.326 623.965 249.786 623.725C250.246 623.475 250.796 623.35 251.436 623.35C252.076 623.35 252.626 623.475 253.086 623.725C253.546 623.965 253.926 624.315 254.226 624.775C254.526 625.235 254.746 625.805 254.886 626.485C255.026 627.155 255.096 627.915 255.096 628.765C255.096 629.625 255.026 630.39 254.886 631.06C254.746 631.73 254.526 632.295 254.226 632.755C253.926 633.215 253.546 633.57 253.086 633.82C252.626 634.06 252.076 634.18 251.436 634.18ZM251.436 633.085C251.856 633.085 252.216 633.005 252.516 632.845C252.816 632.675 253.056 632.44 253.236 632.14C253.426 631.84 253.566 631.48 253.656 631.06C253.746 630.63 253.791 630.15 253.791 629.62V627.91C253.791 627.39 253.746 626.915 253.656 626.485C253.566 626.055 253.426 625.69 253.236 625.39C253.056 625.09 252.816 624.86 252.516 624.7C252.216 624.53 251.856 624.445 251.436 624.445C251.016 624.445 250.656 624.53 250.356 624.7C250.056 624.86 249.811 625.09 249.621 625.39C249.441 625.69 249.306 626.055 249.216 626.485C249.126 626.915 249.081 627.39 249.081 627.91V629.62C249.081 630.15 249.126 630.63 249.216 631.06C249.306 631.48 249.441 631.84 249.621 632.14C249.811 632.44 250.056 632.675 250.356 632.845C250.656 633.005 251.016 633.085 251.436 633.085ZM251.436 629.65C251.086 629.65 250.841 629.58 250.701 629.44C250.571 629.3 250.506 629.13 250.506 628.93V628.6C250.506 628.4 250.571 628.23 250.701 628.09C250.841 627.95 251.086 627.88 251.436 627.88C251.786 627.88 252.026 627.95 252.156 628.09C252.296 628.23 252.366 628.4 252.366 628.6V628.93C252.366 629.13 252.296 629.3 252.156 629.44C252.026 629.58 251.786 629.65 251.436 629.65ZM260.43 634.18C259.82 634.18 259.285 634.105 258.825 633.955C258.365 633.795 257.98 633.58 257.67 633.31C257.37 633.04 257.14 632.72 256.98 632.35C256.83 631.98 256.755 631.58 256.755 631.15C256.755 630.43 256.95 629.86 257.34 629.44C257.73 629.02 258.245 628.725 258.885 628.555V628.435C258.325 628.245 257.88 627.94 257.55 627.52C257.23 627.09 257.07 626.575 257.07 625.975C257.07 625.175 257.365 624.54 257.955 624.07C258.545 623.59 259.37 623.35 260.43 623.35C261.49 623.35 262.315 623.59 262.905 624.07C263.495 624.54 263.79 625.175 263.79 625.975C263.79 626.575 263.625 627.09 263.295 627.52C262.975 627.94 262.535 628.245 261.975 628.435V628.555C262.615 628.725 263.13 629.02 263.52 629.44C263.91 629.86 264.105 630.43 264.105 631.15C264.105 631.58 264.025 631.98 263.865 632.35C263.715 632.72 263.485 633.04 263.175 633.31C262.865 633.58 262.48 633.795 262.02 633.955C261.57 634.105 261.04 634.18 260.43 634.18ZM260.43 633.115C261.17 633.115 261.75 632.95 262.17 632.62C262.59 632.29 262.8 631.825 262.8 631.225V630.895C262.8 630.295 262.59 629.83 262.17 629.5C261.76 629.17 261.18 629.005 260.43 629.005C259.68 629.005 259.095 629.17 258.675 629.5C258.265 629.83 258.06 630.295 258.06 630.895V631.225C258.06 631.825 258.27 632.29 258.69 632.62C259.11 632.95 259.69 633.115 260.43 633.115ZM260.43 627.985C261.11 627.985 261.625 627.84 261.975 627.55C262.335 627.26 262.515 626.845 262.515 626.305V626.095C262.515 625.555 262.33 625.14 261.96 624.85C261.6 624.56 261.09 624.415 260.43 624.415C259.77 624.415 259.255 624.56 258.885 624.85C258.525 625.14 258.345 625.555 258.345 626.095V626.305C258.345 626.845 258.52 627.26 258.87 627.55C259.23 627.84 259.75 627.985 260.43 627.985Z" fill="white"/>
</svg>
