<svg width="1311" height="801" viewBox="0 0 1311 801" fill="none" xmlns="http://www.w3.org/2000/svg">
<path d="M66.875 563C66.285 563 65.85 562.835 65.57 562.505C65.3 562.175 65.165 561.75 65.165 561.23V556.28H62.585V555.26H64.505C64.765 555.26 64.945 555.21 65.045 555.11C65.155 555 65.21 554.815 65.21 554.555V552.53H66.365V555.26H69.89V556.28H66.365V561.98H69.89V563H66.875ZM77.3241 561.74H77.2641C77.1841 561.93 77.0841 562.115 76.9641 562.295C76.8441 562.465 76.6941 562.615 76.5141 562.745C76.3441 562.875 76.1391 562.98 75.8991 563.06C75.6591 563.14 75.3791 563.18 75.0591 563.18C74.2491 563.18 73.5991 562.925 73.1091 562.415C72.6191 561.895 72.3741 561.165 72.3741 560.225V555.26H73.5741V560.015C73.5741 560.725 73.7291 561.255 74.0391 561.605C74.3491 561.945 74.8041 562.115 75.4041 562.115C75.6441 562.115 75.8791 562.085 76.1091 562.025C76.3391 561.965 76.5441 561.875 76.7241 561.755C76.9041 561.635 77.0491 561.485 77.1591 561.305C77.2691 561.115 77.3241 560.89 77.3241 560.63V555.26H78.5241V563H77.3241V561.74ZM81.4583 563V555.26H82.6583V556.52H82.7183C82.7983 556.33 82.8983 556.15 83.0183 555.98C83.1383 555.8 83.2833 555.645 83.4533 555.515C83.6333 555.385 83.8433 555.28 84.0833 555.2C84.3233 555.12 84.6033 555.08 84.9233 555.08C85.7333 555.08 86.3833 555.34 86.8733 555.86C87.3633 556.37 87.6083 557.095 87.6083 558.035V563H86.4083V558.245C86.4083 557.535 86.2533 557.01 85.9433 556.67C85.6333 556.32 85.1783 556.145 84.5783 556.145C84.3383 556.145 84.1033 556.175 83.8733 556.235C83.6433 556.295 83.4383 556.385 83.2583 556.505C83.0783 556.625 82.9333 556.78 82.8233 556.97C82.7133 557.16 82.6583 557.38 82.6583 557.63V563H81.4583ZM90.4524 563V555.26H91.6524V556.52H91.7124C91.7924 556.33 91.8924 556.15 92.0124 555.98C92.1324 555.8 92.2774 555.645 92.4474 555.515C92.6274 555.385 92.8374 555.28 93.0774 555.2C93.3174 555.12 93.5974 555.08 93.9174 555.08C94.7274 555.08 95.3774 555.34 95.8674 555.86C96.3574 556.37 96.6024 557.095 96.6024 558.035V563H95.4024V558.245C95.4024 557.535 95.2474 557.01 94.9374 556.67C94.6274 556.32 94.1724 556.145 93.5724 556.145C93.3324 556.145 93.0974 556.175 92.8674 556.235C92.6374 556.295 92.4324 556.385 92.2524 556.505C92.0724 556.625 91.9274 556.78 91.8174 556.97C91.7074 557.16 91.6524 557.38 91.6524 557.63V563H90.4524ZM102.612 563.18C102.052 563.18 101.547 563.085 101.097 562.895C100.657 562.705 100.277 562.435 99.9566 562.085C99.6466 561.725 99.4066 561.3 99.2366 560.81C99.0666 560.31 98.9816 559.755 98.9816 559.145C98.9816 558.525 99.0666 557.965 99.2366 557.465C99.4166 556.965 99.6616 556.54 99.9716 556.19C100.282 555.83 100.652 555.555 101.082 555.365C101.522 555.175 102.007 555.08 102.537 555.08C103.057 555.08 103.527 555.175 103.947 555.365C104.377 555.555 104.742 555.82 105.042 556.16C105.342 556.49 105.572 556.885 105.732 557.345C105.892 557.805 105.972 558.31 105.972 558.86V559.43H100.242V559.79C100.242 560.13 100.297 560.445 100.407 560.735C100.517 561.025 100.672 561.275 100.872 561.485C101.082 561.695 101.332 561.86 101.622 561.98C101.922 562.09 102.252 562.145 102.612 562.145C103.132 562.145 103.582 562.025 103.962 561.785C104.342 561.545 104.632 561.215 104.832 560.795L105.717 561.395C105.487 561.915 105.102 562.345 104.562 562.685C104.032 563.015 103.382 563.18 102.612 563.18ZM102.537 556.07C102.207 556.07 101.902 556.13 101.622 556.25C101.342 556.37 101.097 556.535 100.887 556.745C100.687 556.955 100.527 557.205 100.407 557.495C100.297 557.775 100.242 558.085 100.242 558.425V558.53H104.682V558.365C104.682 558.025 104.627 557.715 104.517 557.435C104.417 557.155 104.272 556.915 104.082 556.715C103.902 556.505 103.677 556.345 103.407 556.235C103.147 556.125 102.857 556.07 102.537 556.07ZM108.171 561.98H110.871V552.92H108.171V551.9H112.071V561.98H114.771V563H108.171V561.98ZM132.474 553.625H127.794L127.494 557.63H127.599C127.859 557.28 128.149 557.005 128.469 556.805C128.789 556.595 129.229 556.49 129.789 556.49C130.249 556.49 130.669 556.565 131.049 556.715C131.439 556.855 131.774 557.065 132.054 557.345C132.334 557.625 132.554 557.965 132.714 558.365C132.874 558.755 132.954 559.205 132.954 559.715C132.954 560.225 132.874 560.695 132.714 561.125C132.554 561.545 132.319 561.91 132.009 562.22C131.699 562.52 131.324 562.755 130.884 562.925C130.444 563.095 129.944 563.18 129.384 563.18C128.944 563.18 128.549 563.13 128.199 563.03C127.859 562.93 127.554 562.795 127.284 562.625C127.024 562.455 126.794 562.265 126.594 562.055C126.394 561.845 126.214 561.625 126.054 561.395L126.999 560.675C127.139 560.885 127.279 561.075 127.419 561.245C127.569 561.415 127.739 561.565 127.929 561.695C128.119 561.815 128.334 561.91 128.574 561.98C128.814 562.05 129.094 562.085 129.414 562.085C130.134 562.085 130.684 561.89 131.064 561.5C131.454 561.11 131.649 560.57 131.649 559.88V559.76C131.649 559.07 131.454 558.53 131.064 558.14C130.674 557.75 130.114 557.555 129.384 557.555C128.884 557.555 128.494 557.64 128.214 557.81C127.944 557.98 127.694 558.19 127.464 558.44L126.399 558.29L126.774 552.53H132.474V553.625ZM134.853 558.995V557.885H142.053V558.995H134.853ZM145.542 563L149.637 553.61H145.047V555.56H143.922V552.53H150.912V553.64L146.892 563H145.542ZM154.266 559.07V557.81H158.616V559.07H154.266ZM162.211 563V561.905H165.211V553.46H165.106L162.466 555.92L161.731 555.125L164.506 552.53H166.471V561.905H169.231V563H162.211ZM174.43 563.18C173.79 563.18 173.24 563.06 172.78 562.82C172.32 562.57 171.94 562.215 171.64 561.755C171.34 561.295 171.12 560.73 170.98 560.06C170.84 559.39 170.77 558.625 170.77 557.765C170.77 556.915 170.84 556.155 170.98 555.485C171.12 554.805 171.34 554.235 171.64 553.775C171.94 553.315 172.32 552.965 172.78 552.725C173.24 552.475 173.79 552.35 174.43 552.35C175.07 552.35 175.62 552.475 176.08 552.725C176.54 552.965 176.92 553.315 177.22 553.775C177.52 554.235 177.74 554.805 177.88 555.485C178.02 556.155 178.09 556.915 178.09 557.765C178.09 558.625 178.02 559.39 177.88 560.06C177.74 560.73 177.52 561.295 177.22 561.755C176.92 562.215 176.54 562.57 176.08 562.82C175.62 563.06 175.07 563.18 174.43 563.18ZM174.43 562.085C174.85 562.085 175.21 562.005 175.51 561.845C175.81 561.675 176.05 561.44 176.23 561.14C176.42 560.84 176.56 560.48 176.65 560.06C176.74 559.63 176.785 559.15 176.785 558.62V556.91C176.785 556.39 176.74 555.915 176.65 555.485C176.56 555.055 176.42 554.69 176.23 554.39C176.05 554.09 175.81 553.86 175.51 553.7C175.21 553.53 174.85 553.445 174.43 553.445C174.01 553.445 173.65 553.53 173.35 553.7C173.05 553.86 172.805 554.09 172.615 554.39C172.435 554.69 172.3 555.055 172.21 555.485C172.12 555.915 172.075 556.39 172.075 556.91V558.62C172.075 559.15 172.12 559.63 172.21 560.06C172.3 560.48 172.435 560.84 172.615 561.14C172.805 561.44 173.05 561.675 173.35 561.845C173.65 562.005 174.01 562.085 174.43 562.085ZM174.43 558.65C174.08 558.65 173.835 558.58 173.695 558.44C173.565 558.3 173.5 558.13 173.5 557.93V557.6C173.5 557.4 173.565 557.23 173.695 557.09C173.835 556.95 174.08 556.88 174.43 556.88C174.78 556.88 175.02 556.95 175.15 557.09C175.29 557.23 175.36 557.4 175.36 557.6V557.93C175.36 558.13 175.29 558.3 175.15 558.44C175.02 558.58 174.78 558.65 174.43 558.65Z" fill="white"/>
</svg>
