<svg width="1311" height="801" viewBox="0 0 1311 801" fill="none" xmlns="http://www.w3.org/2000/svg">
<path d="M16.875 326C16.285 326 15.85 325.835 15.57 325.505C15.3 325.175 15.165 324.75 15.165 324.23L15.165 319.28H12.585L12.585 318.26H14.505C14.765 318.26 14.945 318.21 15.045 318.11C15.155 318 15.21 317.815 15.21 317.555V315.53H16.365V318.26H19.89V319.28H16.365V324.98H19.89V326H16.875ZM27.3241 324.74H27.2641C27.1841 324.93 27.0841 325.115 26.9641 325.295C26.8441 325.465 26.6941 325.615 26.5141 325.745C26.3441 325.875 26.1391 325.98 25.8991 326.06C25.6591 326.14 25.3791 326.18 25.0591 326.18C24.2491 326.18 23.5991 325.925 23.1091 325.415C22.6191 324.895 22.3741 324.165 22.3741 323.225V318.26H23.5741V323.015C23.5741 323.725 23.7291 324.255 24.0391 324.605C24.3491 324.945 24.8041 325.115 25.4041 325.115C25.6441 325.115 25.8791 325.085 26.1091 325.025C26.3391 324.965 26.5441 324.875 26.7241 324.755C26.9041 324.635 27.0491 324.485 27.1591 324.305C27.2691 324.115 27.3241 323.89 27.3241 323.63V318.26H28.5241L28.5241 326H27.3241V324.74ZM31.4583 326L31.4583 318.26H32.6583V319.52H32.7183C32.7983 319.33 32.8983 319.15 33.0183 318.98C33.1383 318.8 33.2833 318.645 33.4533 318.515C33.6333 318.385 33.8433 318.28 34.0833 318.2C34.3233 318.12 34.6033 318.08 34.9233 318.08C35.7333 318.08 36.3833 318.34 36.8733 318.86C37.3633 319.37 37.6083 320.095 37.6083 321.035V326H36.4083V321.245C36.4083 320.535 36.2533 320.01 35.9433 319.67C35.6333 319.32 35.1783 319.145 34.5783 319.145C34.3383 319.145 34.1033 319.175 33.8733 319.235C33.6433 319.295 33.4383 319.385 33.2583 319.505C33.0783 319.625 32.9333 319.78 32.8233 319.97C32.7133 320.16 32.6583 320.38 32.6583 320.63V326H31.4583ZM40.4524 326V318.26H41.6524V319.52H41.7124C41.7924 319.33 41.8924 319.15 42.0124 318.98C42.1324 318.8 42.2774 318.645 42.4474 318.515C42.6274 318.385 42.8374 318.28 43.0774 318.2C43.3174 318.12 43.5974 318.08 43.9174 318.08C44.7274 318.08 45.3774 318.34 45.8674 318.86C46.3574 319.37 46.6024 320.095 46.6024 321.035V326H45.4024V321.245C45.4024 320.535 45.2474 320.01 44.9374 319.67C44.6274 319.32 44.1724 319.145 43.5724 319.145C43.3324 319.145 43.0974 319.175 42.8674 319.235C42.6374 319.295 42.4324 319.385 42.2524 319.505C42.0724 319.625 41.9274 319.78 41.8174 319.97C41.7074 320.16 41.6524 320.38 41.6524 320.63V326H40.4524ZM52.6116 326.18C52.0516 326.18 51.5466 326.085 51.0966 325.895C50.6566 325.705 50.2766 325.435 49.9566 325.085C49.6466 324.725 49.4066 324.3 49.2366 323.81C49.0666 323.31 48.9816 322.755 48.9816 322.145C48.9816 321.525 49.0666 320.965 49.2366 320.465C49.4166 319.965 49.6616 319.54 49.9716 319.19C50.2816 318.83 50.6516 318.555 51.0816 318.365C51.5216 318.175 52.0066 318.08 52.5366 318.08C53.0566 318.08 53.5266 318.175 53.9466 318.365C54.3766 318.555 54.7416 318.82 55.0416 319.16C55.3416 319.49 55.5716 319.885 55.7316 320.345C55.8916 320.805 55.9716 321.31 55.9716 321.86V322.43H50.2416V322.79C50.2416 323.13 50.2966 323.445 50.4066 323.735C50.5166 324.025 50.6716 324.275 50.8716 324.485C51.0816 324.695 51.3316 324.86 51.6216 324.98C51.9216 325.09 52.2516 325.145 52.6116 325.145C53.1316 325.145 53.5816 325.025 53.9616 324.785C54.3416 324.545 54.6316 324.215 54.8316 323.795L55.7166 324.395C55.4866 324.915 55.1016 325.345 54.5616 325.685C54.0316 326.015 53.3816 326.18 52.6116 326.18ZM52.5366 319.07C52.2066 319.07 51.9016 319.13 51.6216 319.25C51.3416 319.37 51.0966 319.535 50.8866 319.745C50.6866 319.955 50.5266 320.205 50.4066 320.495C50.2966 320.775 50.2416 321.085 50.2416 321.425V321.53H54.6816V321.365C54.6816 321.025 54.6266 320.715 54.5166 320.435C54.4166 320.155 54.2716 319.915 54.0816 319.715C53.9016 319.505 53.6766 319.345 53.4066 319.235C53.1466 319.125 52.8566 319.07 52.5366 319.07ZM58.1707 324.98H60.8707V315.92H58.1707V314.9H62.0707V324.98H64.7707V326H58.1707V324.98ZM79.474 326.18C78.924 326.18 78.429 326.09 77.989 325.91C77.549 325.72 77.174 325.455 76.864 325.115C76.564 324.765 76.329 324.34 76.159 323.84C75.999 323.34 75.919 322.78 75.919 322.16C75.919 321.38 76.034 320.65 76.264 319.97C76.504 319.28 76.804 318.655 77.164 318.095C77.534 317.525 77.944 317.025 78.394 316.595C78.844 316.155 79.284 315.8 79.714 315.53H81.334C80.764 315.94 80.254 316.34 79.804 316.73C79.364 317.12 78.974 317.53 78.634 317.96C78.294 318.38 78.009 318.835 77.779 319.325C77.549 319.805 77.359 320.35 77.209 320.96L77.284 320.99C77.534 320.56 77.864 320.205 78.274 319.925C78.684 319.635 79.214 319.49 79.864 319.49C80.324 319.49 80.744 319.565 81.124 319.715C81.504 319.865 81.834 320.08 82.114 320.36C82.394 320.64 82.609 320.98 82.759 321.38C82.919 321.78 82.999 322.225 82.999 322.715C82.999 323.225 82.914 323.695 82.744 324.125C82.574 324.545 82.334 324.91 82.024 325.22C81.724 325.52 81.354 325.755 80.914 325.925C80.484 326.095 80.004 326.18 79.474 326.18ZM79.459 325.115C80.179 325.115 80.734 324.92 81.124 324.53C81.524 324.14 81.724 323.59 81.724 322.88V322.76C81.724 322.05 81.524 321.5 81.124 321.11C80.734 320.72 80.179 320.525 79.459 320.525C78.739 320.525 78.179 320.72 77.779 321.11C77.389 321.5 77.194 322.05 77.194 322.76V322.88C77.194 323.59 77.389 324.14 77.779 324.53C78.179 324.92 78.739 325.115 79.459 325.115ZM84.8531 321.995V320.885H92.0531V321.995H84.8531ZM94.2223 326V324.905H97.2223V316.46H97.1173L94.4773 318.92L93.7423 318.125L96.5173 315.53H98.4823V324.905H101.242V326H94.2223ZM106.441 326.18C105.801 326.18 105.251 326.06 104.791 325.82C104.331 325.57 103.951 325.215 103.651 324.755C103.351 324.295 103.131 323.73 102.991 323.06C102.851 322.39 102.781 321.625 102.781 320.765C102.781 319.915 102.851 319.155 102.991 318.485C103.131 317.805 103.351 317.235 103.651 316.775C103.951 316.315 104.331 315.965 104.791 315.725C105.251 315.475 105.801 315.35 106.441 315.35C107.081 315.35 107.631 315.475 108.091 315.725C108.551 315.965 108.931 316.315 109.231 316.775C109.531 317.235 109.751 317.805 109.891 318.485C110.031 319.155 110.101 319.915 110.101 320.765C110.101 321.625 110.031 322.39 109.891 323.06C109.751 323.73 109.531 324.295 109.231 324.755C108.931 325.215 108.551 325.57 108.091 325.82C107.631 326.06 107.081 326.18 106.441 326.18ZM106.441 325.085C106.861 325.085 107.221 325.005 107.521 324.845C107.821 324.675 108.061 324.44 108.241 324.14C108.431 323.84 108.571 323.48 108.661 323.06C108.751 322.63 108.796 322.15 108.796 321.62V319.91C108.796 319.39 108.751 318.915 108.661 318.485C108.571 318.055 108.431 317.69 108.241 317.39C108.061 317.09 107.821 316.86 107.521 316.7C107.221 316.53 106.861 316.445 106.441 316.445C106.021 316.445 105.661 316.53 105.361 316.7C105.061 316.86 104.816 317.09 104.626 317.39C104.446 317.69 104.311 318.055 104.221 318.485C104.131 318.915 104.086 319.39 104.086 319.91V321.62C104.086 322.15 104.131 322.63 104.221 323.06C104.311 323.48 104.446 323.84 104.626 324.14C104.816 324.44 105.061 324.675 105.361 324.845C105.661 325.005 106.021 325.085 106.441 325.085ZM106.441 321.65C106.091 321.65 105.846 321.58 105.706 321.44C105.576 321.3 105.511 321.13 105.511 320.93V320.6C105.511 320.4 105.576 320.23 105.706 320.09C105.846 319.95 106.091 319.88 106.441 319.88C106.791 319.88 107.031 319.95 107.161 320.09C107.301 320.23 107.371 320.4 107.371 320.6V320.93C107.371 321.13 107.301 321.3 107.161 321.44C107.031 321.58 106.791 321.65 106.441 321.65ZM113.261 322.07V320.81H117.611V322.07H113.261ZM121.205 326V324.905H124.205V316.46H124.1L121.46 318.92L120.725 318.125L123.5 315.53H125.465V324.905H128.225V326H121.205ZM133.424 326.18C132.784 326.18 132.234 326.06 131.774 325.82C131.314 325.57 130.934 325.215 130.634 324.755C130.334 324.295 130.114 323.73 129.974 323.06C129.834 322.39 129.764 321.625 129.764 320.765C129.764 319.915 129.834 319.155 129.974 318.485C130.114 317.805 130.334 317.235 130.634 316.775C130.934 316.315 131.314 315.965 131.774 315.725C132.234 315.475 132.784 315.35 133.424 315.35C134.064 315.35 134.614 315.475 135.074 315.725C135.534 315.965 135.914 316.315 136.214 316.775C136.514 317.235 136.734 317.805 136.874 318.485C137.014 319.155 137.084 319.915 137.084 320.765C137.084 321.625 137.014 322.39 136.874 323.06C136.734 323.73 136.514 324.295 136.214 324.755C135.914 325.215 135.534 325.57 135.074 325.82C134.614 326.06 134.064 326.18 133.424 326.18ZM133.424 325.085C133.844 325.085 134.204 325.005 134.504 324.845C134.804 324.675 135.044 324.44 135.224 324.14C135.414 323.84 135.554 323.48 135.644 323.06C135.734 322.63 135.779 322.15 135.779 321.62V319.91C135.779 319.39 135.734 318.915 135.644 318.485C135.554 318.055 135.414 317.69 135.224 317.39C135.044 317.09 134.804 316.86 134.504 316.7C134.204 316.53 133.844 316.445 133.424 316.445C133.004 316.445 132.644 316.53 132.344 316.7C132.044 316.86 131.799 317.09 131.609 317.39C131.429 317.69 131.294 318.055 131.204 318.485C131.114 318.915 131.069 319.39 131.069 319.91V321.62C131.069 322.15 131.114 322.63 131.204 323.06C131.294 323.48 131.429 323.84 131.609 324.14C131.799 324.44 132.044 324.675 132.344 324.845C132.644 325.005 133.004 325.085 133.424 325.085ZM133.424 321.65C133.074 321.65 132.829 321.58 132.689 321.44C132.559 321.3 132.494 321.13 132.494 320.93V320.6C132.494 320.4 132.559 320.23 132.689 320.09C132.829 319.95 133.074 319.88 133.424 319.88C133.774 319.88 134.014 319.95 134.144 320.09C134.284 320.23 134.354 320.4 134.354 320.6V320.93C134.354 321.13 134.284 321.3 134.144 321.44C134.014 321.58 133.774 321.65 133.424 321.65Z" fill="white"/>
</svg>
