<svg width="1311" height="801" viewBox="0 0 1311 801" fill="none" xmlns="http://www.w3.org/2000/svg">
<path d="M16.875 480C16.285 480 15.85 479.835 15.57 479.505C15.3 479.175 15.165 478.75 15.165 478.23V473.28H12.585V472.26H14.505C14.765 472.26 14.945 472.21 15.045 472.11C15.155 472 15.21 471.815 15.21 471.555V469.53H16.365V472.26H19.89V473.28H16.365V478.98H19.89V480H16.875ZM27.3241 478.74H27.2641C27.1841 478.93 27.0841 479.115 26.9641 479.295C26.8441 479.465 26.6941 479.615 26.5141 479.745C26.3441 479.875 26.1391 479.98 25.8991 480.06C25.6591 480.14 25.3791 480.18 25.0591 480.18C24.2491 480.18 23.5991 479.925 23.1091 479.415C22.6191 478.895 22.3741 478.165 22.3741 477.225V472.26H23.5741V477.015C23.5741 477.725 23.7291 478.255 24.0391 478.605C24.3491 478.945 24.8041 479.115 25.4041 479.115C25.6441 479.115 25.8791 479.085 26.1091 479.025C26.3391 478.965 26.5441 478.875 26.7241 478.755C26.9041 478.635 27.0491 478.485 27.1591 478.305C27.2691 478.115 27.3241 477.89 27.3241 477.63V472.26H28.5241V480H27.3241V478.74ZM31.4583 480V472.26H32.6583V473.52H32.7183C32.7983 473.33 32.8983 473.15 33.0183 472.98C33.1383 472.8 33.2833 472.645 33.4533 472.515C33.6333 472.385 33.8433 472.28 34.0833 472.2C34.3233 472.12 34.6033 472.08 34.9233 472.08C35.7333 472.08 36.3833 472.34 36.8733 472.86C37.3633 473.37 37.6083 474.095 37.6083 475.035V480H36.4083V475.245C36.4083 474.535 36.2533 474.01 35.9433 473.67C35.6333 473.32 35.1783 473.145 34.5783 473.145C34.3383 473.145 34.1033 473.175 33.8733 473.235C33.6433 473.295 33.4383 473.385 33.2583 473.505C33.0783 473.625 32.9333 473.78 32.8233 473.97C32.7133 474.16 32.6583 474.38 32.6583 474.63V480H31.4583ZM40.4524 480V472.26H41.6524V473.52H41.7124C41.7924 473.33 41.8924 473.15 42.0124 472.98C42.1324 472.8 42.2774 472.645 42.4474 472.515C42.6274 472.385 42.8374 472.28 43.0774 472.2C43.3174 472.12 43.5974 472.08 43.9174 472.08C44.7274 472.08 45.3774 472.34 45.8674 472.86C46.3574 473.37 46.6024 474.095 46.6024 475.035V480H45.4024V475.245C45.4024 474.535 45.2474 474.01 44.9374 473.67C44.6274 473.32 44.1724 473.145 43.5724 473.145C43.3324 473.145 43.0974 473.175 42.8674 473.235C42.6374 473.295 42.4324 473.385 42.2524 473.505C42.0724 473.625 41.9274 473.78 41.8174 473.97C41.7074 474.16 41.6524 474.38 41.6524 474.63V480H40.4524ZM49.4466 480V472.26H50.6466V473.52H50.7066C50.7866 473.33 50.8866 473.15 51.0066 472.98C51.1266 472.8 51.2716 472.645 51.4416 472.515C51.6216 472.385 51.8316 472.28 52.0716 472.2C52.3116 472.12 52.5916 472.08 52.9116 472.08C53.7216 472.08 54.3716 472.34 54.8616 472.86C55.3516 473.37 55.5966 474.095 55.5966 475.035V480H54.3966V475.245C54.3966 474.535 54.2416 474.01 53.9316 473.67C53.6216 473.32 53.1666 473.145 52.5666 473.145C52.3266 473.145 52.0916 473.175 51.8616 473.235C51.6316 473.295 51.4266 473.385 51.2466 473.505C51.0666 473.625 50.9216 473.78 50.8116 473.97C50.7016 474.16 50.6466 474.38 50.6466 474.63V480H49.4466ZM61.6057 480.18C61.0457 480.18 60.5407 480.085 60.0907 479.895C59.6507 479.705 59.2707 479.435 58.9507 479.085C58.6407 478.725 58.4007 478.3 58.2307 477.81C58.0607 477.31 57.9757 476.755 57.9757 476.145C57.9757 475.525 58.0607 474.965 58.2307 474.465C58.4107 473.965 58.6557 473.54 58.9657 473.19C59.2757 472.83 59.6457 472.555 60.0757 472.365C60.5157 472.175 61.0007 472.08 61.5307 472.08C62.0507 472.08 62.5207 472.175 62.9407 472.365C63.3707 472.555 63.7357 472.82 64.0357 473.16C64.3357 473.49 64.5657 473.885 64.7257 474.345C64.8857 474.805 64.9657 475.31 64.9657 475.86V476.43H59.2357V476.79C59.2357 477.13 59.2907 477.445 59.4007 477.735C59.5107 478.025 59.6657 478.275 59.8657 478.485C60.0757 478.695 60.3257 478.86 60.6157 478.98C60.9157 479.09 61.2457 479.145 61.6057 479.145C62.1257 479.145 62.5757 479.025 62.9557 478.785C63.3357 478.545 63.6257 478.215 63.8257 477.795L64.7107 478.395C64.4807 478.915 64.0957 479.345 63.5557 479.685C63.0257 480.015 62.3757 480.18 61.6057 480.18ZM61.5307 473.07C61.2007 473.07 60.8957 473.13 60.6157 473.25C60.3357 473.37 60.0907 473.535 59.8807 473.745C59.6807 473.955 59.5207 474.205 59.4007 474.495C59.2907 474.775 59.2357 475.085 59.2357 475.425V475.53H63.6757V475.365C63.6757 475.025 63.6207 474.715 63.5107 474.435C63.4107 474.155 63.2657 473.915 63.0757 473.715C62.8957 473.505 62.6707 473.345 62.4007 473.235C62.1407 473.125 61.8507 473.07 61.5307 473.07ZM67.1648 478.98H69.8648V469.92H67.1648V468.9H71.0648V478.98H73.7648V480H67.1648V478.98ZM88.4681 480.18C87.9181 480.18 87.4231 480.09 86.9831 479.91C86.5431 479.72 86.1681 479.455 85.8581 479.115C85.5581 478.765 85.3231 478.34 85.1531 477.84C84.9931 477.34 84.9131 476.78 84.9131 476.16C84.9131 475.38 85.0281 474.65 85.2581 473.97C85.4981 473.28 85.7981 472.655 86.1581 472.095C86.5281 471.525 86.9381 471.025 87.3881 470.595C87.8381 470.155 88.2781 469.8 88.7081 469.53H90.3281C89.7581 469.94 89.2481 470.34 88.7981 470.73C88.3581 471.12 87.9681 471.53 87.6281 471.96C87.2881 472.38 87.0031 472.835 86.7731 473.325C86.5431 473.805 86.3531 474.35 86.2031 474.96L86.2781 474.99C86.5281 474.56 86.8581 474.205 87.2681 473.925C87.6781 473.635 88.2081 473.49 88.8581 473.49C89.3181 473.49 89.7381 473.565 90.1181 473.715C90.4981 473.865 90.8281 474.08 91.1081 474.36C91.3881 474.64 91.6031 474.98 91.7531 475.38C91.9131 475.78 91.9931 476.225 91.9931 476.715C91.9931 477.225 91.9081 477.695 91.7381 478.125C91.5681 478.545 91.3281 478.91 91.0181 479.22C90.7181 479.52 90.3481 479.755 89.9081 479.925C89.4781 480.095 88.9981 480.18 88.4681 480.18ZM88.4531 479.115C89.1731 479.115 89.7281 478.92 90.1181 478.53C90.5181 478.14 90.7181 477.59 90.7181 476.88V476.76C90.7181 476.05 90.5181 475.5 90.1181 475.11C89.7281 474.72 89.1731 474.525 88.4531 474.525C87.7331 474.525 87.1731 474.72 86.7731 475.11C86.3831 475.5 86.1881 476.05 86.1881 476.76V476.88C86.1881 477.59 86.3831 478.14 86.7731 478.53C87.1731 478.92 87.7331 479.115 88.4531 479.115ZM93.8473 475.995V474.885H101.047V475.995H93.8473ZM106.456 480.18C105.906 480.18 105.411 480.09 104.971 479.91C104.531 479.72 104.156 479.455 103.846 479.115C103.546 478.765 103.311 478.34 103.141 477.84C102.981 477.34 102.901 476.78 102.901 476.16C102.901 475.38 103.016 474.65 103.246 473.97C103.486 473.28 103.786 472.655 104.146 472.095C104.516 471.525 104.926 471.025 105.376 470.595C105.826 470.155 106.266 469.8 106.696 469.53H108.316C107.746 469.94 107.236 470.34 106.786 470.73C106.346 471.12 105.956 471.53 105.616 471.96C105.276 472.38 104.991 472.835 104.761 473.325C104.531 473.805 104.341 474.35 104.191 474.96L104.266 474.99C104.516 474.56 104.846 474.205 105.256 473.925C105.666 473.635 106.196 473.49 106.846 473.49C107.306 473.49 107.726 473.565 108.106 473.715C108.486 473.865 108.816 474.08 109.096 474.36C109.376 474.64 109.591 474.98 109.741 475.38C109.901 475.78 109.981 476.225 109.981 476.715C109.981 477.225 109.896 477.695 109.726 478.125C109.556 478.545 109.316 478.91 109.006 479.22C108.706 479.52 108.336 479.755 107.896 479.925C107.466 480.095 106.986 480.18 106.456 480.18ZM106.441 479.115C107.161 479.115 107.716 478.92 108.106 478.53C108.506 478.14 108.706 477.59 108.706 476.88V476.76C108.706 476.05 108.506 475.5 108.106 475.11C107.716 474.72 107.161 474.525 106.441 474.525C105.721 474.525 105.161 474.72 104.761 475.11C104.371 475.5 104.176 476.05 104.176 476.76V476.88C104.176 477.59 104.371 478.14 104.761 478.53C105.161 478.92 105.721 479.115 106.441 479.115ZM113.261 476.07V474.81H117.611V476.07H113.261ZM124.43 480.18C123.79 480.18 123.24 480.06 122.78 479.82C122.32 479.57 121.94 479.215 121.64 478.755C121.34 478.295 121.12 477.73 120.98 477.06C120.84 476.39 120.77 475.625 120.77 474.765C120.77 473.915 120.84 473.155 120.98 472.485C121.12 471.805 121.34 471.235 121.64 470.775C121.94 470.315 122.32 469.965 122.78 469.725C123.24 469.475 123.79 469.35 124.43 469.35C125.07 469.35 125.62 469.475 126.08 469.725C126.54 469.965 126.92 470.315 127.22 470.775C127.52 471.235 127.74 471.805 127.88 472.485C128.02 473.155 128.09 473.915 128.09 474.765C128.09 475.625 128.02 476.39 127.88 477.06C127.74 477.73 127.52 478.295 127.22 478.755C126.92 479.215 126.54 479.57 126.08 479.82C125.62 480.06 125.07 480.18 124.43 480.18ZM124.43 479.085C124.85 479.085 125.21 479.005 125.51 478.845C125.81 478.675 126.05 478.44 126.23 478.14C126.42 477.84 126.56 477.48 126.65 477.06C126.74 476.63 126.785 476.15 126.785 475.62V473.91C126.785 473.39 126.74 472.915 126.65 472.485C126.56 472.055 126.42 471.69 126.23 471.39C126.05 471.09 125.81 470.86 125.51 470.7C125.21 470.53 124.85 470.445 124.43 470.445C124.01 470.445 123.65 470.53 123.35 470.7C123.05 470.86 122.805 471.09 122.615 471.39C122.435 471.69 122.3 472.055 122.21 472.485C122.12 472.915 122.075 473.39 122.075 473.91V475.62C122.075 476.15 122.12 476.63 122.21 477.06C122.3 477.48 122.435 477.84 122.615 478.14C122.805 478.44 123.05 478.675 123.35 478.845C123.65 479.005 124.01 479.085 124.43 479.085ZM124.43 475.65C124.08 475.65 123.835 475.58 123.695 475.44C123.565 475.3 123.5 475.13 123.5 474.93V474.6C123.5 474.4 123.565 474.23 123.695 474.09C123.835 473.95 124.08 473.88 124.43 473.88C124.78 473.88 125.02 473.95 125.15 474.09C125.29 474.23 125.36 474.4 125.36 474.6V474.93C125.36 475.13 125.29 475.3 125.15 475.44C125.02 475.58 124.78 475.65 124.43 475.65ZM132.974 473.97C133.704 473.97 134.249 473.81 134.609 473.49C134.979 473.16 135.164 472.74 135.164 472.23V472.125C135.164 471.565 134.984 471.145 134.624 470.865C134.274 470.585 133.814 470.445 133.244 470.445C132.684 470.445 132.229 470.57 131.879 470.82C131.539 471.06 131.259 471.38 131.039 471.78L130.094 471.06C130.224 470.85 130.384 470.645 130.574 470.445C130.764 470.235 130.984 470.05 131.234 469.89C131.494 469.73 131.789 469.6 132.119 469.5C132.459 469.4 132.844 469.35 133.274 469.35C133.724 469.35 134.144 469.41 134.534 469.53C134.924 469.64 135.264 469.81 135.554 470.04C135.844 470.26 136.069 470.535 136.229 470.865C136.399 471.195 136.484 471.57 136.484 471.99C136.484 472.33 136.429 472.635 136.319 472.905C136.219 473.175 136.074 473.41 135.884 473.61C135.704 473.81 135.489 473.98 135.239 474.12C134.989 474.26 134.724 474.365 134.444 474.435V474.495C134.734 474.555 135.014 474.655 135.284 474.795C135.554 474.925 135.794 475.1 136.004 475.32C136.214 475.53 136.379 475.79 136.499 476.1C136.629 476.4 136.694 476.745 136.694 477.135C136.694 477.585 136.604 478 136.424 478.38C136.254 478.75 136.009 479.07 135.689 479.34C135.379 479.6 134.999 479.805 134.549 479.955C134.109 480.105 133.619 480.18 133.079 480.18C132.619 480.18 132.209 480.13 131.849 480.03C131.499 479.93 131.184 479.795 130.904 479.625C130.634 479.455 130.394 479.265 130.184 479.055C129.984 478.845 129.804 478.625 129.644 478.395L130.589 477.675C130.729 477.885 130.874 478.075 131.024 478.245C131.174 478.415 131.344 478.565 131.534 478.695C131.734 478.815 131.959 478.91 132.209 478.98C132.459 479.05 132.749 479.085 133.079 479.085C133.819 479.085 134.384 478.915 134.774 478.575C135.174 478.235 135.374 477.75 135.374 477.12V477C135.374 476.38 135.179 475.9 134.789 475.56C134.409 475.22 133.834 475.05 133.064 475.05H131.819V473.97H132.974Z" fill="white"/>
</svg>
