<svg width="1311" height="801" viewBox="0 0 1311 801" fill="none" xmlns="http://www.w3.org/2000/svg">
<path d="M4.875 406C4.285 406 3.85 405.835 3.57 405.505C3.3 405.175 3.165 404.75 3.165 404.23L3.165 399.28H0.585L0.585 398.26H2.505C2.765 398.26 2.945 398.21 3.045 398.11C3.155 398 3.21 397.815 3.21 397.555L3.21 395.53H4.365V398.26H7.89V399.28H4.365L4.365 404.98H7.89V406H4.875ZM15.3241 404.74H15.2641C15.1841 404.93 15.0841 405.115 14.9641 405.295C14.8441 405.465 14.6941 405.615 14.5141 405.745C14.3441 405.875 14.1391 405.98 13.8991 406.06C13.6591 406.14 13.3791 406.18 13.0591 406.18C12.2491 406.18 11.5991 405.925 11.1091 405.415C10.6191 404.895 10.3741 404.165 10.3741 403.225V398.26H11.5741V403.015C11.5741 403.725 11.7291 404.255 12.0391 404.605C12.3491 404.945 12.8041 405.115 13.4041 405.115C13.6441 405.115 13.8791 405.085 14.1091 405.025C14.3391 404.965 14.5441 404.875 14.7241 404.755C14.9041 404.635 15.0491 404.485 15.1591 404.305C15.2691 404.115 15.3241 403.89 15.3241 403.63V398.26H16.5241L16.5241 406H15.3241V404.74ZM19.4583 406L19.4583 398.26H20.6583V399.52H20.7183C20.7983 399.33 20.8983 399.15 21.0183 398.98C21.1383 398.8 21.2833 398.645 21.4533 398.515C21.6333 398.385 21.8433 398.28 22.0833 398.2C22.3233 398.12 22.6033 398.08 22.9233 398.08C23.7333 398.08 24.3833 398.34 24.8733 398.86C25.3633 399.37 25.6083 400.095 25.6083 401.035L25.6083 406H24.4083L24.4083 401.245C24.4083 400.535 24.2533 400.01 23.9433 399.67C23.6333 399.32 23.1783 399.145 22.5783 399.145C22.3383 399.145 22.1033 399.175 21.8733 399.235C21.6433 399.295 21.4383 399.385 21.2583 399.505C21.0783 399.625 20.9333 399.78 20.8233 399.97C20.7133 400.16 20.6583 400.38 20.6583 400.63L20.6583 406H19.4583ZM28.4524 406L28.4524 398.26H29.6524V399.52H29.7124C29.7924 399.33 29.8924 399.15 30.0124 398.98C30.1324 398.8 30.2774 398.645 30.4474 398.515C30.6274 398.385 30.8374 398.28 31.0774 398.2C31.3174 398.12 31.5974 398.08 31.9174 398.08C32.7274 398.08 33.3774 398.34 33.8674 398.86C34.3574 399.37 34.6024 400.095 34.6024 401.035V406H33.4024V401.245C33.4024 400.535 33.2474 400.01 32.9374 399.67C32.6274 399.32 32.1724 399.145 31.5724 399.145C31.3324 399.145 31.0974 399.175 30.8674 399.235C30.6374 399.295 30.4324 399.385 30.2524 399.505C30.0724 399.625 29.9274 399.78 29.8174 399.97C29.7074 400.16 29.6524 400.38 29.6524 400.63L29.6524 406H28.4524ZM40.6116 406.18C40.0516 406.18 39.5466 406.085 39.0966 405.895C38.6566 405.705 38.2766 405.435 37.9566 405.085C37.6466 404.725 37.4066 404.3 37.2366 403.81C37.0666 403.31 36.9816 402.755 36.9816 402.145C36.9816 401.525 37.0666 400.965 37.2366 400.465C37.4166 399.965 37.6616 399.54 37.9716 399.19C38.2816 398.83 38.6516 398.555 39.0816 398.365C39.5216 398.175 40.0066 398.08 40.5366 398.08C41.0566 398.08 41.5266 398.175 41.9466 398.365C42.3766 398.555 42.7416 398.82 43.0416 399.16C43.3416 399.49 43.5716 399.885 43.7316 400.345C43.8916 400.805 43.9716 401.31 43.9716 401.86V402.43H38.2416V402.79C38.2416 403.13 38.2966 403.445 38.4066 403.735C38.5166 404.025 38.6716 404.275 38.8716 404.485C39.0816 404.695 39.3316 404.86 39.6216 404.98C39.9216 405.09 40.2516 405.145 40.6116 405.145C41.1316 405.145 41.5816 405.025 41.9616 404.785C42.3416 404.545 42.6316 404.215 42.8316 403.795L43.7166 404.395C43.4866 404.915 43.1016 405.345 42.5616 405.685C42.0316 406.015 41.3816 406.18 40.6116 406.18ZM40.5366 399.07C40.2066 399.07 39.9016 399.13 39.6216 399.25C39.3416 399.37 39.0966 399.535 38.8866 399.745C38.6866 399.955 38.5266 400.205 38.4066 400.495C38.2966 400.775 38.2416 401.085 38.2416 401.425V401.53H42.6816V401.365C42.6816 401.025 42.6266 400.715 42.5166 400.435C42.4166 400.155 42.2716 399.915 42.0816 399.715C41.9016 399.505 41.6766 399.345 41.4066 399.235C41.1466 399.125 40.8566 399.07 40.5366 399.07ZM46.1707 404.98H48.8707V395.92H46.1707V394.9H50.0707V404.98H52.7707V406H46.1707V404.98ZM67.474 406.18C66.924 406.18 66.429 406.09 65.989 405.91C65.549 405.72 65.174 405.455 64.864 405.115C64.564 404.765 64.329 404.34 64.159 403.84C63.999 403.34 63.919 402.78 63.919 402.16C63.919 401.38 64.034 400.65 64.264 399.97C64.504 399.28 64.804 398.655 65.164 398.095C65.534 397.525 65.944 397.025 66.394 396.595C66.844 396.155 67.284 395.8 67.714 395.53H69.334C68.764 395.94 68.254 396.34 67.804 396.73C67.364 397.12 66.974 397.53 66.634 397.96C66.294 398.38 66.009 398.835 65.779 399.325C65.549 399.805 65.359 400.35 65.209 400.96L65.284 400.99C65.534 400.56 65.864 400.205 66.274 399.925C66.684 399.635 67.214 399.49 67.864 399.49C68.324 399.49 68.744 399.565 69.124 399.715C69.504 399.865 69.834 400.08 70.114 400.36C70.394 400.64 70.609 400.98 70.759 401.38C70.919 401.78 70.999 402.225 70.999 402.715C70.999 403.225 70.914 403.695 70.744 404.125C70.574 404.545 70.334 404.91 70.024 405.22C69.724 405.52 69.354 405.755 68.914 405.925C68.484 406.095 68.004 406.18 67.474 406.18ZM67.459 405.115C68.179 405.115 68.734 404.92 69.124 404.53C69.524 404.14 69.724 403.59 69.724 402.88V402.76C69.724 402.05 69.524 401.5 69.124 401.11C68.734 400.72 68.179 400.525 67.459 400.525C66.739 400.525 66.179 400.72 65.779 401.11C65.389 401.5 65.194 402.05 65.194 402.76V402.88C65.194 403.59 65.389 404.14 65.779 404.53C66.179 404.92 66.739 405.115 67.459 405.115ZM72.8531 401.995V400.885H80.0531V401.995H72.8531ZM88.9873 399.37C88.9873 400.15 88.8673 400.885 88.6273 401.575C88.3973 402.255 88.0973 402.88 87.7273 403.45C87.3573 404.01 86.9473 404.51 86.4973 404.95C86.0573 405.38 85.6223 405.73 85.1923 406H83.5723C84.1423 405.59 84.6473 405.19 85.0873 404.8C85.5373 404.41 85.9323 404.005 86.2723 403.585C86.6123 403.155 86.8973 402.7 87.1273 402.22C87.3573 401.73 87.5473 401.18 87.6973 400.57L87.6223 400.54C87.3623 400.97 87.0273 401.33 86.6173 401.62C86.2173 401.9 85.6923 402.04 85.0423 402.04C84.5823 402.04 84.1573 401.965 83.7673 401.815C83.3873 401.665 83.0573 401.45 82.7773 401.17C82.5073 400.89 82.2923 400.555 82.1323 400.165C81.9823 399.765 81.9073 399.315 81.9073 398.815C81.9073 398.305 81.9873 397.84 82.1473 397.42C82.3173 396.99 82.5573 396.625 82.8673 396.325C83.1773 396.015 83.5473 395.775 83.9773 395.605C84.4173 395.435 84.9023 395.35 85.4323 395.35C85.9823 395.35 86.4773 395.445 86.9173 395.635C87.3573 395.815 87.7273 396.08 88.0273 396.43C88.3373 396.77 88.5723 397.19 88.7323 397.69C88.9023 398.19 88.9873 398.75 88.9873 399.37ZM85.4473 401.005C86.1673 401.005 86.7223 400.81 87.1123 400.42C87.5123 400.03 87.7123 399.48 87.7123 398.77V398.65C87.7123 397.94 87.5123 397.39 87.1123 397C86.7223 396.61 86.1673 396.415 85.4473 396.415C84.7273 396.415 84.1673 396.61 83.7673 397C83.3773 397.39 83.1823 397.94 83.1823 398.65V398.77C83.1823 399.48 83.3773 400.03 83.7673 400.42C84.1673 400.81 84.7273 401.005 85.4473 401.005ZM92.2664 402.07V400.81H96.6164V402.07H92.2664ZM103.436 406.18C102.796 406.18 102.246 406.06 101.786 405.82C101.326 405.57 100.946 405.215 100.646 404.755C100.346 404.295 100.126 403.73 99.9855 403.06C99.8455 402.39 99.7755 401.625 99.7755 400.765C99.7755 399.915 99.8455 399.155 99.9855 398.485C100.126 397.805 100.346 397.235 100.646 396.775C100.946 396.315 101.326 395.965 101.786 395.725C102.246 395.475 102.796 395.35 103.436 395.35C104.076 395.35 104.626 395.475 105.086 395.725C105.546 395.965 105.926 396.315 106.226 396.775C106.526 397.235 106.746 397.805 106.886 398.485C107.026 399.155 107.096 399.915 107.096 400.765C107.096 401.625 107.026 402.39 106.886 403.06C106.746 403.73 106.526 404.295 106.226 404.755C105.926 405.215 105.546 405.57 105.086 405.82C104.626 406.06 104.076 406.18 103.436 406.18ZM103.436 405.085C103.856 405.085 104.216 405.005 104.516 404.845C104.816 404.675 105.056 404.44 105.236 404.14C105.426 403.84 105.566 403.48 105.656 403.06C105.746 402.63 105.791 402.15 105.791 401.62V399.91C105.791 399.39 105.746 398.915 105.656 398.485C105.566 398.055 105.426 397.69 105.236 397.39C105.056 397.09 104.816 396.86 104.516 396.7C104.216 396.53 103.856 396.445 103.436 396.445C103.016 396.445 102.656 396.53 102.356 396.7C102.056 396.86 101.811 397.09 101.621 397.39C101.441 397.69 101.306 398.055 101.216 398.485C101.126 398.915 101.081 399.39 101.081 399.91V401.62C101.081 402.15 101.126 402.63 101.216 403.06C101.306 403.48 101.441 403.84 101.621 404.14C101.811 404.44 102.056 404.675 102.356 404.845C102.656 405.005 103.016 405.085 103.436 405.085ZM103.436 401.65C103.086 401.65 102.841 401.58 102.701 401.44C102.571 401.3 102.506 401.13 102.506 400.93V400.6C102.506 400.4 102.571 400.23 102.701 400.09C102.841 399.95 103.086 399.88 103.436 399.88C103.786 399.88 104.026 399.95 104.156 400.09C104.296 400.23 104.366 400.4 104.366 400.6V400.93C104.366 401.13 104.296 401.3 104.156 401.44C104.026 401.58 103.786 401.65 103.436 401.65ZM115.97 399.37C115.97 400.15 115.85 400.885 115.61 401.575C115.38 402.255 115.08 402.88 114.71 403.45C114.34 404.01 113.93 404.51 113.48 404.95C113.04 405.38 112.605 405.73 112.175 406H110.555C111.125 405.59 111.63 405.19 112.07 404.8C112.52 404.41 112.915 404.005 113.255 403.585C113.595 403.155 113.88 402.7 114.11 402.22C114.34 401.73 114.53 401.18 114.68 400.57L114.605 400.54C114.345 400.97 114.01 401.33 113.6 401.62C113.2 401.9 112.675 402.04 112.025 402.04C111.565 402.04 111.14 401.965 110.75 401.815C110.37 401.665 110.04 401.45 109.76 401.17C109.49 400.89 109.275 400.555 109.115 400.165C108.965 399.765 108.89 399.315 108.89 398.815C108.89 398.305 108.97 397.84 109.13 397.42C109.3 396.99 109.54 396.625 109.85 396.325C110.16 396.015 110.53 395.775 110.96 395.605C111.4 395.435 111.885 395.35 112.415 395.35C112.965 395.35 113.46 395.445 113.9 395.635C114.34 395.815 114.71 396.08 115.01 396.43C115.32 396.77 115.555 397.19 115.715 397.69C115.885 398.19 115.97 398.75 115.97 399.37ZM112.43 401.005C113.15 401.005 113.705 400.81 114.095 400.42C114.495 400.03 114.695 399.48 114.695 398.77V398.65C114.695 397.94 114.495 397.39 114.095 397C113.705 396.61 113.15 396.415 112.43 396.415C111.71 396.415 111.15 396.61 110.75 397C110.36 397.39 110.165 397.94 110.165 398.65V398.77C110.165 399.48 110.36 400.03 110.75 400.42C111.15 400.81 111.71 401.005 112.43 401.005Z" fill="white"/>
</svg>
