<svg width="1311" height="801" viewBox="0 0 1311 801" fill="none" xmlns="http://www.w3.org/2000/svg">
<path d="M72.875 251C72.285 251 71.85 250.835 71.57 250.505C71.3 250.175 71.165 249.75 71.165 249.23V244.28H68.585V243.26H70.505C70.765 243.26 70.945 243.21 71.045 243.11C71.155 243 71.21 242.815 71.21 242.555V240.53H72.365V243.26H75.89V244.28H72.365V249.98H75.89V251H72.875ZM83.3241 249.74H83.2641C83.1841 249.93 83.0841 250.115 82.9641 250.295C82.8441 250.465 82.6941 250.615 82.5141 250.745C82.3441 250.875 82.1391 250.98 81.8991 251.06C81.6591 251.14 81.3791 251.18 81.0591 251.18C80.2491 251.18 79.5991 250.925 79.1091 250.415C78.6191 249.895 78.3741 249.165 78.3741 248.225V243.26H79.5741V248.015C79.5741 248.725 79.7291 249.255 80.0391 249.605C80.3491 249.945 80.8041 250.115 81.4041 250.115C81.6441 250.115 81.8791 250.085 82.1091 250.025C82.3391 249.965 82.5441 249.875 82.7241 249.755C82.9041 249.635 83.0491 249.485 83.1591 249.305C83.2691 249.115 83.3241 248.89 83.3241 248.63V243.26H84.5241V251H83.3241V249.74ZM87.4583 251V243.26H88.6583V244.52H88.7183C88.7983 244.33 88.8983 244.15 89.0183 243.98C89.1383 243.8 89.2833 243.645 89.4533 243.515C89.6333 243.385 89.8433 243.28 90.0833 243.2C90.3233 243.12 90.6033 243.08 90.9233 243.08C91.7333 243.08 92.3833 243.34 92.8733 243.86C93.3633 244.37 93.6083 245.095 93.6083 246.035V251H92.4083V246.245C92.4083 245.535 92.2533 245.01 91.9433 244.67C91.6333 244.32 91.1783 244.145 90.5783 244.145C90.3383 244.145 90.1033 244.175 89.8733 244.235C89.6433 244.295 89.4383 244.385 89.2583 244.505C89.0783 244.625 88.9333 244.78 88.8233 244.97C88.7133 245.16 88.6583 245.38 88.6583 245.63V251H87.4583ZM96.4524 251V243.26H97.6524V244.52H97.7124C97.7924 244.33 97.8924 244.15 98.0124 243.98C98.1324 243.8 98.2774 243.645 98.4474 243.515C98.6274 243.385 98.8374 243.28 99.0774 243.2C99.3174 243.12 99.5974 243.08 99.9174 243.08C100.727 243.08 101.377 243.34 101.867 243.86C102.357 244.37 102.602 245.095 102.602 246.035V251H101.402V246.245C101.402 245.535 101.247 245.01 100.937 244.67C100.627 244.32 100.172 244.145 99.5724 244.145C99.3324 244.145 99.0974 244.175 98.8674 244.235C98.6374 244.295 98.4324 244.385 98.2524 244.505C98.0724 244.625 97.9274 244.78 97.8174 244.97C97.7074 245.16 97.6524 245.38 97.6524 245.63V251H96.4524ZM108.612 251.18C108.052 251.18 107.547 251.085 107.097 250.895C106.657 250.705 106.277 250.435 105.957 250.085C105.647 249.725 105.407 249.3 105.237 248.81C105.067 248.31 104.982 247.755 104.982 247.145C104.982 246.525 105.067 245.965 105.237 245.465C105.417 244.965 105.662 244.54 105.972 244.19C106.282 243.83 106.652 243.555 107.082 243.365C107.522 243.175 108.007 243.08 108.537 243.08C109.057 243.08 109.527 243.175 109.947 243.365C110.377 243.555 110.742 243.82 111.042 244.16C111.342 244.49 111.572 244.885 111.732 245.345C111.892 245.805 111.972 246.31 111.972 246.86V247.43H106.242V247.79C106.242 248.13 106.297 248.445 106.407 248.735C106.517 249.025 106.672 249.275 106.872 249.485C107.082 249.695 107.332 249.86 107.622 249.98C107.922 250.09 108.252 250.145 108.612 250.145C109.132 250.145 109.582 250.025 109.962 249.785C110.342 249.545 110.632 249.215 110.832 248.795L111.717 249.395C111.487 249.915 111.102 250.345 110.562 250.685C110.032 251.015 109.382 251.18 108.612 251.18ZM108.537 244.07C108.207 244.07 107.902 244.13 107.622 244.25C107.342 244.37 107.097 244.535 106.887 244.745C106.687 244.955 106.527 245.205 106.407 245.495C106.297 245.775 106.242 246.085 106.242 246.425V246.53H110.682V246.365C110.682 246.025 110.627 245.715 110.517 245.435C110.417 245.155 110.272 244.915 110.082 244.715C109.902 244.505 109.677 244.345 109.407 244.235C109.147 244.125 108.857 244.07 108.537 244.07ZM114.171 249.98H116.871V240.92H114.171V239.9H118.071V249.98H120.771V251H114.171V249.98ZM133.554 251L137.649 241.61H133.059V243.56H131.934V240.53H138.924V241.64L134.904 251H133.554ZM140.853 246.995V245.885H148.053V246.995H140.853ZM150.222 251V249.905H153.222V241.46H153.117L150.477 243.92L149.742 243.125L152.517 240.53H154.482V249.905H157.242V251H150.222ZM160.266 247.07V245.81H164.616V247.07H160.266ZM171.436 251.18C170.796 251.18 170.246 251.06 169.786 250.82C169.326 250.57 168.946 250.215 168.646 249.755C168.346 249.295 168.126 248.73 167.986 248.06C167.846 247.39 167.776 246.625 167.776 245.765C167.776 244.915 167.846 244.155 167.986 243.485C168.126 242.805 168.346 242.235 168.646 241.775C168.946 241.315 169.326 240.965 169.786 240.725C170.246 240.475 170.796 240.35 171.436 240.35C172.076 240.35 172.626 240.475 173.086 240.725C173.546 240.965 173.926 241.315 174.226 241.775C174.526 242.235 174.746 242.805 174.886 243.485C175.026 244.155 175.096 244.915 175.096 245.765C175.096 246.625 175.026 247.39 174.886 248.06C174.746 248.73 174.526 249.295 174.226 249.755C173.926 250.215 173.546 250.57 173.086 250.82C172.626 251.06 172.076 251.18 171.436 251.18ZM171.436 250.085C171.856 250.085 172.216 250.005 172.516 249.845C172.816 249.675 173.056 249.44 173.236 249.14C173.426 248.84 173.566 248.48 173.656 248.06C173.746 247.63 173.791 247.15 173.791 246.62V244.91C173.791 244.39 173.746 243.915 173.656 243.485C173.566 243.055 173.426 242.69 173.236 242.39C173.056 242.09 172.816 241.86 172.516 241.7C172.216 241.53 171.856 241.445 171.436 241.445C171.016 241.445 170.656 241.53 170.356 241.7C170.056 241.86 169.811 242.09 169.621 242.39C169.441 242.69 169.306 243.055 169.216 243.485C169.126 243.915 169.081 244.39 169.081 244.91V246.62C169.081 247.15 169.126 247.63 169.216 248.06C169.306 248.48 169.441 248.84 169.621 249.14C169.811 249.44 170.056 249.675 170.356 249.845C170.656 250.005 171.016 250.085 171.436 250.085ZM171.436 246.65C171.086 246.65 170.841 246.58 170.701 246.44C170.571 246.3 170.506 246.13 170.506 245.93V245.6C170.506 245.4 170.571 245.23 170.701 245.09C170.841 244.95 171.086 244.88 171.436 244.88C171.786 244.88 172.026 244.95 172.156 245.09C172.296 245.23 172.366 245.4 172.366 245.6V245.93C172.366 246.13 172.296 246.3 172.156 246.44C172.026 246.58 171.786 246.65 171.436 246.65ZM183.985 251H176.995V249.71L180.49 246.56C181 246.1 181.42 245.63 181.75 245.15C182.08 244.66 182.245 244.145 182.245 243.605V243.425C182.245 242.795 182.08 242.31 181.75 241.97C181.42 241.62 180.93 241.445 180.28 241.445C179.64 241.445 179.145 241.61 178.795 241.94C178.455 242.26 178.2 242.69 178.03 243.23L176.905 242.81C177.005 242.5 177.14 242.2 177.31 241.91C177.49 241.61 177.715 241.345 177.985 241.115C178.255 240.885 178.58 240.7 178.96 240.56C179.35 240.42 179.8 240.35 180.31 240.35C180.83 240.35 181.29 240.425 181.69 240.575C182.1 240.725 182.44 240.935 182.71 241.205C182.99 241.475 183.2 241.795 183.34 242.165C183.49 242.535 183.565 242.94 183.565 243.38C183.565 243.78 183.505 244.155 183.385 244.505C183.275 244.855 183.115 245.19 182.905 245.51C182.705 245.83 182.46 246.145 182.17 246.455C181.89 246.755 181.575 247.055 181.225 247.355L178.3 249.905H183.985V251Z" fill="white"/>
</svg>
