<svg width="1311" height="801" viewBox="0 0 1311 801" fill="none" xmlns="http://www.w3.org/2000/svg">
<path d="M152.875 178C152.285 178 151.85 177.835 151.57 177.505C151.3 177.175 151.165 176.75 151.165 176.23V171.28H148.585V170.26H150.505C150.765 170.26 150.945 170.21 151.045 170.11C151.155 170 151.21 169.815 151.21 169.555V167.53H152.365V170.26H155.89V171.28H152.365V176.98H155.89V178H152.875ZM163.324 176.74H163.264C163.184 176.93 163.084 177.115 162.964 177.295C162.844 177.465 162.694 177.615 162.514 177.745C162.344 177.875 162.139 177.98 161.899 178.06C161.659 178.14 161.379 178.18 161.059 178.18C160.249 178.18 159.599 177.925 159.109 177.415C158.619 176.895 158.374 176.165 158.374 175.225V170.26H159.574V175.015C159.574 175.725 159.729 176.255 160.039 176.605C160.349 176.945 160.804 177.115 161.404 177.115C161.644 177.115 161.879 177.085 162.109 177.025C162.339 176.965 162.544 176.875 162.724 176.755C162.904 176.635 163.049 176.485 163.159 176.305C163.269 176.115 163.324 175.89 163.324 175.63V170.26H164.524V178H163.324V176.74ZM167.458 178V170.26H168.658V171.52H168.718C168.798 171.33 168.898 171.15 169.018 170.98C169.138 170.8 169.283 170.645 169.453 170.515C169.633 170.385 169.843 170.28 170.083 170.2C170.323 170.12 170.603 170.08 170.923 170.08C171.733 170.08 172.383 170.34 172.873 170.86C173.363 171.37 173.608 172.095 173.608 173.035V178H172.408V173.245C172.408 172.535 172.253 172.01 171.943 171.67C171.633 171.32 171.178 171.145 170.578 171.145C170.338 171.145 170.103 171.175 169.873 171.235C169.643 171.295 169.438 171.385 169.258 171.505C169.078 171.625 168.933 171.78 168.823 171.97C168.713 172.16 168.658 172.38 168.658 172.63V178H167.458ZM176.452 178V170.26H177.652V171.52H177.712C177.792 171.33 177.892 171.15 178.012 170.98C178.132 170.8 178.277 170.645 178.447 170.515C178.627 170.385 178.837 170.28 179.077 170.2C179.317 170.12 179.597 170.08 179.917 170.08C180.727 170.08 181.377 170.34 181.867 170.86C182.357 171.37 182.602 172.095 182.602 173.035V178H181.402V173.245C181.402 172.535 181.247 172.01 180.937 171.67C180.627 171.32 180.172 171.145 179.572 171.145C179.332 171.145 179.097 171.175 178.867 171.235C178.637 171.295 178.432 171.385 178.252 171.505C178.072 171.625 177.927 171.78 177.817 171.97C177.707 172.16 177.652 172.38 177.652 172.63V178H176.452ZM188.612 178.18C188.052 178.18 187.547 178.085 187.097 177.895C186.657 177.705 186.277 177.435 185.957 177.085C185.647 176.725 185.407 176.3 185.237 175.81C185.067 175.31 184.982 174.755 184.982 174.145C184.982 173.525 185.067 172.965 185.237 172.465C185.417 171.965 185.662 171.54 185.972 171.19C186.282 170.83 186.652 170.555 187.082 170.365C187.522 170.175 188.007 170.08 188.537 170.08C189.057 170.08 189.527 170.175 189.947 170.365C190.377 170.555 190.742 170.82 191.042 171.16C191.342 171.49 191.572 171.885 191.732 172.345C191.892 172.805 191.972 173.31 191.972 173.86V174.43H186.242V174.79C186.242 175.13 186.297 175.445 186.407 175.735C186.517 176.025 186.672 176.275 186.872 176.485C187.082 176.695 187.332 176.86 187.622 176.98C187.922 177.09 188.252 177.145 188.612 177.145C189.132 177.145 189.582 177.025 189.962 176.785C190.342 176.545 190.632 176.215 190.832 175.795L191.717 176.395C191.487 176.915 191.102 177.345 190.562 177.685C190.032 178.015 189.382 178.18 188.612 178.18ZM188.537 171.07C188.207 171.07 187.902 171.13 187.622 171.25C187.342 171.37 187.097 171.535 186.887 171.745C186.687 171.955 186.527 172.205 186.407 172.495C186.297 172.775 186.242 173.085 186.242 173.425V173.53H190.682V173.365C190.682 173.025 190.627 172.715 190.517 172.435C190.417 172.155 190.272 171.915 190.082 171.715C189.902 171.505 189.677 171.345 189.407 171.235C189.147 171.125 188.857 171.07 188.537 171.07ZM194.171 176.98H196.871V167.92H194.171V166.9H198.071V176.98H200.771V178H194.171V176.98ZM213.554 178L217.649 168.61H213.059V170.56H211.934V167.53H218.924V168.64L214.904 178H213.554ZM220.853 173.995V172.885H228.053V173.995H220.853ZM232.997 171.97C233.727 171.97 234.272 171.81 234.632 171.49C235.002 171.16 235.187 170.74 235.187 170.23V170.125C235.187 169.565 235.007 169.145 234.647 168.865C234.297 168.585 233.837 168.445 233.267 168.445C232.707 168.445 232.252 168.57 231.902 168.82C231.562 169.06 231.282 169.38 231.062 169.78L230.117 169.06C230.247 168.85 230.407 168.645 230.597 168.445C230.787 168.235 231.007 168.05 231.257 167.89C231.517 167.73 231.812 167.6 232.142 167.5C232.482 167.4 232.867 167.35 233.297 167.35C233.747 167.35 234.167 167.41 234.557 167.53C234.947 167.64 235.287 167.81 235.577 168.04C235.867 168.26 236.092 168.535 236.252 168.865C236.422 169.195 236.507 169.57 236.507 169.99C236.507 170.33 236.452 170.635 236.342 170.905C236.242 171.175 236.097 171.41 235.907 171.61C235.727 171.81 235.512 171.98 235.262 172.12C235.012 172.26 234.747 172.365 234.467 172.435V172.495C234.757 172.555 235.037 172.655 235.307 172.795C235.577 172.925 235.817 173.1 236.027 173.32C236.237 173.53 236.402 173.79 236.522 174.1C236.652 174.4 236.717 174.745 236.717 175.135C236.717 175.585 236.627 176 236.447 176.38C236.277 176.75 236.032 177.07 235.712 177.34C235.402 177.6 235.022 177.805 234.572 177.955C234.132 178.105 233.642 178.18 233.102 178.18C232.642 178.18 232.232 178.13 231.872 178.03C231.522 177.93 231.207 177.795 230.927 177.625C230.657 177.455 230.417 177.265 230.207 177.055C230.007 176.845 229.827 176.625 229.667 176.395L230.612 175.675C230.752 175.885 230.897 176.075 231.047 176.245C231.197 176.415 231.367 176.565 231.557 176.695C231.757 176.815 231.982 176.91 232.232 176.98C232.482 177.05 232.772 177.085 233.102 177.085C233.842 177.085 234.407 176.915 234.797 176.575C235.197 176.235 235.397 175.75 235.397 175.12V175C235.397 174.38 235.202 173.9 234.812 173.56C234.432 173.22 233.857 173.05 233.087 173.05H231.842V171.97H232.997ZM240.266 174.07V172.81H244.616V174.07H240.266ZM248.211 178V176.905H251.211V168.46H251.106L248.466 170.92L247.731 170.125L250.506 167.53H252.471V176.905H255.231V178H248.211ZM260.43 178.18C259.79 178.18 259.24 178.06 258.78 177.82C258.32 177.57 257.94 177.215 257.64 176.755C257.34 176.295 257.12 175.73 256.98 175.06C256.84 174.39 256.77 173.625 256.77 172.765C256.77 171.915 256.84 171.155 256.98 170.485C257.12 169.805 257.34 169.235 257.64 168.775C257.94 168.315 258.32 167.965 258.78 167.725C259.24 167.475 259.79 167.35 260.43 167.35C261.07 167.35 261.62 167.475 262.08 167.725C262.54 167.965 262.92 168.315 263.22 168.775C263.52 169.235 263.74 169.805 263.88 170.485C264.02 171.155 264.09 171.915 264.09 172.765C264.09 173.625 264.02 174.39 263.88 175.06C263.74 175.73 263.52 176.295 263.22 176.755C262.92 177.215 262.54 177.57 262.08 177.82C261.62 178.06 261.07 178.18 260.43 178.18ZM260.43 177.085C260.85 177.085 261.21 177.005 261.51 176.845C261.81 176.675 262.05 176.44 262.23 176.14C262.42 175.84 262.56 175.48 262.65 175.06C262.74 174.63 262.785 174.15 262.785 173.62V171.91C262.785 171.39 262.74 170.915 262.65 170.485C262.56 170.055 262.42 169.69 262.23 169.39C262.05 169.09 261.81 168.86 261.51 168.7C261.21 168.53 260.85 168.445 260.43 168.445C260.01 168.445 259.65 168.53 259.35 168.7C259.05 168.86 258.805 169.09 258.615 169.39C258.435 169.69 258.3 170.055 258.21 170.485C258.12 170.915 258.075 171.39 258.075 171.91V173.62C258.075 174.15 258.12 174.63 258.21 175.06C258.3 175.48 258.435 175.84 258.615 176.14C258.805 176.44 259.05 176.675 259.35 176.845C259.65 177.005 260.01 177.085 260.43 177.085ZM260.43 173.65C260.08 173.65 259.835 173.58 259.695 173.44C259.565 173.3 259.5 173.13 259.5 172.93V172.6C259.5 172.4 259.565 172.23 259.695 172.09C259.835 171.95 260.08 171.88 260.43 171.88C260.78 171.88 261.02 171.95 261.15 172.09C261.29 172.23 261.36 172.4 261.36 172.6V172.93C261.36 173.13 261.29 173.3 261.15 173.44C261.02 173.58 260.78 173.65 260.43 173.65Z" fill="white"/>
</svg>
