<svg width="1311" height="801" viewBox="0 0 1311 801" fill="none" xmlns="http://www.w3.org/2000/svg">
<path d="M289.875 113C289.285 113 288.85 112.835 288.57 112.505C288.3 112.175 288.165 111.75 288.165 111.23V106.28H285.585V105.26H287.505C287.765 105.26 287.945 105.21 288.045 105.11C288.155 105 288.21 104.815 288.21 104.555V102.53H289.365V105.26H292.89V106.28H289.365V111.98H292.89V113H289.875ZM300.324 111.74H300.264C300.184 111.93 300.084 112.115 299.964 112.295C299.844 112.465 299.694 112.615 299.514 112.745C299.344 112.875 299.139 112.98 298.899 113.06C298.659 113.14 298.379 113.18 298.059 113.18C297.249 113.18 296.599 112.925 296.109 112.415C295.619 111.895 295.374 111.165 295.374 110.225V105.26H296.574V110.015C296.574 110.725 296.729 111.255 297.039 111.605C297.349 111.945 297.804 112.115 298.404 112.115C298.644 112.115 298.879 112.085 299.109 112.025C299.339 111.965 299.544 111.875 299.724 111.755C299.904 111.635 300.049 111.485 300.159 111.305C300.269 111.115 300.324 110.89 300.324 110.63V105.26H301.524V113H300.324V111.74ZM304.458 113V105.26H305.658V106.52H305.718C305.798 106.33 305.898 106.15 306.018 105.98C306.138 105.8 306.283 105.645 306.453 105.515C306.633 105.385 306.843 105.28 307.083 105.2C307.323 105.12 307.603 105.08 307.923 105.08C308.733 105.08 309.383 105.34 309.873 105.86C310.363 106.37 310.608 107.095 310.608 108.035V113H309.408V108.245C309.408 107.535 309.253 107.01 308.943 106.67C308.633 106.32 308.178 106.145 307.578 106.145C307.338 106.145 307.103 106.175 306.873 106.235C306.643 106.295 306.438 106.385 306.258 106.505C306.078 106.625 305.933 106.78 305.823 106.97C305.713 107.16 305.658 107.38 305.658 107.63V113H304.458ZM313.452 113V105.26H314.652V106.52H314.712C314.792 106.33 314.892 106.15 315.012 105.98C315.132 105.8 315.277 105.645 315.447 105.515C315.627 105.385 315.837 105.28 316.077 105.2C316.317 105.12 316.597 105.08 316.917 105.08C317.727 105.08 318.377 105.34 318.867 105.86C319.357 106.37 319.602 107.095 319.602 108.035V113H318.402V108.245C318.402 107.535 318.247 107.01 317.937 106.67C317.627 106.32 317.172 106.145 316.572 106.145C316.332 106.145 316.097 106.175 315.867 106.235C315.637 106.295 315.432 106.385 315.252 106.505C315.072 106.625 314.927 106.78 314.817 106.97C314.707 107.16 314.652 107.38 314.652 107.63V113H313.452ZM325.612 113.18C325.052 113.18 324.547 113.085 324.097 112.895C323.657 112.705 323.277 112.435 322.957 112.085C322.647 111.725 322.407 111.3 322.237 110.81C322.067 110.31 321.982 109.755 321.982 109.145C321.982 108.525 322.067 107.965 322.237 107.465C322.417 106.965 322.662 106.54 322.972 106.19C323.282 105.83 323.652 105.555 324.082 105.365C324.522 105.175 325.007 105.08 325.537 105.08C326.057 105.08 326.527 105.175 326.947 105.365C327.377 105.555 327.742 105.82 328.042 106.16C328.342 106.49 328.572 106.885 328.732 107.345C328.892 107.805 328.972 108.31 328.972 108.86V109.43H323.242V109.79C323.242 110.13 323.297 110.445 323.407 110.735C323.517 111.025 323.672 111.275 323.872 111.485C324.082 111.695 324.332 111.86 324.622 111.98C324.922 112.09 325.252 112.145 325.612 112.145C326.132 112.145 326.582 112.025 326.962 111.785C327.342 111.545 327.632 111.215 327.832 110.795L328.717 111.395C328.487 111.915 328.102 112.345 327.562 112.685C327.032 113.015 326.382 113.18 325.612 113.18ZM325.537 106.07C325.207 106.07 324.902 106.13 324.622 106.25C324.342 106.37 324.097 106.535 323.887 106.745C323.687 106.955 323.527 107.205 323.407 107.495C323.297 107.775 323.242 108.085 323.242 108.425V108.53H327.682V108.365C327.682 108.025 327.627 107.715 327.517 107.435C327.417 107.155 327.272 106.915 327.082 106.715C326.902 106.505 326.677 106.345 326.407 106.235C326.147 106.125 325.857 106.07 325.537 106.07ZM331.171 111.98H333.871V102.92H331.171V101.9H335.071V111.98H337.771V113H331.171V111.98ZM350.554 113L354.649 103.61H350.059V105.56H348.934V102.53H355.924V103.64L351.904 113H350.554ZM357.853 108.995V107.885H365.053V108.995H357.853ZM370.462 113.18C369.912 113.18 369.417 113.09 368.977 112.91C368.537 112.72 368.162 112.455 367.852 112.115C367.552 111.765 367.317 111.34 367.147 110.84C366.987 110.34 366.907 109.78 366.907 109.16C366.907 108.38 367.022 107.65 367.252 106.97C367.492 106.28 367.792 105.655 368.152 105.095C368.522 104.525 368.932 104.025 369.382 103.595C369.832 103.155 370.272 102.8 370.702 102.53H372.322C371.752 102.94 371.242 103.34 370.792 103.73C370.352 104.12 369.962 104.53 369.622 104.96C369.282 105.38 368.997 105.835 368.767 106.325C368.537 106.805 368.347 107.35 368.197 107.96L368.272 107.99C368.522 107.56 368.852 107.205 369.262 106.925C369.672 106.635 370.202 106.49 370.852 106.49C371.312 106.49 371.732 106.565 372.112 106.715C372.492 106.865 372.822 107.08 373.102 107.36C373.382 107.64 373.597 107.98 373.747 108.38C373.907 108.78 373.987 109.225 373.987 109.715C373.987 110.225 373.902 110.695 373.732 111.125C373.562 111.545 373.322 111.91 373.012 112.22C372.712 112.52 372.342 112.755 371.902 112.925C371.472 113.095 370.992 113.18 370.462 113.18ZM370.447 112.115C371.167 112.115 371.722 111.92 372.112 111.53C372.512 111.14 372.712 110.59 372.712 109.88V109.76C372.712 109.05 372.512 108.5 372.112 108.11C371.722 107.72 371.167 107.525 370.447 107.525C369.727 107.525 369.167 107.72 368.767 108.11C368.377 108.5 368.182 109.05 368.182 109.76V109.88C368.182 110.59 368.377 111.14 368.767 111.53C369.167 111.92 369.727 112.115 370.447 112.115ZM377.266 109.07V107.81H381.616V109.07H377.266ZM385.211 113V111.905H388.211V103.46H388.106L385.466 105.92L384.731 105.125L387.506 102.53H389.471V111.905H392.231V113H385.211ZM397.43 113.18C396.79 113.18 396.24 113.06 395.78 112.82C395.32 112.57 394.94 112.215 394.64 111.755C394.34 111.295 394.12 110.73 393.98 110.06C393.84 109.39 393.77 108.625 393.77 107.765C393.77 106.915 393.84 106.155 393.98 105.485C394.12 104.805 394.34 104.235 394.64 103.775C394.94 103.315 395.32 102.965 395.78 102.725C396.24 102.475 396.79 102.35 397.43 102.35C398.07 102.35 398.62 102.475 399.08 102.725C399.54 102.965 399.92 103.315 400.22 103.775C400.52 104.235 400.74 104.805 400.88 105.485C401.02 106.155 401.09 106.915 401.09 107.765C401.09 108.625 401.02 109.39 400.88 110.06C400.74 110.73 400.52 111.295 400.22 111.755C399.92 112.215 399.54 112.57 399.08 112.82C398.62 113.06 398.07 113.18 397.43 113.18ZM397.43 112.085C397.85 112.085 398.21 112.005 398.51 111.845C398.81 111.675 399.05 111.44 399.23 111.14C399.42 110.84 399.56 110.48 399.65 110.06C399.74 109.63 399.785 109.15 399.785 108.62V106.91C399.785 106.39 399.74 105.915 399.65 105.485C399.56 105.055 399.42 104.69 399.23 104.39C399.05 104.09 398.81 103.86 398.51 103.7C398.21 103.53 397.85 103.445 397.43 103.445C397.01 103.445 396.65 103.53 396.35 103.7C396.05 103.86 395.805 104.09 395.615 104.39C395.435 104.69 395.3 105.055 395.21 105.485C395.12 105.915 395.075 106.39 395.075 106.91V108.62C395.075 109.15 395.12 109.63 395.21 110.06C395.3 110.48 395.435 110.84 395.615 111.14C395.805 111.44 396.05 111.675 396.35 111.845C396.65 112.005 397.01 112.085 397.43 112.085ZM397.43 108.65C397.08 108.65 396.835 108.58 396.695 108.44C396.565 108.3 396.5 108.13 396.5 107.93V107.6C396.5 107.4 396.565 107.23 396.695 107.09C396.835 106.95 397.08 106.88 397.43 106.88C397.78 106.88 398.02 106.95 398.15 107.09C398.29 107.23 398.36 107.4 398.36 107.6V107.93C398.36 108.13 398.29 108.3 398.15 108.44C398.02 108.58 397.78 108.65 397.43 108.65Z" fill="white"/>
</svg>
