<svg width="1311" height="801" viewBox="0 0 1311 801" fill="none" xmlns="http://www.w3.org/2000/svg">
<path d="M426.875 52C426.285 52 425.85 51.835 425.57 51.505C425.3 51.175 425.165 50.75 425.165 50.23V45.28H422.585V44.26H424.505C424.765 44.26 424.945 44.21 425.045 44.11C425.155 44 425.21 43.815 425.21 43.555V41.53H426.365V44.26H429.89V45.28H426.365V50.98H429.89V52H426.875ZM437.324 50.74H437.264C437.184 50.93 437.084 51.115 436.964 51.295C436.844 51.465 436.694 51.615 436.514 51.745C436.344 51.875 436.139 51.98 435.899 52.06C435.659 52.14 435.379 52.18 435.059 52.18C434.249 52.18 433.599 51.925 433.109 51.415C432.619 50.895 432.374 50.165 432.374 49.225V44.26H433.574V49.015C433.574 49.725 433.729 50.255 434.039 50.605C434.349 50.945 434.804 51.115 435.404 51.115C435.644 51.115 435.879 51.085 436.109 51.025C436.339 50.965 436.544 50.875 436.724 50.755C436.904 50.635 437.049 50.485 437.159 50.305C437.269 50.115 437.324 49.89 437.324 49.63V44.26H438.524V52H437.324V50.74ZM441.458 52V44.26H442.658V45.52H442.718C442.798 45.33 442.898 45.15 443.018 44.98C443.138 44.8 443.283 44.645 443.453 44.515C443.633 44.385 443.843 44.28 444.083 44.2C444.323 44.12 444.603 44.08 444.923 44.08C445.733 44.08 446.383 44.34 446.873 44.86C447.363 45.37 447.608 46.095 447.608 47.035V52H446.408V47.245C446.408 46.535 446.253 46.01 445.943 45.67C445.633 45.32 445.178 45.145 444.578 45.145C444.338 45.145 444.103 45.175 443.873 45.235C443.643 45.295 443.438 45.385 443.258 45.505C443.078 45.625 442.933 45.78 442.823 45.97C442.713 46.16 442.658 46.38 442.658 46.63V52H441.458ZM450.452 52V44.26H451.652V45.52H451.712C451.792 45.33 451.892 45.15 452.012 44.98C452.132 44.8 452.277 44.645 452.447 44.515C452.627 44.385 452.837 44.28 453.077 44.2C453.317 44.12 453.597 44.08 453.917 44.08C454.727 44.08 455.377 44.34 455.867 44.86C456.357 45.37 456.602 46.095 456.602 47.035V52H455.402V47.245C455.402 46.535 455.247 46.01 454.937 45.67C454.627 45.32 454.172 45.145 453.572 45.145C453.332 45.145 453.097 45.175 452.867 45.235C452.637 45.295 452.432 45.385 452.252 45.505C452.072 45.625 451.927 45.78 451.817 45.97C451.707 46.16 451.652 46.38 451.652 46.63V52H450.452ZM462.612 52.18C462.052 52.18 461.547 52.085 461.097 51.895C460.657 51.705 460.277 51.435 459.957 51.085C459.647 50.725 459.407 50.3 459.237 49.81C459.067 49.31 458.982 48.755 458.982 48.145C458.982 47.525 459.067 46.965 459.237 46.465C459.417 45.965 459.662 45.54 459.972 45.19C460.282 44.83 460.652 44.555 461.082 44.365C461.522 44.175 462.007 44.08 462.537 44.08C463.057 44.08 463.527 44.175 463.947 44.365C464.377 44.555 464.742 44.82 465.042 45.16C465.342 45.49 465.572 45.885 465.732 46.345C465.892 46.805 465.972 47.31 465.972 47.86V48.43H460.242V48.79C460.242 49.13 460.297 49.445 460.407 49.735C460.517 50.025 460.672 50.275 460.872 50.485C461.082 50.695 461.332 50.86 461.622 50.98C461.922 51.09 462.252 51.145 462.612 51.145C463.132 51.145 463.582 51.025 463.962 50.785C464.342 50.545 464.632 50.215 464.832 49.795L465.717 50.395C465.487 50.915 465.102 51.345 464.562 51.685C464.032 52.015 463.382 52.18 462.612 52.18ZM462.537 45.07C462.207 45.07 461.902 45.13 461.622 45.25C461.342 45.37 461.097 45.535 460.887 45.745C460.687 45.955 460.527 46.205 460.407 46.495C460.297 46.775 460.242 47.085 460.242 47.425V47.53H464.682V47.365C464.682 47.025 464.627 46.715 464.517 46.435C464.417 46.155 464.272 45.915 464.082 45.715C463.902 45.505 463.677 45.345 463.407 45.235C463.147 45.125 462.857 45.07 462.537 45.07ZM468.171 50.98H470.871V41.92H468.171V40.9H472.071V50.98H474.771V52H468.171V50.98ZM489.459 52.18C488.849 52.18 488.314 52.105 487.854 51.955C487.394 51.795 487.009 51.58 486.699 51.31C486.399 51.04 486.169 50.72 486.009 50.35C485.859 49.98 485.784 49.58 485.784 49.15C485.784 48.43 485.979 47.86 486.369 47.44C486.759 47.02 487.274 46.725 487.914 46.555V46.435C487.354 46.245 486.909 45.94 486.579 45.52C486.259 45.09 486.099 44.575 486.099 43.975C486.099 43.175 486.394 42.54 486.984 42.07C487.574 41.59 488.399 41.35 489.459 41.35C490.519 41.35 491.344 41.59 491.934 42.07C492.524 42.54 492.819 43.175 492.819 43.975C492.819 44.575 492.654 45.09 492.324 45.52C492.004 45.94 491.564 46.245 491.004 46.435V46.555C491.644 46.725 492.159 47.02 492.549 47.44C492.939 47.86 493.134 48.43 493.134 49.15C493.134 49.58 493.054 49.98 492.894 50.35C492.744 50.72 492.514 51.04 492.204 51.31C491.894 51.58 491.509 51.795 491.049 51.955C490.599 52.105 490.069 52.18 489.459 52.18ZM489.459 51.115C490.199 51.115 490.779 50.95 491.199 50.62C491.619 50.29 491.829 49.825 491.829 49.225V48.895C491.829 48.295 491.619 47.83 491.199 47.5C490.789 47.17 490.209 47.005 489.459 47.005C488.709 47.005 488.124 47.17 487.704 47.5C487.294 47.83 487.089 48.295 487.089 48.895V49.225C487.089 49.825 487.299 50.29 487.719 50.62C488.139 50.95 488.719 51.115 489.459 51.115ZM489.459 45.985C490.139 45.985 490.654 45.84 491.004 45.55C491.364 45.26 491.544 44.845 491.544 44.305V44.095C491.544 43.555 491.359 43.14 490.989 42.85C490.629 42.56 490.119 42.415 489.459 42.415C488.799 42.415 488.284 42.56 487.914 42.85C487.554 43.14 487.374 43.555 487.374 44.095V44.305C487.374 44.845 487.549 45.26 487.899 45.55C488.259 45.84 488.779 45.985 489.459 45.985ZM494.853 47.995V46.885L502.053 46.885V47.995L494.853 47.995ZM507.462 52.18C506.912 52.18 506.417 52.09 505.977 51.91C505.537 51.72 505.162 51.455 504.852 51.115C504.552 50.765 504.317 50.34 504.147 49.84C503.987 49.34 503.907 48.78 503.907 48.16C503.907 47.38 504.022 46.65 504.252 45.97C504.492 45.28 504.792 44.655 505.152 44.095C505.522 43.525 505.932 43.025 506.382 42.595C506.832 42.155 507.272 41.8 507.702 41.53H509.322C508.752 41.94 508.242 42.34 507.792 42.73C507.352 43.12 506.962 43.53 506.622 43.96C506.282 44.38 505.997 44.835 505.767 45.325C505.537 45.805 505.347 46.35 505.197 46.96L505.272 46.99C505.522 46.56 505.852 46.205 506.262 45.925C506.672 45.635 507.202 45.49 507.852 45.49C508.312 45.49 508.732 45.565 509.112 45.715C509.492 45.865 509.822 46.08 510.102 46.36C510.382 46.64 510.597 46.98 510.747 47.38C510.907 47.78 510.987 48.225 510.987 48.715C510.987 49.225 510.902 49.695 510.732 50.125C510.562 50.545 510.322 50.91 510.012 51.22C509.712 51.52 509.342 51.755 508.902 51.925C508.472 52.095 507.992 52.18 507.462 52.18ZM507.447 51.115C508.167 51.115 508.722 50.92 509.112 50.53C509.512 50.14 509.712 49.59 509.712 48.88V48.76C509.712 48.05 509.512 47.5 509.112 47.11C508.722 46.72 508.167 46.525 507.447 46.525C506.727 46.525 506.167 46.72 505.767 47.11C505.377 47.5 505.182 48.05 505.182 48.76V48.88C505.182 49.59 505.377 50.14 505.767 50.53C506.167 50.92 506.727 51.115 507.447 51.115ZM514.266 48.07V46.81H518.616V48.07H514.266ZM522.211 52V50.905H525.211V42.46H525.106L522.466 44.92L521.731 44.125L524.506 41.53H526.471V50.905H529.231V52H522.211ZM534.43 52.18C533.79 52.18 533.24 52.06 532.78 51.82C532.32 51.57 531.94 51.215 531.64 50.755C531.34 50.295 531.12 49.73 530.98 49.06C530.84 48.39 530.77 47.625 530.77 46.765C530.77 45.915 530.84 45.155 530.98 44.485C531.12 43.805 531.34 43.235 531.64 42.775C531.94 42.315 532.32 41.965 532.78 41.725C533.24 41.475 533.79 41.35 534.43 41.35C535.07 41.35 535.62 41.475 536.08 41.725C536.54 41.965 536.92 42.315 537.22 42.775C537.52 43.235 537.74 43.805 537.88 44.485C538.02 45.155 538.09 45.915 538.09 46.765C538.09 47.625 538.02 48.39 537.88 49.06C537.74 49.73 537.52 50.295 537.22 50.755C536.92 51.215 536.54 51.57 536.08 51.82C535.62 52.06 535.07 52.18 534.43 52.18ZM534.43 51.085C534.85 51.085 535.21 51.005 535.51 50.845C535.81 50.675 536.05 50.44 536.23 50.14C536.42 49.84 536.56 49.48 536.65 49.06C536.74 48.63 536.785 48.15 536.785 47.62V45.91C536.785 45.39 536.74 44.915 536.65 44.485C536.56 44.055 536.42 43.69 536.23 43.39C536.05 43.09 535.81 42.86 535.51 42.7C535.21 42.53 534.85 42.445 534.43 42.445C534.01 42.445 533.65 42.53 533.35 42.7C533.05 42.86 532.805 43.09 532.615 43.39C532.435 43.69 532.3 44.055 532.21 44.485C532.12 44.915 532.075 45.39 532.075 45.91V47.62C532.075 48.15 532.12 48.63 532.21 49.06C532.3 49.48 532.435 49.84 532.615 50.14C532.805 50.44 533.05 50.675 533.35 50.845C533.65 51.005 534.01 51.085 534.43 51.085ZM534.43 47.65C534.08 47.65 533.835 47.58 533.695 47.44C533.565 47.3 533.5 47.13 533.5 46.93V46.6C533.5 46.4 533.565 46.23 533.695 46.09C533.835 45.95 534.08 45.88 534.43 45.88C534.78 45.88 535.02 45.95 535.15 46.09C535.29 46.23 535.36 46.4 535.36 46.6V46.93C535.36 47.13 535.29 47.3 535.15 47.44C535.02 47.58 534.78 47.65 534.43 47.65Z" fill="white"/>
</svg>
