<svg width="1311" height="801" viewBox="0 0 1311 801" fill="none" xmlns="http://www.w3.org/2000/svg">
<path d="M617.77 797.18C617.21 797.18 616.71 797.085 616.27 796.895C615.84 796.695 615.475 796.42 615.175 796.07C614.875 795.72 614.645 795.295 614.485 794.795C614.335 794.295 614.26 793.74 614.26 793.13C614.26 792.52 614.34 791.965 614.5 791.465C614.66 790.965 614.89 790.54 615.19 790.19C615.49 789.83 615.855 789.555 616.285 789.365C616.715 789.175 617.205 789.08 617.755 789.08C618.505 789.08 619.115 789.245 619.585 789.575C620.055 789.905 620.4 790.335 620.62 790.865L619.66 791.375C619.52 790.975 619.285 790.665 618.955 790.445C618.635 790.225 618.235 790.115 617.755 790.115C617.405 790.115 617.09 790.175 616.81 790.295C616.54 790.405 616.31 790.565 616.12 790.775C615.93 790.985 615.785 791.235 615.685 791.525C615.595 791.815 615.55 792.13 615.55 792.47V793.79C615.55 794.13 615.595 794.445 615.685 794.735C615.785 795.025 615.93 795.275 616.12 795.485C616.31 795.695 616.545 795.86 616.825 795.98C617.105 796.09 617.425 796.145 617.785 796.145C618.305 796.145 618.735 796.025 619.075 795.785C619.415 795.545 619.685 795.215 619.885 794.795L620.74 795.38C620.51 795.9 620.15 796.33 619.66 796.67C619.18 797.01 618.55 797.18 617.77 797.18ZM626.629 797.18C626.069 797.18 625.564 797.085 625.114 796.895C624.674 796.705 624.294 796.435 623.974 796.085C623.664 795.725 623.424 795.3 623.254 794.81C623.084 794.31 622.999 793.755 622.999 793.145C622.999 792.525 623.084 791.965 623.254 791.465C623.434 790.965 623.679 790.54 623.989 790.19C624.299 789.83 624.669 789.555 625.099 789.365C625.539 789.175 626.024 789.08 626.554 789.08C627.074 789.08 627.544 789.175 627.964 789.365C628.394 789.555 628.759 789.82 629.059 790.16C629.359 790.49 629.589 790.885 629.749 791.345C629.909 791.805 629.989 792.31 629.989 792.86V793.43H624.259V793.79C624.259 794.13 624.314 794.445 624.424 794.735C624.534 795.025 624.689 795.275 624.889 795.485C625.099 795.695 625.349 795.86 625.639 795.98C625.939 796.09 626.269 796.145 626.629 796.145C627.149 796.145 627.599 796.025 627.979 795.785C628.359 795.545 628.649 795.215 628.849 794.795L629.734 795.395C629.504 795.915 629.119 796.345 628.579 796.685C628.049 797.015 627.399 797.18 626.629 797.18ZM626.554 790.07C626.224 790.07 625.919 790.13 625.639 790.25C625.359 790.37 625.114 790.535 624.904 790.745C624.704 790.955 624.544 791.205 624.424 791.495C624.314 791.775 624.259 792.085 624.259 792.425V792.53H628.699V792.365C628.699 792.025 628.644 791.715 628.534 791.435C628.434 791.155 628.289 790.915 628.099 790.715C627.919 790.505 627.694 790.345 627.424 790.235C627.164 790.125 626.874 790.07 626.554 790.07ZM632.458 797V789.26H633.658V790.52H633.718C633.798 790.33 633.898 790.15 634.018 789.98C634.138 789.8 634.283 789.645 634.453 789.515C634.633 789.385 634.843 789.28 635.083 789.2C635.323 789.12 635.603 789.08 635.923 789.08C636.733 789.08 637.383 789.34 637.873 789.86C638.363 790.37 638.608 791.095 638.608 792.035V797H637.408V792.245C637.408 791.535 637.253 791.01 636.943 790.67C636.633 790.32 636.178 790.145 635.578 790.145C635.338 790.145 635.103 790.175 634.873 790.235C634.643 790.295 634.438 790.385 634.258 790.505C634.078 790.625 633.933 790.78 633.823 790.97C633.713 791.16 633.658 791.38 633.658 791.63V797H632.458ZM644.857 797C644.267 797 643.832 796.835 643.552 796.505C643.282 796.175 643.147 795.75 643.147 795.23V790.28H640.567V789.26H642.487C642.747 789.26 642.927 789.21 643.027 789.11C643.137 789 643.192 788.815 643.192 788.555V786.53H644.347V789.26H647.872V790.28H644.347V795.98H647.872V797H644.857ZM653.612 797.18C653.052 797.18 652.547 797.085 652.097 796.895C651.657 796.705 651.277 796.435 650.957 796.085C650.647 795.725 650.407 795.3 650.237 794.81C650.067 794.31 649.982 793.755 649.982 793.145C649.982 792.525 650.067 791.965 650.237 791.465C650.417 790.965 650.662 790.54 650.972 790.19C651.282 789.83 651.652 789.555 652.082 789.365C652.522 789.175 653.007 789.08 653.537 789.08C654.057 789.08 654.527 789.175 654.947 789.365C655.377 789.555 655.742 789.82 656.042 790.16C656.342 790.49 656.572 790.885 656.732 791.345C656.892 791.805 656.972 792.31 656.972 792.86V793.43H651.242V793.79C651.242 794.13 651.297 794.445 651.407 794.735C651.517 795.025 651.672 795.275 651.872 795.485C652.082 795.695 652.332 795.86 652.622 795.98C652.922 796.09 653.252 796.145 653.612 796.145C654.132 796.145 654.582 796.025 654.962 795.785C655.342 795.545 655.632 795.215 655.832 794.795L656.717 795.395C656.487 795.915 656.102 796.345 655.562 796.685C655.032 797.015 654.382 797.18 653.612 797.18ZM653.537 790.07C653.207 790.07 652.902 790.13 652.622 790.25C652.342 790.37 652.097 790.535 651.887 790.745C651.687 790.955 651.527 791.205 651.407 791.495C651.297 791.775 651.242 792.085 651.242 792.425V792.53H655.682V792.365C655.682 792.025 655.627 791.715 655.517 791.435C655.417 791.155 655.272 790.915 655.082 790.715C654.902 790.505 654.677 790.345 654.407 790.235C654.147 790.125 653.857 790.07 653.537 790.07ZM659.126 795.98H661.391V790.28H659.126V789.26H662.591V791.21H662.666C662.826 790.6 663.126 790.125 663.566 789.785C664.016 789.435 664.586 789.26 665.276 789.26H666.356V790.46H664.901C664.211 790.46 663.651 790.66 663.221 791.06C662.801 791.46 662.591 791.985 662.591 792.635V795.98H665.591V797H659.126V795.98ZM677.234 797V795.905H680.234V787.46H680.129L677.489 789.92L676.754 789.125L679.529 786.53H681.494V795.905H684.254V797H677.234ZM685.853 792.995V791.885H693.053V792.995H685.853ZM698.447 797.18C697.807 797.18 697.257 797.06 696.797 796.82C696.337 796.57 695.957 796.215 695.657 795.755C695.357 795.295 695.137 794.73 694.997 794.06C694.857 793.39 694.787 792.625 694.787 791.765C694.787 790.915 694.857 790.155 694.997 789.485C695.137 788.805 695.357 788.235 695.657 787.775C695.957 787.315 696.337 786.965 696.797 786.725C697.257 786.475 697.807 786.35 698.447 786.35C699.087 786.35 699.637 786.475 700.097 786.725C700.557 786.965 700.937 787.315 701.237 787.775C701.537 788.235 701.757 788.805 701.897 789.485C702.037 790.155 702.107 790.915 702.107 791.765C702.107 792.625 702.037 793.39 701.897 794.06C701.757 794.73 701.537 795.295 701.237 795.755C700.937 796.215 700.557 796.57 700.097 796.82C699.637 797.06 699.087 797.18 698.447 797.18ZM698.447 796.085C698.867 796.085 699.227 796.005 699.527 795.845C699.827 795.675 700.067 795.44 700.247 795.14C700.437 794.84 700.577 794.48 700.667 794.06C700.757 793.63 700.802 793.15 700.802 792.62V790.91C700.802 790.39 700.757 789.915 700.667 789.485C700.577 789.055 700.437 788.69 700.247 788.39C700.067 788.09 699.827 787.86 699.527 787.7C699.227 787.53 698.867 787.445 698.447 787.445C698.027 787.445 697.667 787.53 697.367 787.7C697.067 787.86 696.822 788.09 696.632 788.39C696.452 788.69 696.317 789.055 696.227 789.485C696.137 789.915 696.092 790.39 696.092 790.91V792.62C696.092 793.15 696.137 793.63 696.227 794.06C696.317 794.48 696.452 794.84 696.632 795.14C696.822 795.44 697.067 795.675 697.367 795.845C697.667 796.005 698.027 796.085 698.447 796.085ZM698.447 792.65C698.097 792.65 697.852 792.58 697.712 792.44C697.582 792.3 697.517 792.13 697.517 791.93V791.6C697.517 791.4 697.582 791.23 697.712 791.09C697.852 790.95 698.097 790.88 698.447 790.88C698.797 790.88 699.037 790.95 699.167 791.09C699.307 791.23 699.377 791.4 699.377 791.6V791.93C699.377 792.13 699.307 792.3 699.167 792.44C699.037 792.58 698.797 792.65 698.447 792.65Z" fill="white"/>
<path d="M617.77 15.18C617.21 15.18 616.71 15.085 616.27 14.895C615.84 14.695 615.475 14.42 615.175 14.07C614.875 13.72 614.645 13.295 614.485 12.795C614.335 12.295 614.26 11.74 614.26 11.13C614.26 10.52 614.34 9.965 614.5 9.465C614.66 8.965 614.89 8.54 615.19 8.19C615.49 7.83 615.855 7.555 616.285 7.365C616.715 7.175 617.205 7.08 617.755 7.08C618.505 7.08 619.115 7.245 619.585 7.575C620.055 7.905 620.4 8.335 620.62 8.865L619.66 9.375C619.52 8.975 619.285 8.665 618.955 8.445C618.635 8.225 618.235 8.115 617.755 8.115C617.405 8.115 617.09 8.175 616.81 8.295C616.54 8.405 616.31 8.565 616.12 8.775C615.93 8.985 615.785 9.235 615.685 9.525C615.595 9.815 615.55 10.13 615.55 10.47V11.79C615.55 12.13 615.595 12.445 615.685 12.735C615.785 13.025 615.93 13.275 616.12 13.485C616.31 13.695 616.545 13.86 616.825 13.98C617.105 14.09 617.425 14.145 617.785 14.145C618.305 14.145 618.735 14.025 619.075 13.785C619.415 13.545 619.685 13.215 619.885 12.795L620.74 13.38C620.51 13.9 620.15 14.33 619.66 14.67C619.18 15.01 618.55 15.18 617.77 15.18ZM626.629 15.18C626.069 15.18 625.564 15.085 625.114 14.895C624.674 14.705 624.294 14.435 623.974 14.085C623.664 13.725 623.424 13.3 623.254 12.81C623.084 12.31 622.999 11.755 622.999 11.145C622.999 10.525 623.084 9.965 623.254 9.465C623.434 8.965 623.679 8.54 623.989 8.19C624.299 7.83 624.669 7.555 625.099 7.365C625.539 7.175 626.024 7.08 626.554 7.08C627.074 7.08 627.544 7.175 627.964 7.365C628.394 7.555 628.759 7.82 629.059 8.16C629.359 8.49 629.589 8.885 629.749 9.345C629.909 9.805 629.989 10.31 629.989 10.86V11.43H624.259V11.79C624.259 12.13 624.314 12.445 624.424 12.735C624.534 13.025 624.689 13.275 624.889 13.485C625.099 13.695 625.349 13.86 625.639 13.98C625.939 14.09 626.269 14.145 626.629 14.145C627.149 14.145 627.599 14.025 627.979 13.785C628.359 13.545 628.649 13.215 628.849 12.795L629.734 13.395C629.504 13.915 629.119 14.345 628.579 14.685C628.049 15.015 627.399 15.18 626.629 15.18ZM626.554 8.07C626.224 8.07 625.919 8.13 625.639 8.25C625.359 8.37 625.114 8.535 624.904 8.745C624.704 8.955 624.544 9.205 624.424 9.495C624.314 9.775 624.259 10.085 624.259 10.425V10.53H628.699V10.365C628.699 10.025 628.644 9.715 628.534 9.435C628.434 9.155 628.289 8.915 628.099 8.715C627.919 8.505 627.694 8.345 627.424 8.235C627.164 8.125 626.874 8.07 626.554 8.07ZM632.458 15V7.26H633.658V8.52H633.718C633.798 8.33 633.898 8.15 634.018 7.98C634.138 7.8 634.283 7.645 634.453 7.515C634.633 7.385 634.843 7.28 635.083 7.2C635.323 7.12 635.603 7.08 635.923 7.08C636.733 7.08 637.383 7.34 637.873 7.86C638.363 8.37 638.608 9.095 638.608 10.035V15H637.408V10.245C637.408 9.535 637.253 9.01 636.943 8.67C636.633 8.32 636.178 8.145 635.578 8.145C635.338 8.145 635.103 8.175 634.873 8.235C634.643 8.295 634.438 8.385 634.258 8.505C634.078 8.625 633.933 8.78 633.823 8.97C633.713 9.16 633.658 9.38 633.658 9.63V15H632.458ZM644.857 15C644.267 15 643.832 14.835 643.552 14.505C643.282 14.175 643.147 13.75 643.147 13.23V8.28H640.567V7.26H642.487C642.747 7.26 642.927 7.21 643.027 7.11C643.137 7 643.192 6.815 643.192 6.555V4.53H644.347V7.26H647.872V8.28H644.347V13.98H647.872V15H644.857ZM653.612 15.18C653.052 15.18 652.547 15.085 652.097 14.895C651.657 14.705 651.277 14.435 650.957 14.085C650.647 13.725 650.407 13.3 650.237 12.81C650.067 12.31 649.982 11.755 649.982 11.145C649.982 10.525 650.067 9.965 650.237 9.465C650.417 8.965 650.662 8.54 650.972 8.19C651.282 7.83 651.652 7.555 652.082 7.365C652.522 7.175 653.007 7.08 653.537 7.08C654.057 7.08 654.527 7.175 654.947 7.365C655.377 7.555 655.742 7.82 656.042 8.16C656.342 8.49 656.572 8.885 656.732 9.345C656.892 9.805 656.972 10.31 656.972 10.86V11.43H651.242V11.79C651.242 12.13 651.297 12.445 651.407 12.735C651.517 13.025 651.672 13.275 651.872 13.485C652.082 13.695 652.332 13.86 652.622 13.98C652.922 14.09 653.252 14.145 653.612 14.145C654.132 14.145 654.582 14.025 654.962 13.785C655.342 13.545 655.632 13.215 655.832 12.795L656.717 13.395C656.487 13.915 656.102 14.345 655.562 14.685C655.032 15.015 654.382 15.18 653.612 15.18ZM653.537 8.07C653.207 8.07 652.902 8.13 652.622 8.25C652.342 8.37 652.097 8.535 651.887 8.745C651.687 8.955 651.527 9.205 651.407 9.495C651.297 9.775 651.242 10.085 651.242 10.425V10.53H655.682V10.365C655.682 10.025 655.627 9.715 655.517 9.435C655.417 9.155 655.272 8.915 655.082 8.715C654.902 8.505 654.677 8.345 654.407 8.235C654.147 8.125 653.857 8.07 653.537 8.07ZM659.126 13.98H661.391V8.28H659.126V7.26H662.591V9.21H662.666C662.826 8.6 663.126 8.125 663.566 7.785C664.016 7.435 664.586 7.26 665.276 7.26H666.356V8.46H664.901C664.211 8.46 663.651 8.66 663.221 9.06C662.801 9.46 662.591 9.985 662.591 10.635V13.98H665.591V15H659.126V13.98ZM677.234 15V13.905H680.234V5.46H680.129L677.489 7.92L676.754 7.125L679.529 4.53H681.494V13.905H684.254V15H677.234ZM685.853 10.995V9.885H693.053V10.995H685.853ZM698.447 15.18C697.807 15.18 697.257 15.06 696.797 14.82C696.337 14.57 695.957 14.215 695.657 13.755C695.357 13.295 695.137 12.73 694.997 12.06C694.857 11.39 694.787 10.625 694.787 9.765C694.787 8.915 694.857 8.155 694.997 7.485C695.137 6.805 695.357 6.235 695.657 5.775C695.957 5.315 696.337 4.965 696.797 4.725C697.257 4.475 697.807 4.35 698.447 4.35C699.087 4.35 699.637 4.475 700.097 4.725C700.557 4.965 700.937 5.315 701.237 5.775C701.537 6.235 701.757 6.805 701.897 7.485C702.037 8.155 702.107 8.915 702.107 9.765C702.107 10.625 702.037 11.39 701.897 12.06C701.757 12.73 701.537 13.295 701.237 13.755C700.937 14.215 700.557 14.57 700.097 14.82C699.637 15.06 699.087 15.18 698.447 15.18ZM698.447 14.085C698.867 14.085 699.227 14.005 699.527 13.845C699.827 13.675 700.067 13.44 700.247 13.14C700.437 12.84 700.577 12.48 700.667 12.06C700.757 11.63 700.802 11.15 700.802 10.62V8.91C700.802 8.39 700.757 7.915 700.667 7.485C700.577 7.055 700.437 6.69 700.247 6.39C700.067 6.09 699.827 5.86 699.527 5.7C699.227 5.53 698.867 5.445 698.447 5.445C698.027 5.445 697.667 5.53 697.367 5.7C697.067 5.86 696.822 6.09 696.632 6.39C696.452 6.69 696.317 7.055 696.227 7.485C696.137 7.915 696.092 8.39 696.092 8.91V10.62C696.092 11.15 696.137 11.63 696.227 12.06C696.317 12.48 696.452 12.84 696.632 13.14C696.822 13.44 697.067 13.675 697.367 13.845C697.667 14.005 698.027 14.085 698.447 14.085ZM698.447 10.65C698.097 10.65 697.852 10.58 697.712 10.44C697.582 10.3 697.517 10.13 697.517 9.93V9.6C697.517 9.4 697.582 9.23 697.712 9.09C697.852 8.95 698.097 8.88 698.447 8.88C698.797 8.88 699.037 8.95 699.167 9.09C699.307 9.23 699.377 9.4 699.377 9.6V9.93C699.377 10.13 699.307 10.3 699.167 10.44C699.037 10.58 698.797 10.65 698.447 10.65Z" fill="white"/>
</svg>
