<svg width="346" height="362" viewBox="0 0 346 362" fill="none" xmlns="http://www.w3.org/2000/svg">
<path d="M339.939 180.06C340.689 180.06 341.249 179.896 341.618 179.567C341.998 179.228 342.188 178.797 342.188 178.273V178.165C342.188 177.59 342.003 177.159 341.634 176.871C341.274 176.584 340.802 176.44 340.217 176.44C339.642 176.44 339.174 176.568 338.815 176.825C338.466 177.071 338.178 177.4 337.952 177.811L336.982 177.071C337.115 176.856 337.28 176.645 337.475 176.44C337.67 176.224 337.896 176.034 338.152 175.87C338.419 175.706 338.722 175.572 339.061 175.469C339.41 175.367 339.806 175.315 340.247 175.315C340.71 175.315 341.141 175.377 341.541 175.5C341.942 175.613 342.291 175.788 342.589 176.024C342.887 176.25 343.118 176.532 343.282 176.871C343.457 177.21 343.544 177.595 343.544 178.027C343.544 178.376 343.487 178.689 343.374 178.966C343.272 179.243 343.123 179.485 342.928 179.69C342.743 179.896 342.522 180.07 342.265 180.214C342.009 180.358 341.736 180.465 341.449 180.537V180.599C341.747 180.661 342.034 180.763 342.312 180.907C342.589 181.041 342.835 181.22 343.051 181.446C343.267 181.662 343.436 181.929 343.559 182.247C343.693 182.555 343.759 182.91 343.759 183.31C343.759 183.772 343.667 184.198 343.482 184.589C343.308 184.969 343.056 185.297 342.727 185.574C342.409 185.841 342.019 186.052 341.557 186.206C341.105 186.36 340.602 186.437 340.047 186.437C339.575 186.437 339.154 186.386 338.784 186.283C338.425 186.18 338.101 186.042 337.814 185.867C337.536 185.693 337.29 185.497 337.074 185.282C336.869 185.066 336.684 184.84 336.52 184.604L337.49 183.865C337.634 184.08 337.783 184.275 337.937 184.45C338.091 184.625 338.265 184.779 338.461 184.912C338.666 185.035 338.897 185.133 339.154 185.205C339.41 185.277 339.708 185.313 340.047 185.313C340.807 185.313 341.387 185.138 341.788 184.789C342.199 184.44 342.404 183.942 342.404 183.295V183.171C342.404 182.535 342.204 182.042 341.803 181.693C341.413 181.343 340.822 181.169 340.032 181.169H338.753V180.06H339.939Z" fill="white"/>
<path d="M172.719 16.7297V15.6053H175.8V6.93285H175.692L172.981 9.45909L172.227 8.64269L175.076 5.97781H177.094V15.6053H179.929V16.7297H172.719ZM188.918 16.7297H181.74V15.405L185.329 12.1702C185.853 11.6978 186.284 11.2151 186.623 10.7222C186.962 10.219 187.132 9.69015 187.132 9.13561V8.95077C187.132 8.3038 186.962 7.80574 186.623 7.45659C186.284 7.09716 185.781 6.91745 185.114 6.91745C184.456 6.91745 183.948 7.08689 183.589 7.42578C183.239 7.7544 182.978 8.19597 182.803 8.75052L181.648 8.31921C181.75 8.00086 181.889 7.69278 182.064 7.39497C182.248 7.08689 182.48 6.81476 182.757 6.57856C183.034 6.34237 183.368 6.15239 183.758 6.00862C184.159 5.86485 184.621 5.79297 185.144 5.79297C185.678 5.79297 186.151 5.86999 186.562 6.02402C186.983 6.17806 187.332 6.39372 187.609 6.67099C187.897 6.94826 188.112 7.27687 188.256 7.65684C188.41 8.0368 188.487 8.45271 188.487 8.90455C188.487 9.31532 188.425 9.70042 188.302 10.0598C188.189 10.4193 188.025 10.7633 187.809 11.0919C187.604 11.4205 187.352 11.744 187.055 12.0624C186.767 12.3704 186.443 12.6785 186.084 12.9866L183.08 15.6053H188.918V16.7297Z" fill="white"/>
<path d="M255.064 39.5149V38.3904H258.145V29.718H258.037L255.326 32.2443L254.571 31.4278L257.421 28.763H259.439V38.3904H262.273V39.5149H255.064Z" fill="white"/>
<path d="M324.003 102.402H316.825V101.078L320.414 97.8428C320.938 97.3704 321.369 96.8877 321.708 96.3948C322.047 95.8916 322.216 95.3628 322.216 94.8082V94.6234C322.216 93.9764 322.047 93.4783 321.708 93.1292C321.369 92.7698 320.866 92.5901 320.199 92.5901C319.541 92.5901 319.033 92.7595 318.674 93.0984C318.324 93.427 318.063 93.8686 317.888 94.4231L316.733 93.9918C316.835 93.6735 316.974 93.3654 317.149 93.0676C317.333 92.7595 317.565 92.4874 317.842 92.2512C318.119 92.015 318.453 91.825 318.843 91.6812C319.244 91.5375 319.706 91.4656 320.229 91.4656C320.763 91.4656 321.236 91.5426 321.647 91.6966C322.068 91.8507 322.417 92.0663 322.694 92.3436C322.982 92.6209 323.197 92.9495 323.341 93.3294C323.495 93.7094 323.572 94.1253 323.572 94.5772C323.572 94.9879 323.51 95.373 323.387 95.7325C323.274 96.0919 323.11 96.4359 322.894 96.7645C322.689 97.0931 322.437 97.4166 322.139 97.735C321.852 98.043 321.528 98.3511 321.169 98.6592L318.165 101.278H324.003V102.402Z" fill="white"/>
<path d="M32.3468 272.11C31.7203 272.11 31.1709 272.033 30.6985 271.879C30.2262 271.714 29.8308 271.493 29.5124 271.216C29.2044 270.939 28.9682 270.61 28.8039 270.23C28.6498 269.85 28.5728 269.44 28.5728 268.998C28.5728 268.259 28.7731 267.673 29.1736 267.242C29.5741 266.811 30.1029 266.508 30.7602 266.333V266.21C30.1851 266.015 29.7281 265.702 29.3892 265.27C29.0606 264.829 28.8963 264.3 28.8963 263.684C28.8963 262.862 29.1992 262.21 29.8051 261.727C30.411 261.234 31.2582 260.988 32.3468 260.988C33.4353 260.988 34.2825 261.234 34.8884 261.727C35.4943 262.21 35.7972 262.862 35.7972 263.684C35.7972 264.3 35.6278 264.829 35.2889 265.27C34.9603 265.702 34.5084 266.015 33.9334 266.21V266.333C34.5906 266.508 35.1195 266.811 35.52 267.242C35.9205 267.673 36.1207 268.259 36.1207 268.998C36.1207 269.44 36.0386 269.85 35.8743 270.23C35.7202 270.61 35.484 270.939 35.1657 271.216C34.8473 271.493 34.452 271.714 33.9796 271.879C33.5175 272.033 32.9732 272.11 32.3468 272.11ZM32.3468 271.016C33.1067 271.016 33.7023 270.847 34.1336 270.508C34.5649 270.169 34.7806 269.691 34.7806 269.075V268.736C34.7806 268.12 34.5649 267.643 34.1336 267.304C33.7126 266.965 33.117 266.795 32.3468 266.795C31.5766 266.795 30.9758 266.965 30.5445 267.304C30.1235 267.643 29.9129 268.12 29.9129 268.736V269.075C29.9129 269.691 30.1286 270.169 30.5599 270.508C30.9912 270.847 31.5868 271.016 32.3468 271.016ZM32.3468 265.748C33.0451 265.748 33.5739 265.599 33.9334 265.301C34.3031 265.003 34.4879 264.577 34.4879 264.023V263.807C34.4879 263.252 34.2979 262.826 33.918 262.528C33.5483 262.231 33.0245 262.082 32.3468 262.082C31.669 262.082 31.1401 262.231 30.7602 262.528C30.3905 262.826 30.2056 263.252 30.2056 263.807V264.023C30.2056 264.577 30.3853 265.003 30.7448 265.301C31.1144 265.599 31.6484 265.748 32.3468 265.748Z" fill="white"/>
<path opacity="0.9" d="M8.63833 179.444C8.63833 180.245 8.5151 180.999 8.26864 181.708C8.03244 182.406 7.72436 183.048 7.3444 183.634C6.96444 184.209 6.5434 184.722 6.08128 185.174C5.62943 185.616 5.18272 185.975 4.74114 186.252H3.07752C3.66287 185.831 4.18147 185.42 4.63332 185.02C5.09543 184.619 5.50107 184.203 5.85022 183.772C6.19938 183.331 6.49205 182.863 6.72825 182.37C6.96444 181.867 7.15956 181.302 7.31359 180.676L7.23657 180.645C6.96957 181.087 6.62555 181.456 6.20451 181.754C5.79374 182.042 5.25461 182.186 4.5871 182.186C4.11472 182.186 3.67827 182.109 3.27777 181.955C2.88754 181.8 2.54865 181.58 2.26111 181.292C1.98384 181.005 1.76305 180.661 1.59875 180.26C1.44471 179.849 1.36769 179.387 1.36769 178.874C1.36769 178.35 1.44984 177.872 1.61415 177.441C1.78873 177 2.03519 176.625 2.35354 176.317C2.67189 175.998 3.05185 175.752 3.49343 175.577C3.94527 175.403 4.44333 175.315 4.98761 175.315C5.55241 175.315 6.06074 175.413 6.51259 175.608C6.96444 175.793 7.3444 176.065 7.65248 176.425C7.97083 176.774 8.21216 177.205 8.37646 177.718C8.55104 178.232 8.63833 178.807 8.63833 179.444ZM5.00301 181.123C5.7424 181.123 6.31234 180.922 6.71284 180.522C7.12361 180.121 7.329 179.557 7.329 178.828V178.704C7.329 177.975 7.12361 177.41 6.71284 177.01C6.31234 176.609 5.7424 176.409 5.00301 176.409C4.26362 176.409 3.68854 176.609 3.27777 177.01C2.87727 177.41 2.67702 177.975 2.67702 178.704V178.828C2.67702 179.557 2.87727 180.121 3.27777 180.522C3.68854 180.922 4.26362 181.123 5.00301 181.123Z" fill="white"/>
<path opacity="0.9" d="M17.7781 102.402V101.278H20.8589V92.6055H20.751L18.04 95.1317L17.2852 94.3153L20.1349 91.6504H22.1528V101.278H24.9871V102.402H17.7781ZM30.3262 102.587C29.669 102.587 29.1042 102.464 28.6318 102.217C28.1594 101.961 27.7692 101.596 27.4611 101.124C27.153 100.651 26.9271 100.071 26.7834 99.3832C26.6396 98.6951 26.5677 97.9095 26.5677 97.0264C26.5677 96.1535 26.6396 95.373 26.7834 94.685C26.9271 93.9867 27.153 93.4013 27.4611 92.9289C27.7692 92.4566 28.1594 92.0971 28.6318 91.8507C29.1042 91.5939 29.669 91.4656 30.3262 91.4656C30.9835 91.4656 31.5483 91.5939 32.0207 91.8507C32.4931 92.0971 32.8833 92.4566 33.1914 92.9289C33.4995 93.4013 33.7254 93.9867 33.8691 94.685C34.0129 95.373 34.0848 96.1535 34.0848 97.0264C34.0848 97.9095 34.0129 98.6951 33.8691 99.3832C33.7254 100.071 33.4995 100.651 33.1914 101.124C32.8833 101.596 32.4931 101.961 32.0207 102.217C31.5483 102.464 30.9835 102.587 30.3262 102.587ZM30.3262 101.463C30.7576 101.463 31.1273 101.381 31.4353 101.216C31.7434 101.042 31.9899 100.8 32.1747 100.492C32.3698 100.184 32.5136 99.8145 32.606 99.3832C32.6984 98.9416 32.7447 98.4487 32.7447 97.9044V96.1484C32.7447 95.6144 32.6984 95.1266 32.606 94.685C32.5136 94.2434 32.3698 93.8686 32.1747 93.5605C31.9899 93.2524 31.7434 93.0162 31.4353 92.8519C31.1273 92.6773 30.7576 92.5901 30.3262 92.5901C29.8949 92.5901 29.5252 92.6773 29.2172 92.8519C28.9091 93.0162 28.6575 93.2524 28.4624 93.5605C28.2775 93.8686 28.1389 94.2434 28.0465 94.685C27.954 95.1266 27.9078 95.6144 27.9078 96.1484V97.9044C27.9078 98.4487 27.954 98.9416 28.0465 99.3832C28.1389 99.8145 28.2775 100.184 28.4624 100.492C28.6575 100.8 28.9091 101.042 29.2172 101.216C29.5252 101.381 29.8949 101.463 30.3262 101.463ZM30.3262 97.9352C29.9668 97.9352 29.7152 97.8633 29.5715 97.7196C29.438 97.5758 29.3712 97.4012 29.3712 97.1958V96.8569C29.3712 96.6516 29.438 96.477 29.5715 96.3332C29.7152 96.1894 29.9668 96.1176 30.3262 96.1176C30.6857 96.1176 30.9321 96.1894 31.0656 96.3332C31.2094 96.477 31.2813 96.6516 31.2813 96.8569V97.1958C31.2813 97.4012 31.2094 97.5758 31.0656 97.7196C30.9321 97.8633 30.6857 97.9352 30.3262 97.9352Z" fill="white"/>
<path opacity="0.9" d="M87.9558 39.5149V38.3904H91.0366V29.718H90.9288L88.2177 32.2443L87.4629 31.4278L90.3126 28.763H92.3305V38.3904H95.1648V39.5149H87.9558ZM97.1921 39.5149V38.3904H100.273V29.718H100.165L97.454 32.2443L96.6992 31.4278L99.5489 28.763H101.567V38.3904H104.401V39.5149H97.1921Z" fill="white"/>
<path d="M93.2752 333.901L97.4805 324.258H92.7669V326.261H91.6116V323.149H98.7898V324.289L94.6616 333.901H93.2752Z" fill="white"/>
<path d="M178.689 356.982C178.054 356.982 177.482 356.879 176.974 356.671C176.466 356.451 176.033 356.145 175.676 355.753C175.329 355.349 175.058 354.858 174.862 354.281C174.677 353.704 174.585 353.057 174.585 352.342C174.585 351.441 174.717 350.598 174.983 349.813C175.26 349.017 175.606 348.295 176.022 347.649C176.449 346.991 176.922 346.413 177.442 345.917C177.961 345.409 178.469 344.999 178.966 344.688H180.836C180.178 345.161 179.589 345.623 179.07 346.073C178.562 346.523 178.111 346.996 177.719 347.493C177.326 347.978 176.997 348.503 176.732 349.069C176.466 349.623 176.247 350.252 176.074 350.956L176.16 350.991C176.449 350.494 176.83 350.085 177.303 349.761C177.777 349.427 178.389 349.259 179.139 349.259C179.67 349.259 180.155 349.346 180.594 349.519C181.032 349.692 181.413 349.94 181.736 350.264C182.06 350.587 182.308 350.979 182.481 351.441C182.666 351.903 182.758 352.417 182.758 352.982C182.758 353.571 182.66 354.114 182.464 354.61C182.267 355.095 181.99 355.516 181.633 355.874C181.286 356.221 180.859 356.492 180.351 356.688C179.855 356.884 179.301 356.982 178.689 356.982ZM178.671 355.753C179.503 355.753 180.143 355.528 180.594 355.078C181.055 354.627 181.286 353.992 181.286 353.173V353.034C181.286 352.215 181.055 351.58 180.594 351.129C180.143 350.679 179.503 350.454 178.671 350.454C177.84 350.454 177.194 350.679 176.732 351.129C176.282 351.58 176.057 352.215 176.057 353.034V353.173C176.057 353.992 176.282 354.627 176.732 355.078C177.194 355.528 177.84 355.753 178.671 355.753Z" fill="white"/>
<path d="M321.554 271.925V269.814H316.255V268.675L320.907 261.173H322.786V268.752H324.388V269.814H322.786V271.925H321.554ZM317.41 268.752H321.554V262.174H321.493L317.41 268.752Z" fill="white"/>
<path d="M261.472 319.716H256.666L256.358 323.829H256.466C256.733 323.469 257.031 323.187 257.359 322.982C257.688 322.766 258.14 322.658 258.715 322.658C259.187 322.658 259.619 322.735 260.009 322.889C260.409 323.033 260.753 323.249 261.041 323.536C261.328 323.824 261.554 324.173 261.719 324.584C261.883 324.984 261.965 325.446 261.965 325.97C261.965 326.494 261.883 326.976 261.719 327.418C261.554 327.849 261.313 328.224 260.995 328.543C260.676 328.851 260.291 329.092 259.839 329.266C259.388 329.441 258.874 329.528 258.299 329.528C257.847 329.528 257.442 329.477 257.082 329.374C256.733 329.272 256.42 329.133 256.142 328.958C255.875 328.784 255.639 328.589 255.434 328.373C255.229 328.157 255.044 327.931 254.879 327.695L255.85 326.956C255.994 327.172 256.137 327.367 256.281 327.541C256.435 327.716 256.61 327.87 256.805 328.003C257 328.127 257.221 328.224 257.467 328.296C257.714 328.368 258.001 328.404 258.33 328.404C259.069 328.404 259.634 328.204 260.024 327.803C260.425 327.403 260.625 326.848 260.625 326.139V326.016C260.625 325.308 260.425 324.753 260.024 324.353C259.624 323.952 259.049 323.752 258.299 323.752C257.786 323.752 257.385 323.839 257.098 324.014C256.82 324.188 256.564 324.404 256.327 324.661L255.234 324.507L255.619 318.592H261.472V319.716Z" fill="white"/>
<path d="M180.259 181.693L180.363 179.163H180.246L178.559 183.82L176.873 179.163H176.756L176.86 181.693V185.727H175.174V176.673H177.47L178.585 179.721H178.689L179.805 176.673H181.945V185.727H180.259V181.693ZM186.337 185.882C185.853 185.882 185.503 185.779 185.287 185.571C185.079 185.355 184.975 185.1 184.975 184.806V184.352C184.975 184.058 185.079 183.807 185.287 183.599C185.503 183.383 185.853 183.275 186.337 183.275C186.822 183.275 187.168 183.383 187.375 183.599C187.591 183.807 187.699 184.058 187.699 184.352V184.806C187.699 185.1 187.591 185.355 187.375 185.571C187.168 185.779 186.822 185.882 186.337 185.882Z" fill="white"/>
</svg>
